0
SECTION
2
HEADER
9
$INSUNITS
70
4
9
$ACADVER
1
AC1014
9
$HANDSEED
5
FFFF
0
ENDSEC
0
SECTION
2
TABLES
0
TABLE
2
VPORT
5
8
100
AcDbSymbolTable
0
ENDTAB
0
TABLE
2
LTYPE
5
5
100
AcDbSymbolTable
0
LTYPE
5
14
100
AcDbSymbolTableRecord
100
AcDbLinetypeTableRecord
2
BYBLOCK
70
0
0
LTYPE
5
15
100
AcDbSymbolTableRecord
100
AcDbLinetypeTableRecord
2
BYLAYER
70
0
0
ENDTAB
0
TABLE
2
LAYER
5
2
100
AcDbSymbolTable
70
2
0
LAYER
5
50
100
AcDbSymbolTableRecord
100
AcDbLayerTableRecord
2
0
70
0
6
CONTINUOUS
0
ENDTAB
0
TABLE
2
STYLE
5
3
100
AcDbSymbolTable
70
1
0
STYLE
5
11
100
AcDbSymbolTableRecord
100
AcDbTextStyleTableRecord
2
STANDARD
70
0
0
ENDTAB
0
TABLE
2
VIEW
5
6
100
AcDbSymbolTable
70
0
0
ENDTAB
0
TABLE
2
UCS
5
7
100
AcDbSymbolTable
70
0
0
ENDTAB
0
TABLE
2
APPID
5
9
100
AcDbSymbolTable
70
2
0
APPID
5
12
100
AcDbSymbolTableRecord
100
AcDbRegAppTableRecord
2
ACAD
70
0
0
ENDTAB
0
TABLE
2
DIMSTYLE
5
A
100
AcDbSymbolTable
70
1
0
ENDTAB
0
TABLE
2
BLOCK_RECORD
5
1
100
AcDbSymbolTable
70
1
0
BLOCK_RECORD
5
1F
100
AcDbSymbolTableRecord
100
AcDbBlockTableRecord
2
*MODEL_SPACE
0
BLOCK_RECORD
5
1B
100
AcDbSymbolTableRecord
100
AcDbBlockTableRecord
2
*PAPER_SPACE
0
ENDTAB
0
ENDSEC
0
SECTION
2
BLOCKS
0
BLOCK
5
20
100
AcDbEntity
100
AcDbBlockBegin
2
*MODEL_SPACE
0
ENDBLK
5
21
100
AcDbEntity
100
AcDbBlockEnd
0
BLOCK
5
1C
100
AcDbEntity
100
AcDbBlockBegin
2
*PAPER_SPACE
0
ENDBLK
5
1D
100
AcDbEntity
100
AcDbBlockEnd
0
ENDSEC
0
SECTION
2
ENTITIES
0
LINE
5
100
100
AcDbEntity
8
0
100
AcDbLine
10
-158.23316574906664
20
66.031217651219151
30
4.2583193412717073e-12
11
-161.76903243182377
21
66.031217651218654
31
3.7772631896994678e-12
0
ARC
5
101
100
AcDbEntity
8
0
100
AcDbCircle
10
-161.76903157140001
20
63.531217651000304
30
4.8634602965086473e-12
40
2.5000000002184972
100
AcDbArc
50
90.000019719460198
51
150.00075702191458
0
LINE
5
102
100
AcDbEntity
8
0
100
AcDbLine
10
-163.93411159632825
20
64.781189044935616
30
4.8259564332480236e-12
11
-165.95482840937578
21
61.281204381945635
31
3.984874330806815e-12
0
ARC
5
103
100
AcDbEntity
8
0
100
AcDbCircle
10
-168.98591242931499
20
63.031213505740304
30
3.113492066483009e-12
40
3.5000000000000027
100
AcDbArc
50
269.99917510185799
51
329.99983059945936
0
LINE
5
104
100
AcDbEntity
8
0
100
AcDbLine
10
-168.98596281947499
20
59.531213506103036
30
2.87199080320757e-12
11
-172.00410372586748
21
59.531211935771495
31
3.1282068624853368e-12
0
ARC
5
105
100
AcDbEntity
8
0
100
AcDbCircle
10
-172.00406189239999
20
57.53121192899701
30
4.0789937057772135e-13
40
2.0000000072119946
100
AcDbArc
50
90.001198440560614
51
135.00032537039283
0
LINE
5
106
100
AcDbEntity
8
0
100
AcDbLine
10
-173.41828348576453
20
58.945417460333033
30
3.6546786289939115e-13
11
-175.24671554223534
21
57.116985416594126
31
4.2180074187032316e-12
0
ARC
5
107
100
AcDbEntity
8
0
100
AcDbCircle
10
-173.83250999840001
20
55.702763823002108
30
4.6561449000529549e-12
40
2.0000000089991317
100
AcDbArc
50
134.99967487820044
51
179.99920253793701
0
LINE
5
108
100
AcDbEntity
8
0
100
AcDbLine
10
-175.83250999820626
20
55.702791659681694
30
4.6561466669334213e-12
11
-175.83250999816073
21
12.018442226066455
31
4.1437045357079451e-12
0
ARC
5
109
100
AcDbEntity
8
0
100
AcDbCircle
10
-173.93251000239999
20
12.018576119997002
30
4.1120279053337141e-12
40
1.9000000004785225
100
AcDbArc
50
180.00403766157706
51
218.66216333186421
0
LINE
5
110
100
AcDbEntity
8
0
100
AcDbLine
10
-175.41611195206912
20
10.831594546872129
30
4.1476418357281599e-12
11
-174.29268357594094
21
9.4271898782199024
31
-3.0813913840859417e-12
0
ARC
5
111
100
AcDbEntity
8
0
100
AcDbCircle
10
-175.93253574639999
20
8.1153648559946507
30
-3.7918028957784071e-12
40
2.0999999999999943
100
AcDbArc
50
0.0012559625549324516
51
38.658599959646473
0
LINE
5
112
100
AcDbEntity
8
0
100
AcDbLine
10
-173.83253574690454
20
8.1154108894271655
30
-3.7917965319006473e-12
11
-173.83253576310142
21
-32.114267272932373
31
1.9345097811310472e-12
0
ARC
5
113
100
AcDbEntity
8
0
100
AcDbCircle
10
-175.93253574639999
20
-32.1142212490006
30
3.3176624789715833e-12
40
2.100000000000001
100
AcDbArc
50
321.34139914107743
51
359.99874429660935
0
LINE
5
114
100
AcDbEntity
8
0
100
AcDbLine
10
-174.29268360208877
20
-33.42604629251742
30
3.3334282076922531e-12
11
-175.41611193361317
21
-34.830450941440851
31
1.1850166722048378e-13
0
ARC
5
115
100
AcDbEntity
8
0
100
AcDbCircle
10
-173.93251000239999
20
-36.017432512000703
30
2.3640012843615406e-12
40
1.8999999839863604
100
AcDbArc
50
141.33783638084111
51
179.99730798088473
0
LINE
5
116
100
AcDbEntity
8
0
100
AcDbLine
10
-175.83251000030285
20
-36.017343241266865
30
2.3640063914444924e-12
11
-175.8325099990779
21
-55.70166498745894
31
-3.7996761391410375e-12
0
ARC
5
117
100
AcDbEntity
8
0
100
AcDbCircle
10
-173.8325099994
20
-55.701690786998405
30
-3.8435299629399e-12
40
1.9999999998443081
100
AcDbArc
50
179.99926089825837
51
225.00032501785225
0
LINE
5
118
100
AcDbEntity
8
0
100
AcDbLine
10
-175.24671553943773
20
-57.115912371661359
30
-3.8435299629399024e-12
11
-173.41828349995001
21
-58.944344432803241
31
3.7347584695646738e-12
0
ARC
5
119
100
AcDbEntity
8
0
100
AcDbCircle
10
-172.00406189239999
20
-57.530138893998597
30
3.042466695165615e-12
40
2.0000000153117767
100
AcDbArc
50
224.99967449354557
51
269.99880169029035
0
LINE
5
120
100
AcDbEntity
8
0
100
AcDbLine
10
-172.00410372129977
20
-59.53013889356118
30
3.1024742494974274e-12
11
-168.98655886675317
21
-59.530138902566058
31
2.8333807531857995e-12
0
ARC
5
121
100
AcDbEntity
8
0
100
AcDbCircle
10
-168.9866280304
20
-63.030138892997201
30
3.3687400083682107e-13
40
3.4999999999999991
100
AcDbArc
50
30.000144255910513
51
89.998867775694492
0
LINE
5
122
100
AcDbEntity
8
0
100
AcDbLine
10
-165.95554352321014
20
-61.280131261507123
30
2.8436716209358725e-13
11
-163.93411156292046
21
-64.781308114844052
31
-1.8956082670332737e-13
0
ARC
5
123
100
AcDbEntity
8
0
100
AcDbCircle
10
-161.76910039840004
20
-63.531217500005297
30
-1.8129490640044215e-12
40
2.4999999775612132
100
AcDbArc
50
210.00239833770064
51
270.0015576338958
0
LINE
5
124
100
AcDbEntity
8
0
100
AcDbLine
10
-161.76903243379999
20
-66.031217499081464
30
-1.9854499665391849e-12
11
-158.23316574913704
21
-66.031217499266404
31
-2.3713938153208404e-12
0
ARC
5
125
100
AcDbEntity
8
0
100
AcDbCircle
10
-158.2330978274
20
-63.531217500005297
30
-1.8129490640044215e-12
40
2.5000000001837792
100
AcDbArc
50
269.99844334845204
51
329.99760252915888
0
LINE
5
126
100
AcDbEntity
8
0
100
AcDbLine
10
-156.06808662453417
20
-64.78130809330861
30
-1.8992057660573507e-12
11
-154.04665475607405
21
-61.280131288147956
31
-1.0472807454742164e-12
0
ARC
5
127
100
AcDbEntity
8
0
100
AcDbCircle
10
-151.01557019640001
20
-63.030138892997201
30
3.3687400083682107e-13
40
3.4999999999999916
100
AcDbArc
50
90.001131359192229
51
149.99985655136754
0
LINE
5
128
100
AcDbEntity
8
0
100
AcDbLine
10
-151.01563930720025
20
-59.530138893679535
30
2.3186078063544967e-13
11
-100.98659997610972
21
-59.530138902388813
31
2.7730037347226625e-12
0
ARC
5
129
100
AcDbEntity
8
0
100
AcDbCircle
10
-100.98654982940002
20
-63.030138892997201
30
3.3687400083682107e-13
40
3.5000000000000013
100
AcDbArc
50
30.000143984981541
51
90.000820912808479
0
LINE
5
130
100
AcDbEntity
8
0
100
AcDbLine
10
-97.955465313935051
20
-61.280131275839906
30
2.8436716214252237e-13
11
-95.93415265165396
21
-64.781308074277291
31
-3.3890021958320153e-13
0
ARC
5
131
100
AcDbEntity
8
0
100
AcDbCircle
10
-93.769141406399996
20
-63.531217499999997
30
-1.8129490640044163e-12
40
2.500000027194603
100
AcDbArc
50
210.0023966074574
51
270.00155566291971
0
LINE
5
132
100
AcDbEntity
8
0
100
AcDbLine
10
-93.769073527800003
20
-66.031217499078494
30
-1.9854499663919661e-12
11
-78.233122819624697
21
-66.031217499264784
31
-3.5247529165346304e-12
0
ARC
5
133
100
AcDbEntity
8
0
100
AcDbCircle
10
-78.233054912399993
20
-63.531217499999997
30
-4.3837051719934862e-12
40
2.5000000001870708
100
AcDbArc
50
269.99844368105033
51
329.99760265167549
0
LINE
5
134
100
AcDbEntity
8
0
100
AcDbLine
10
-76.068043706861076
20
-64.781308088673825
30
-4.3837051719934878e-12
11
-74.046731256491526
21
-61.280131177283479
31
-3.7219756360077148e-13
0
ARC
5
135
100
AcDbEntity
8
0
100
AcDbCircle
10
-71.015646622638897
20
-63.030137686211503
30
3.3687400204264179e-13
40
3.4999999999999964
100
AcDbArc
50
89.999177536168915
51
149.99987269541643
0
LINE
5
136
100
AcDbEntity
8
0
100
AcDbLine
10
-71.01559638118249
20
-59.530137686572111
30
2.3186078170083447e-13
11
-8.9865923575387008
21
-59.530138902391556
31
3.6160754786432183e-12
0
ARC
5
137
100
AcDbEntity
8
0
100
AcDbCircle
10
-8.9865421994000503
20
-63.030138892997201
30
1.8911422490630706e-12
40
3.5
100
AcDbArc
50
30.000144086462239
51
90.000821099902979
0
LINE
5
138
100
AcDbEntity
8
0
100
AcDbLine
10
-5.9554576870346532
20
-61.280131270471337
30
1.8911422490630698e-12
11
-3.9341449229548036
21
-64.78130812514479
31
-1.5952167529691257e-12
0
ARC
5
139
100
AcDbEntity
8
0
100
AcDbCircle
10
-1.7691337774000202
20
-63.531217499999997
30
-4.3837051719934862e-12
40
2.4999999662902668
100
AcDbArc
50
210.00239875959431
51
270.00155540165071
0
LINE
5
140
100
AcDbEntity
8
0
100
AcDbLine
10
-1.7690659102000379
20
-66.031217499078807
30
-4.3837051719934878e-12
11
29.76679806078543
21
-66.031217499265111
31
-2.3254543135192675e-12
0
ARC
5
141
100
AcDbEntity
8
0
100
AcDbCircle
10
29.766865932600002
20
-63.531217499999997
30
-1.8129490640044163e-12
40
2.5000000001864287
100
AcDbArc
50
269.99844449259081
51
329.99760306084721
0
LINE
5
142
100
AcDbEntity
8
0
100
AcDbLine
10
31.931877147066317
20
-64.781308073212628
30
-1.8992057648143499e-12
11
33.953309043712373
21
-61.280131273808571
31
-4.3676488841065067e-13
0
ARC
5
143
100
AcDbEntity
8
0
100
AcDbCircle
10
36.984394101599904
20
-63.030137963002907
30
1.4366886855353732e-12
40
3.5000000000000009
100
AcDbArc
50
89.958208086229845
51
149.99987361056526
0
LINE
5
144
100
AcDbEntity
8
0
100
AcDbLine
10
36.986947024109526
20
-59.530138894062077
30
1.6781898852771174e-12
11
71.015953998977722
21
-59.530138902391016
31
3.9586102611629978e-12
0
ARC
5
145
100
AcDbEntity
8
0
100
AcDbCircle
10
71.016004110599994
20
-63.030138892997201
30
1.8911422490630706e-12
40
3.4999999999999991
100
AcDbArc
50
30.000143701774505
51
90.000820338419501
0
LINE
5
146
100
AcDbEntity
8
0
100
AcDbLine
10
74.047088634715067
20
-61.28013129082224
30
1.8911422490630706e-12
11
76.068401319707306
21
-64.781308089951835
31
-1.4825603656904287e-12
0
ARC
5
147
100
AcDbEntity
8
0
100
AcDbCircle
10
78.233412532599999
20
-63.531217499999997
30
-4.3837051719934862e-12
40
2.5000000070074502
100
AcDbArc
50
210.00239728941546
51
270.00155647193623
0
LINE
5
148
100
AcDbEntity
8
0
100
AcDbLine
10
78.233480446499996
20
-66.031217499077542
30
-4.3837051719934878e-12
11
81.769347131687425
21
-66.031217499264187
31
-2.3254552829830847e-12
0
ARC
5
149
100
AcDbEntity
8
0
100
AcDbCircle
10
81.769415103600011
20
-63.531217499999997
30
-1.8129490640044163e-12
40
2.5000000001882245
100
AcDbArc
50
269.99844219851326
51
329.99760194463499
0
LINE
5
150
100
AcDbEntity
8
0
100
AcDbLine
10
83.934426293712576
20
-64.781308115390459
30
-1.899205767724635e-12
11
85.955142968452961
21
-61.281204150810737
31
1.5706875407200764e-12
0
ARC
5
151
100
AcDbEntity
8
0
100
AcDbCircle
10
88.986232362600006
20
-63.031220234005403
30
5.7873740818792352e-12
40
3.5000084570000016
100
AcDbArc
50
89.999260788006524
51
149.99977592486093
0
LINE
5
152
100
AcDbEntity
8
0
100
AcDbLine
10
88.986277518600161
20
-59.531211777296697
30
5.6823606077553417e-12
11
151.01647377982371
21
-59.531211784070017
31
1.1310375644204236e-12
0
ARC
5
153
100
AcDbEntity
8
0
100
AcDbCircle
10
151.01664307064999
20
-63.031211772996009
30
-2.3129171807402184e-12
40
3.4999999999999991
100
AcDbArc
50
30.00014447903165
51
90.002771328536895
0
LINE
5
154
100
AcDbEntity
8
0
100
AcDbLine
10
154.04772757102501
20
-61.281204129702267
30
-2.36542402072016e-12
11
156.06832513618403
21
-64.781308031156996
31
2.7377216777921489e-13
0
ARC
5
155
100
AcDbEntity
8
0
100
AcDbCircle
10
158.233335336354
20
-63.531215218827306
30
-1.8129490617250668e-12
40
2.5000002412556768
100
AcDbArc
50
210.00245300353359
51
270.00157735822381
0
LINE
5
156
100
AcDbEntity
8
0
100
AcDbLine
10
158.23340416159022
20
-66.031215217879918
30
-1.9854499640809822e-12
11
161.76939005754019
21
-66.031217499264272
31
-3.5245840682361306e-12
0
ARC
5
157
100
AcDbEntity
8
0
100
AcDbCircle
10
161.76945801965002
20
-63.531217499999997
30
-4.3837051719934862e-12
40
2.5000000001880469
100
AcDbArc
50
269.99844242317596
51
329.99760206265324
0
LINE
5
158
100
AcDbEntity
8
0
100
AcDbLine
10
163.93446921233755
20
-64.781308110930965
30
-4.3837051719934878e-12
11
165.95530510411297
21
-61.281204145635641
31
-2.9229788122662777e-12
0
ARC
5
159
100
AcDbEntity
8
0
100
AcDbCircle
10
168.98638960465001
20
-63.03121177699601
30
-4.349176370891802e-12
40
3.4999999999999973
100
AcDbArc
50
90.001132174101897
51
149.99985569147412
0
LINE
5
160
100
AcDbEntity
8
0
100
AcDbLine
10
168.98632044406978
20
-59.531211777679324
30
-4.349176370891802e-12
11
172.00398450723557
21
-59.531211784298577
31
5.4544034810015672e-12
0
ARC
5
161
100
AcDbEntity
8
0
100
AcDbCircle
10
172.00406188365002
20
-57.531211778997303
30
5.6428161136273795e-12
40
2.0000000067980497
100
AcDbArc
50
269.99778332901599
51
315.00032541658493
0
LINE
5
162
100
AcDbEntity
8
0
100
AcDbLine
10
173.41828347815471
20
-58.945417309193175
30
5.6852476215335398e-12
11
175.24671553611742
21
-57.11698526332232
31
1.3411093004096219e-12
0
ARC
5
163
100
AcDbEntity
8
0
100
AcDbCircle
10
173.83250999165
20
-55.702763671002408
30
5.2942289581500235e-12
40
2.0000000085465732
100
AcDbArc
50
314.99967491677404
51
359.99880363674981
0
LINE
5
164
100
AcDbEntity
8
0
100
AcDbLine
10
175.83250999121401
20
-55.702805431957003
30
5.294227609050404e-12
11
175.83250999062173
21
-42.017936617250975
31
9.1410688515972879e-13
0
ARC
5
165
100
AcDbEntity
8
0
100
AcDbCircle
10
173.93250999764999
20
-42.018100297997506
30
-3.0916283870048259e-12
40
1.9000000000221151
100
AcDbArc
50
0.0049359030718057863
51
38.6679179333278
0
LINE
5
166
100
AcDbEntity
8
0
100
AcDbLine
10
175.41599272327352
20
-40.830969722712503
30
-3.0097159490148326e-12
11
174.29256436321356
21
-39.42668430827775
31
4.0847537740963364e-12
0
ARC
5
167
100
AcDbEntity
8
0
100
AcDbCircle
10
175.93241652965003
20
-38.1148592560005
30
4.3117347210421837e-12
40
2.1000000000000156
100
AcDbArc
50
179.99933501007183
51
218.65860066847398
0
LINE
5
168
100
AcDbEntity
8
0
100
AcDbLine
10
173.83241652979143
20
-38.114834882833428
30
4.3117271179290721e-12
11
173.83241539073254
21
-7.883172306016264
31
-7.0493361746869547e-12
0
ARC
5
169
100
AcDbEntity
8
0
100
AcDbCircle
10
175.93241430665
20
-7.8821612700024213
30
2.4424210485081166e-12
40
2.1000000000000005
100
AcDbArc
50
141.44555244065955
51
180.0275848199725
0
LINE
5
170
100
AcDbEntity
8
0
100
AcDbLine
10
174.29018021388327
20
-6.5733193450341521
30
2.3979196637944502e-12
11
175.41360849238217
21
-5.1690339455170697
31
4.0848948116327964e-12
0
ARC
5
171
100
AcDbEntity
8
0
100
AcDbCircle
10
173.92988739165003
20
-3.9822013659989004
30
3.5461325750299031e-12
40
1.8999999675167276
100
AcDbArc
50
-38.656410306632182
51
0.004050824865330537
0
LINE
5
172
100
AcDbEntity
8
0
100
AcDbLine
10
175.82988738690142
20
-3.9820670355585683
30
3.5461422558755355e-12
11
175.82988736113845
21
55.70280557346895
31
5.2369178990280683e-12
0
ARC
5
173
100
AcDbEntity
8
0
100
AcDbCircle
10
173.82988738665003
20
55.702763823002108
30
4.6561449000529549e-12
40
1.9999999749241932
100
AcDbArc
50
0.0011960625289397263
51
45.000325701432637
0
LINE
5
174
100
AcDbEntity
8
0
100
AcDbLine
10
175.24409290981507
20
57.116985424537567
30
4.6137129103015218e-12
11
173.415660852196
21
58.945417476612398
31
-2.3631739162704946e-12
0
ARC
5
175
100
AcDbEntity
8
0
100
AcDbCircle
10
172.00143927964999
20
57.5312119299969
30
-2.6426118619264892e-12
40
1.9999999960831478
100
AcDbArc
50
44.999675360848109
51
90.00221788322807
0
LINE
5
176
100
AcDbEntity
8
0
100
AcDbLine
10
172.0013618609205
20
59.531211928498486
30
-2.7026194165639712e-12
11
169.81959342693543
21
59.531211935839039
31
4.8356993181170908e-12
0
ARC
5
177
100
AcDbEntity
8
0
100
AcDbCircle
10
169.81977454865
20
63.031211923995698
30
5.3131214324411192e-12
40
3.4999999999999969
100
AcDbArc
50
216.49285086766659
51
269.99703499718595
0
LINE
5
178
100
AcDbEntity
8
0
100
AcDbLine
10
167.0060157899766
20
60.949683243436937
30
5.3755751548454253e-12
11
163.99645809007649
21
65.018057879050176
31
1.7805121296975773e-12
0
ARC
5
179
100
AcDbEntity
8
0
100
AcDbCircle
10
161.98665555265001
20
63.531217651995
30
1.8138164257424114e-12
40
2.5000000200470653
100
AcDbArc
50
36.49382055918619
51
90.001514595597016
0
LINE
5
180
100
AcDbEntity
8
0
100
AcDbLine
10
161.98658946595
20
66.031217651121509
30
1.7388069825813995e-12
11
158.23101990400301
21
66.031218032303286
31
3.7735566664802926e-12
0
ARC
5
181
100
AcDbEntity
8
0
100
AcDbCircle
10
158.23102205166401
20
63.531218794255004
30
4.8634602976509885e-12
40
2.4999992380492122
100
AcDbArc
50
90.000049220779616
51
150.0007940119375
0
LINE
5
182
100
AcDbEntity
8
0
100
AcDbLine
10
156.06594121975755
20
64.781188790419407
30
4.825956476331456e-12
11
154.0451048981723
21
61.281204386698811
31
3.4998946345886871e-12
0
ARC
5
183
100
AcDbEntity
8
0
100
AcDbCircle
10
151.01401929068501
20
63.0312106794198
30
3.1134920636589478e-12
40
3.4999999999999969
100
AcDbArc
50
270.00115025517715
51
329.99988372992368
0
LINE
5
184
100
AcDbEntity
8
0
100
AcDbLine
10
151.01408955577529
20
59.531210680125113
30
2.8719908003979177e-12
11
119.4975376588871
21
59.531211935669958
31
1.1666924427778618e-12
0
ARC
5
185
100
AcDbEntity
8
0
100
AcDbCircle
10
119.49761008759999
20
58.5312119309976
30
-3.6911203641692965e-12
40
1.0000000072953159
100
AcDbArc
50
90.004149859537961
51
180.00089198795911
0
LINE
5
186
100
AcDbEntity
8
0
100
AcDbLine
10
118.49761008772118
20
58.531196362872898
30
-3.6911198970667506e-12
11
118.49761012625692
21
57.256221805732508
31
-7.2591936842644762e-13
0
ARC
5
187
100
AcDbEntity
8
0
100
AcDbCircle
10
117.4976100916
20
57.256294311999405
30
-3.1927939016935776e-12
40
0.99999999999999623
100
AcDbArc
50
269.99048925594514
51
359.99584569719303
0
LINE
5
188
100
AcDbEntity
8
0
100
AcDbLine
10
117.49744409780268
20
56.256294325776381
30
-3.1488013149489034e-12
11
111.1088991650778
21
56.256294316247477
31
1.2213701170088851e-12
0
ARC
5
189
100
AcDbEntity
8
0
100
AcDbCircle
10
111.1088523806
20
57.256294324999502
30
-2.8926867403365982e-12
40
0.99999999999999867
100
AcDbArc
50
180.00276970539883
51
270.00268055309937
0
LINE
5
190
100
AcDbEntity
8
0
100
AcDbLine
10
110.1088523817684
20
57.256245984521073
30
-2.8926852899131819e-12
11
110.10885242111483
21
58.531165206361166
31
9.3120020713714982e-13
0
ARC
5
191
100
AcDbEntity
8
0
100
AcDbCircle
10
109.10885238360001
20
58.531211930997642
30
-1.7562444935342845e-12
40
1.0000000386064192
100
AcDbArc
50
-0.002677124317323038
51
89.995849986518579
0
LINE
5
192
100
AcDbEntity
8
0
100
AcDbLine
10
109.1089248149992
20
59.531211928374496
30
-1.7562444935342845e-12
11
88.983774210897209
21
59.531211935656465
31
2.2638530222654758e-13
0
ARC
5
193
100
AcDbEntity
8
0
100
AcDbCircle
10
88.983724084599999
20
63.031211927995599
30
4.3491763708234901e-12
40
3.5000000000000009
100
AcDbArc
50
210.00014386110337
51
270.00082057865114
0
LINE
5
194
100
AcDbEntity
8
0
100
AcDbLine
10
85.952639565351376
20
61.281204317391762
30
4.3491763708234901e-12
11
83.931922943656986
21
64.781189012951472
31
-1.5195713765632285e-12
0
ARC
5
195
100
AcDbEntity
8
0
100
AcDbCircle
10
81.766841882600005
20
63.531215921002243
30
-1.9061245978718648e-12
40
2.5000017463083331
100
AcDbArc
50
29.999264807347206
51
89.999955607260915
0
LINE
5
196
100
AcDbEntity
8
0
100
AcDbLine
10
81.766843819599998
20
66.031217651001498
30
-1.9061245978718656e-12
11
78.230977014842153
21
66.031217651216849
31
3.777263003713245e-12
0
ARC
5
197
100
AcDbEntity
8
0
100
AcDbCircle
10
78.230977965600005
20
63.531217650994904
30
4.863460296508644e-12
40
2.5000000002221272
100
AcDbArc
50
90.000021789764887
51
150.00075802676449
0
LINE
5
198
100
AcDbEntity
8
0
100
AcDbLine
10
76.065897918749826
20
64.781189006959181
30
4.8259564343922171e-12
11
74.045181322480289
21
61.281204301929684
31
3.0940510020784952e-12
0
ARC
5
199
100
AcDbEntity
8
0
100
AcDbCircle
10
71.014095943745701
20
63.031210340530905
30
3.11349206332033e-12
40
3.5
100
AcDbArc
50
269.99919272426803
51
329.9998854602099
0
LINE
5
200
100
AcDbEntity
8
0
100
AcDbLine
10
71.014046630077473
20
59.531210340878303
30
2.8719907999982594e-12
11
8.9837312840580807
21
59.531211935656401
31
2.2046126079076876e-13
0
ARC
5
201
100
AcDbEntity
8
0
100
AcDbCircle
10
8.9836811695999792
20
63.031211927995599
30
4.3491763708234901e-12
40
3.5
100
AcDbArc
50
210.00014377105217
51
270.00082038484226
0
LINE
5
202
100
AcDbEntity
8
0
100
AcDbLine
10
5.9525966476008882
20
61.281204322155688
30
4.3491763708234901e-12
11
3.9318803442650259
21
64.781189169096763
31
2.2668936759529722e-12
0
ARC
5
203
100
AcDbEntity
8
0
100
AcDbCircle
10
1.7668004523574601
20
63.5312189546379
30
4.8634602978112435e-12
40
2.4999992950752592
100
AcDbArc
50
29.999221092110368
51
89.999989896625962
0
LINE
5
204
100
AcDbEntity
8
0
100
AcDbLine
10
1.7668008932003165
20
66.031218954637851
30
4.7884508547113449e-12
11
-1.7690585126648453
21
66.031215924145343
31
4.26667808977967e-12
0
ARC
5
205
100
AcDbEntity
8
0
100
AcDbCircle
10
-1.7690659494001402
20
63.5312159209969
30
5.8635283786806775e-12
40
2.500000003159502
100
AcDbArc
50
89.999829562581908
51
150.00071101569029
0
LINE
5
206
100
AcDbEntity
8
0
100
AcDbLine
10
-3.9341449706505682
20
64.781189053404674
30
5.8260244632628928e-12
11
-5.9548615626675216
21
61.281204272978052
31
3.2257843671495827e-12
0
ARC
5
207
100
AcDbEntity
8
0
100
AcDbCircle
10
-8.9859465693357201
20
63.031210756537703
30
3.1134920637360044e-12
40
3.5000000000000018
100
AcDbArc
50
269.99918595988134
51
329.99987610661293
0
LINE
5
208
100
AcDbEntity
8
0
100
AcDbLine
10
-8.9859962962168183
20
59.531210756890957
30
2.8719908003934878e-12
11
-71.0163116452445
21
59.531211935837625
31
3.7040798288141359e-12
0
ARC
5
209
100
AcDbEntity
8
0
100
AcDbCircle
10
-71.016242536399901
20
63.031211927995599
30
3.1134920649065256e-12
40
3.5
100
AcDbArc
50
210.00014369903673
51
269.99886867281975
0
LINE
5
210
100
AcDbEntity
8
0
100
AcDbLine
10
-74.04732706059859
20
61.281204325965476
30
2.9927409085676764e-12
11
-76.068043695075445
21
64.78118902130656
31
1.8163036190775959e-12
0
ARC
5
211
100
AcDbEntity
8
0
100
AcDbCircle
10
-78.233123739400099
20
63.531217650994904
30
4.863460296508644e-12
40
2.5000000049863349
100
AcDbArc
50
29.999242286941918
51
89.999978965571273
0
LINE
5
212
100
AcDbEntity
8
0
100
AcDbLine
10
-78.233122821600006
20
66.031217650994734
30
4.7884508534072106e-12
11
-81.769108717010951
21
66.031217651282617
31
4.2509846805678945e-12
0
ARC
5
213
100
AcDbEntity
8
0
100
AcDbCircle
10
-81.768988654400218
20
63.531217653995
30
5.7134747997402902e-12
40
2.5000000001706244
100
AcDbArc
50
90.002751632349813
51
150.00075697382613
0
LINE
5
214
100
AcDbEntity
8
0
100
AcDbLine
10
-83.93406867827936
20
64.781189049747468
30
5.7997232772051437e-12
11
-85.954904554435743
21
61.281204303052881
31
3.3513906496025747e-12
0
ARC
5
215
100
AcDbEntity
8
0
100
AcDbCircle
10
-88.985989068400002
20
63.031211927995599
30
3.1134920649065256e-12
40
3.5
100
AcDbArc
50
270.00113048993296
51
329.99985589236087
0
LINE
5
216
100
AcDbEntity
8
0
100
AcDbLine
10
-88.985920010699786
20
59.531211928676882
30
2.8719908015069726e-12
11
-151.0162353659407
21
59.531211935656252
31
-5.0854835985248622e-13
0
ARC
5
217
100
AcDbEntity
8
0
100
AcDbCircle
10
-151.01628545240001
20
63.031211927995599
30
3.1134920649065256e-12
40
3.5000000000000004
100
AcDbArc
50
210.00014457647106
51
270.00081992649575
0
LINE
5
218
100
AcDbEntity
8
0
100
AcDbLine
10
-154.04736994979888
20
61.28120427954709
30
2.992740905525256e-12
11
-156.06808661909454
21
64.781189023495898
31
2.3147058641508909e-12
0
ARC
5
219
100
AcDbEntity
8
0
100
AcDbCircle
10
-158.23316765440001
20
63.5312159209969
30
5.8635283786806775e-12
40
2.5000017292814736
100
AcDbArc
50
29.999265311822654
51
89.999956333006111
0
LWPOLYLINE
5
220
100
AcDbEntity
8
0
100
AcDbPolyline
90
8
70
1
43
0.0
10
125.32330512510001
20
-8.1492191450701092
42
-0.41421356237309503
10
126.9233051251
20
-6.5492191450701096
10
163.9084691251
20
-6.5492191450701087
42
-0.41421356237309503
10
165.50846912509999
20
-8.1492191450701092
10
165.50846912509999
20
-16.055223145070102
42
-0.41421356237309503
10
163.9084691251
20
-17.655223145070103
10
126.9233051251
20
-17.655223145070103
42
-0.41421356237309503
10
125.32330512510001
20
-16.055223145070102
0
ARC
5
221
100
AcDbEntity
8
0
100
AcDbCircle
10
-58.837808438400003
20
-46.506259842998404
30
5.3537250922196382e-12
40
1.9999999999999976
100
AcDbArc
50
215.68488778308122
51
270.00105975420416
0
LINE
5
222
100
AcDbEntity
8
0
100
AcDbLine
10
-58.837771445999756
20
-48.506259842656299
30
5.4137326466903616e-12
11
-55.211214736075746
21
-48.506259827883362
31
2.6474135776191846e-12
0
ARC
5
223
100
AcDbEntity
8
0
100
AcDbCircle
10
-55.211214739400098
20
-50.006270333000906
30
4.6502669566538315e-12
40
1.5000104910000012
100
AcDbArc
50
-89.999999870170768
51
89.999999873020002
0
LINE
5
224
100
AcDbEntity
8
0
100
AcDbLine
10
-55.211214736001153
20
-51.506280824000903
30
4.6952729372842021e-12
11
-58.837771452706022
21
-51.506280814082992
31
3.9840633623903972e-13
0
ARC
5
225
100
AcDbEntity
8
0
100
AcDbCircle
10
-58.837841763400007
20
-53.506280821998004
30
8.9629758858378911e-13
40
2.0000000091509111
100
AcDbArc
50
89.997985746998808
51
144.31347615351825
0
ARC
5
226
100
AcDbEntity
8
0
100
AcDbCircle
10
-63.711214739400106
20
-50.006247132002898
30
1.3499555667904046e-12
40
4.0000000000000053
100
AcDbArc
50
215.68533505149657
51
324.31466571578824
0
ARC
5
227
100
AcDbEntity
8
0
100
AcDbCircle
10
-68.584587714400001
20
-53.506280823002655
30
1.6054178510925856e-12
40
1.9999999995856665
100
AcDbArc
50
35.686522352003969
51
89.999245156761489
0
LINE
5
228
100
AcDbEntity
8
0
100
AcDbLine
10
-68.584561365400305
20
-51.506280823176226
30
1.6054178510925856e-12
11
-77.211214771592992
21
-51.506280814505374
31
2.6168928963482438e-12
0
ARC
5
229
100
AcDbEntity
8
0
100
AcDbCircle
10
-77.211214739400006
20
-50.006270333000906
30
4.6502669566538315e-12
40
1.5000104910000016
100
AcDbArc
50
90.000001447663024
51
269.99999877032712
0
LINE
5
230
100
AcDbEntity
8
0
100
AcDbLine
10
-77.2112147773
20
-48.506259842000901
30
4.605260976023461e-12
11
-68.584561373659056
21
-48.506259827942849
31
3.1053298536991694e-12
0
ARC
5
231
100
AcDbEntity
8
0
100
AcDbCircle
10
-68.584621041400098
20
-46.506259843003797
30
5.3537250922196325e-12
40
1.9999999858291138
100
AcDbArc
50
270.00170935487972
51
324.31511360226011
0
ARC
5
232
100
AcDbEntity
8
0
100
AcDbCircle
10
-63.711214739400106
20
-50.006247132002898
30
1.3499555667904046e-12
40
3.9999999998588178
100
AcDbArc
50
35.685334017692902
51
144.31466529805388
0
LINE
5
233
100
AcDbEntity
8
0
100
AcDbLine
10
3.645062440388847
20
-58.009957856565741
30
-1.3341193398715337e-12
11
3.6450624828310207
21
-45.009939376897769
31
-3.4395424493259244e-12
0
ARC
5
234
100
AcDbEntity
8
0
100
AcDbCircle
10
4.6450625682667397
20
-45.009925679247303
30
-5.5449147309035916e-12
40
1.0000000000000053
100
AcDbArc
50
89.997330518663574
51
180.00078481723139
0
LINE
5
235
100
AcDbEntity
8
0
100
AcDbLine
10
4.6451091595053642
20
-44.009925680332671
30
-5.4799389284579279e-12
11
9.6451044529850236
21
-44.009923855550042
31
1.212649924949078e-12
0
ARC
5
236
100
AcDbEntity
8
0
100
AcDbCircle
10
9.6450319265999802
20
-45.009923856997403
30
-2.9245559287387117e-12
40
1.0000000000000004
100
AcDbArc
50
-0.0026776489509373006
51
89.995844544246978
0
LINE
5
237
100
AcDbEntity
8
0
100
AcDbLine
10
10.645031925507958
20
-45.009970590790431
30
-2.9245559287387117e-12
11
10.645031947392097
21
-58.009982001871876
31
5.7253696993677595e-13
0
ARC
5
238
100
AcDbEntity
8
0
100
AcDbCircle
10
9.6450319275999608
20
-58.009909556998508
30
3.942308792004644e-12
40
1.0000000000000042
100
AcDbArc
50
270.00415524455059
51
359.99584921462429
0
LINE
5
239
100
AcDbEntity
8
0
100
AcDbLine
10
9.6451044502985308
20
-59.00990955436874
30
3.972312569166236e-12
11
4.6451091507996844
21
-59.009909566071805
31
-1.6173857069237028e-12
0
ARC
5
240
100
AcDbEntity
8
0
100
AcDbCircle
10
4.6450624406000003
20
-58.009909554998501
30
-1.3078318080371683e-12
40
1.0000000013776744
100
AcDbArc
50
180.00276747589825
51
270.00267629727051
0
LINE
5
241
100
AcDbEntity
8
0
100
AcDbLine
10
-84.604978568748692
20
-45.006275096217429
30
1.7192621858885578e-13
11
-84.604978631639952
21
-58.006286583324417
31
6.1424658601521926e-13
0
ARC
5
242
100
AcDbEntity
8
0
100
AcDbCircle
10
-85.604978751734805
20
-58.006211958472001
30
4.141805686385091e-12
40
1.0000000000000049
100
AcDbArc
50
270.00416388786908
51
359.99572431146657
0
LINE
5
243
100
AcDbEntity
8
0
100
AcDbLine
10
-85.60490607818187
20
-59.006211955831283
30
4.1758062664244324e-12
11
-95.367431608032859
21
-59.00990956606843
31
4.3900390039016619e-13
0
ARC
5
244
100
AcDbEntity
8
0
100
AcDbCircle
10
-95.367478377400005
20
-58.009909554998501
30
-1.3078318080371683e-12
40
0.99999999999999412
100
AcDbArc
50
180.0027673829195
51
270.00267968731629
0
LINE
5
245
100
AcDbEntity
8
0
100
AcDbLine
10
-96.367478376233549
20
-58.009957854943082
30
-1.3078301658110321e-12
11
-96.367478348837523
21
-45.009939414470821
31
-2.1293639010031338e-12
0
ARC
5
246
100
AcDbEntity
8
0
100
AcDbCircle
10
-95.367478375399998
20
-45.0099238579974
30
-2.9245559288036869e-12
40
0.99999999999999811
100
AcDbArc
50
89.997320889488307
51
180.00089132005948
0
LINE
5
247
100
AcDbEntity
8
0
100
AcDbLine
10
-95.367431616100561
20
-44.00992385909062
30
-2.9245559288036869e-12
11
-85.604906074812263
21
-44.006228364189511
31
3.9257532840369682e-12
0
ARC
5
248
100
AcDbEntity
8
0
100
AcDbCircle
10
-85.6049785644
20
-45.006228368999402
30
3.1052875764098254e-12
40
0.99999999674301376
100
AcDbArc
50
-0.0026772724339734432
51
89.995846652591283
0
LINE
5
249
100
AcDbEntity
8
0
100
AcDbLine
10
169.40749858196884
20
36.20004666208655
30
4.1781955427114192e-13
11
121.10752286336093
21
36.200046613114495
31
-3.4589203884679364e-14
0
ARC
5
250
100
AcDbEntity
8
0
100
AcDbCircle
10
121.1075228926
20
38.100004272002899
30
-2.8120811193228394e-12
40
1.8999576570000001
100
AcDbArc
50
90.000000946909864
51
269.99999911825637
0
LINE
5
251
100
AcDbEntity
8
0
100
AcDbLine
10
121.10752286119998
20
39.9999619290029
30
-2.86908702562984e-12
11
169.40749858190225
21
39.99996199115833
31
-1.2140104452540949e-12
0
ARC
5
252
100
AcDbEntity
8
0
100
AcDbCircle
10
169.407498602895
20
38.100004418923596
30
-2.8120811191760359e-12
40
1.8999577568370498
100
AcDbArc
50
-90.00000063105665
51
90.0000006330649
0
LINE
5
253
100
AcDbEntity
8
0
100
AcDbLine
10
120.20754805648642
20
33.193707470127599
30
-2.3973492598611804e-12
11
132.20739370254984
21
33.193707555846352
31
6.7005884823278963e-13
0
ARC
5
254
100
AcDbEntity
8
0
100
AcDbCircle
10
132.20755958460001
20
32.1937075559945
30
4.1824938920376181e-12
40
1.0000000000000078
100
AcDbArc
50
0.004151013928994347
51
90.00950434128589
0
LINE
5
255
100
AcDbEntity
8
0
100
AcDbLine
10
133.2075595819756
20
32.193780004855242
30
4.1824917182981407e-12
11
133.20755960905799
21
20.193696092155825
31
-6.9686381988610652e-13
0
ARC
5
256
100
AcDbEntity
8
0
100
AcDbCircle
10
132.20755958460001
20
20.193768562996205
30
-7.6787084544149602e-13
40
0.99999999999999811
100
AcDbArc
50
269.99049509419046
51
359.99584772692691
0
LINE
5
257
100
AcDbEntity
8
0
100
AcDbLine
10
132.2073936926993
20
19.193768576756266
30
-7.6787084544149602e-13
11
120.20754809256013
21
19.193768579489401
31
1.0820898230684099e-12
0
ARC
5
258
100
AcDbEntity
8
0
100
AcDbCircle
10
120.20762061460002
20
20.193768573996202
30
-6.0588933166015696e-13
40
1.0000000000000044
100
AcDbArc
50
180.00276855401279
51
269.99584479317724
0
LINE
5
259
100
AcDbEntity
8
0
100
AcDbLine
10
119.20762061576744
20
20.193720253612707
30
-6.0588933166015696e-13
11
119.20762055514523
21
32.193755882732816
31
-8.9495213271383166e-13
0
ARC
5
260
100
AcDbEntity
8
0
100
AcDbCircle
10
120.20762049285402
20
32.193707287602805
30
-2.3678219535189788e-12
40
1.0000001851483094
100
AcDbArc
50
90.004150297382111
51
179.99721570407263
0
LINE
5
261
100
AcDbEntity
8
0
100
AcDbLine
10
120.2075480924627
20
14.143705439870697
30
2.1598579525005291e-12
11
132.20739369561912
21
14.143705440351111
31
2.6127405325187801e-12
0
ARC
5
262
100
AcDbEntity
8
0
100
AcDbCircle
10
132.20755958460001
20
13.1437054579954
30
5.6304054179423838e-13
40
0.99999999999999867
100
AcDbArc
50
0.0041520321244357438
51
90.009504738553133
0
LINE
5
263
100
AcDbEntity
8
0
100
AcDbLine
10
133.20755958197429
20
13.143777924627082
30
5.6303836752156496e-13
11
133.20755960883631
21
1.1438131841641641
31
-2.7529129777733406e-13
0
ARC
5
264
100
AcDbEntity
8
0
100
AcDbCircle
10
132.2075595826
20
1.14376646499711
30
-3.0485010185653539e-12
40
1.0000000000000002
100
AcDbArc
50
-90.009504808599559
51
0.0026768110399728292
0
LINE
5
265
100
AcDbEntity
8
0
100
AcDbLine
10
132.20739369239593
20
0.14376647875688986
30
-3.0184972417377046e-12
11
120.20754808320041
21
0.14376649334408076
31
2.4297482632020356e-12
0
ARC
5
266
100
AcDbEntity
8
0
100
AcDbCircle
10
120.20762061560001
20
1.14376647599718
30
-3.8888721132305929e-14
40
1.0000000000000031
100
AcDbArc
50
179.99910864232208
51
269.99584419956017
0
LINE
5
267
100
AcDbEntity
8
0
100
AcDbLine
10
119.20762061572103
20
1.1437820331209956
30
-3.8888721132305929e-14
11
119.20762059574487
21
13.14375377633878
31
1.8663970736575094e-12
0
ARC
5
268
100
AcDbEntity
8
0
100
AcDbCircle
10
120.20762061460002
20
13.143705445995399
30
-3.9436080803619476e-13
40
0.99999999650502813
100
AcDbArc
50
90.004155212407639
51
179.99723087536739
0
LINE
5
269
100
AcDbEntity
8
0
100
AcDbLine
10
120.20754803732564
20
57.006240532230194
30
3.2585061871203849e-12
11
132.20739369898106
21
57.006239975729159
31
2.1399339186015334e-12
0
ARC
5
270
100
AcDbEntity
8
0
100
AcDbCircle
10
132.2075595826
20
56.006239980999702
30
3.5063264690765657e-12
40
1.0000000000000004
100
AcDbArc
50
-0.002677904832464534
51
90.009504431218161
0
LINE
5
271
100
AcDbEntity
8
0
100
AcDbLine
10
133.20755958150778
20
56.006193242740537
30
3.5063278714008827e-12
11
133.20755960905754
21
44.006228502644319
31
2.320107866408665e-13
0
ARC
5
272
100
AcDbEntity
8
0
100
AcDbCircle
10
132.20755958460001
20
44.006300988001399
30
-1.3203552497420327e-12
40
0.999999999999998
100
AcDbArc
50
269.99049509426374
51
359.99584689508117
0
LINE
5
273
100
AcDbEntity
8
0
100
AcDbLine
10
132.20739369270058
20
43.006301001761464
30
-1.3203552497420327e-12
11
120.2075480933071
21
43.00630099937451
31
4.2649767394237741e-12
0
ARC
5
274
100
AcDbEntity
8
0
100
AcDbCircle
10
120.20762061460002
20
44.006300999001404
30
3.0364506491019165e-12
40
1.0000000000000031
100
AcDbArc
50
180.00276899446001
51
269.99584483599648
0
LINE
5
275
100
AcDbEntity
8
0
100
AcDbLine
10
119.20762061576781
20
44.006252670927914
30
3.0364506491019173e-12
11
119.20762058603357
21
56.006232214189382
31
3.2193546880210183e-12
0
ARC
5
276
100
AcDbEntity
8
0
100
AcDbCircle
10
120.20762171808201
20
56.006241640031902
30
7.1561846641894794e-12
40
0.99999889491271821
100
AcDbArc
50
90.004221601040541
51
180.00054006025459
0
LINE
5
277
100
AcDbEntity
8
0
100
AcDbLine
10
120.2075480871507
20
-43.006181629287951
30
2.4543925450903085e-12
11
132.20739370230277
21
-43.006181628806679
31
2.6042485404683828e-12
0
ARC
5
278
100
AcDbEntity
8
0
100
AcDbCircle
10
132.2075595826
20
-44.006181626996401
30
1.8061115785920106e-12
40
1.0000000000000067
100
AcDbArc
50
-0.0026776075720226725
51
90.00950424086578
0
LINE
5
279
100
AcDbEntity
8
0
100
AcDbLine
10
133.20755958150801
20
-44.006228360065272
30
1.8061130741520317e-12
11
133.20755960883611
21
-56.006193097982369
31
4.8092500321516258e-13
0
ARC
5
280
100
AcDbEntity
8
0
100
AcDbCircle
10
132.2075595826
20
-56.006239829000108
30
1.9042446476219182e-12
40
0.99999999999999978
100
AcDbArc
50
-90.009504808231526
51
0.0026774898292812924
0
LINE
5
281
100
AcDbEntity
8
0
100
AcDbLine
10
132.20739369240235
20
-57.006239815240328
30
1.904244647621917e-12
11
120.20754808947891
21
-57.006239823806801
31
-1.8841570366138757e-12
0
ARC
5
282
100
AcDbEntity
8
0
100
AcDbCircle
10
120.20762061560001
20
-56.006239817999997
30
-3.8644507698435142e-12
40
0.99999999999998779
100
AcDbArc
50
179.99910811010986
51
269.99584455938782
0
LINE
5
283
100
AcDbEntity
8
0
100
AcDbLine
10
119.20762061572118
20
-56.006224251580647
30
-3.8644507698435142e-12
11
119.20762059597358
21
-44.006197183714299
31
3.1641793688420705e-12
0
ARC
5
284
100
AcDbEntity
8
0
100
AcDbCircle
10
120.20762061560001
20
-44.006181638996402
30
1.4082936904798137e-12
40
1.0000000123386406
100
AcDbArc
50
90.004155573992378
51
180.00089064633929
0
LINE
5
285
100
AcDbEntity
8
0
100
AcDbLine
10
139.25743100092956
20
33.193707483180546
30
-2.4029003749453548e-12
11
151.25751490637757
21
33.193707555926963
31
-1.8868288696256922e-12
0
ARC
5
286
100
AcDbEntity
8
0
100
AcDbCircle
10
151.25744247365
20
32.193707545004401
30
-9.6593282744582052e-13
40
1.0000000000000053
100
AcDbArc
50
0.0041516441194089657
51
89.995849910464599
0
LINE
5
287
100
AcDbEntity
8
0
100
AcDbLine
10
152.2574424710248
20
32.193780004863982
30
-9.6593282744582012e-13
11
152.25744243950766
21
20.19369609081517
31
1.0448769845556724e-12
0
ARC
5
288
100
AcDbEntity
8
0
100
AcDbCircle
10
151.25744247365
20
20.193768573996202
30
-6.0588933166015696e-13
40
1.0000000000000027
100
AcDbArc
50
270.00415061114154
51
359.99584701952267
0
LINE
5
289
100
AcDbEntity
8
0
100
AcDbLine
10
151.25751491548033
20
19.193768576620108
30
-6.0588933166015696e-13
11
139.25743101129569
21
19.19376857948868
31
-2.185078194214116e-12
0
ARC
5
290
100
AcDbEntity
8
0
100
AcDbCircle
10
139.25750350359999
20
20.193768573996202
30
-7.1797921589753516e-12
40
1.0000000000000002
100
AcDbArc
50
180.00276854887863
51
269.99584649690098
0
LINE
5
291
100
AcDbEntity
8
0
100
AcDbLine
10
138.25750350476741
20
20.193720253701301
30
-7.1797907091839877e-12
11
138.25750346380667
21
32.193755901098953
31
-8.9495224319254935e-13
0
ARC
5
292
100
AcDbEntity
8
0
100
AcDbCircle
10
139.25750338223901
20
32.193707326756702
30
-2.3678219534798562e-12
40
1.0000001590433658
100
AcDbArc
50
90.004147142891213
51
179.99721689499501
0
LINE
5
293
100
AcDbEntity
8
0
100
AcDbLine
10
158.30755237003416
20
33.193707168263025
30
5.8037297543295269e-13
11
170.30739782930755
21
33.193707530080133
31
6.250956883320542e-13
0
ARC
5
294
100
AcDbEntity
8
0
100
AcDbCircle
10
170.30756372042401
20
32.193707478701299
30
4.1824938919603874e-12
40
0.99999999999999734
100
AcDbArc
50
0.004155442550656618
51
90.009504860256712
0
LINE
5
295
100
AcDbEntity
8
0
100
AcDbLine
10
171.30756371779398
20
32.193780004855824
30
4.1824917154782869e-12
11
171.30756376847458
21
20.193696090821835
31
9.7411415302758217e-13
0
ARC
5
296
100
AcDbEntity
8
0
100
AcDbCircle
10
170.30756378065004
20
20.193768562996205
30
-7.6787084544149602e-13
40
0.99999999999999878
100
AcDbArc
50
269.99049194635933
51
359.99584765030022
0
LINE
5
297
100
AcDbEntity
8
0
100
AcDbLine
10
170.30739783380932
20
19.193768576765383
30
-7.6787084544149602e-13
11
158.3075523787133
21
19.193768519733993
31
2.9823729320145518e-12
0
ARC
5
298
100
AcDbEntity
8
0
100
AcDbCircle
10
158.307386294644
20
20.193768383465699
30
8.7019213110464963e-13
40
0.99999999999999933
100
AcDbArc
50
180.00275784799743
51
270.00951591742404
0
LINE
5
299
100
AcDbEntity
8
0
100
AcDbLine
10
157.30738629580242
20
20.19372024993498
30
8.7019396255349554e-13
11
157.30738615090641
21
32.193756268005295
31
2.8636282143261674e-12
0
ARC
5
300
100
AcDbEntity
8
0
100
AcDbCircle
10
158.30738560738499
20
32.193706393390499
30
4.0818799292692931e-12
40
1.0000007887774023
100
AcDbArc
50
89.990445211514313
51
179.99714239358701
0
LINE
5
301
100
AcDbEntity
8
0
100
AcDbLine
10
139.25743101069429
20
14.143705439871404
30
2.1553245418147243e-12
11
151.25751491274121
21
14.143705439870997
31
2.159484861316252e-12
0
ARC
5
302
100
AcDbEntity
8
0
100
AcDbCircle
10
151.25744247365
20
13.143705445995399
30
-3.9436080803619476e-13
40
0.99999999999999245
100
AcDbArc
50
0.0041527011284868036
51
89.995849545783614
0
LINE
5
303
100
AcDbEntity
8
0
100
AcDbLine
10
152.25744247102344
20
13.143777924304995
30
-3.9436080803619425e-13
11
152.25744243925323
21
1.1438131808863861
31
1.2779366486268784e-12
0
ARC
5
304
100
AcDbEntity
8
0
100
AcDbCircle
10
151.25744247164999
20
1.14376647599718
30
-3.8888721132305929e-14
40
1
100
AcDbArc
50
-89.995849274193219
51
0.0026759930240153004
0
LINE
5
305
100
AcDbEntity
8
0
100
AcDbLine
10
151.25751491548161
20
0.14376647862123421
30
-3.8888721132305929e-14
11
139.25743100376613
21
0.14376649334329028
31
2.2315908162195948e-12
0
ARC
5
306
100
AcDbEntity
8
0
100
AcDbCircle
10
139.25750350460001
20
1.14376647599718
30
9.0146433624482769e-13
40
1.0000000000000031
100
AcDbArc
50
179.99910864232208
51
269.99584600814268
0
LINE
5
307
100
AcDbEntity
8
0
100
AcDbLine
10
138.25750350472103
20
1.1437820331223416
30
9.0146380729354737e-13
11
138.25750350427811
21
13.143753772706646
31
1.8663970743462302e-12
0
ARC
5
308
100
AcDbEntity
8
0
100
AcDbCircle
10
139.25750350359999
20
13.143705445995399
30
-3.9436080803619476e-13
40
0.99999999650361482
100
AcDbArc
50
90.004153537559503
51
179.99723108346217
0
LINE
5
309
100
AcDbEntity
8
0
100
AcDbLine
10
158.30755235526451
20
14.143705440346592
30
1.711813573003496e-12
11
170.30739782930223
21
14.143705414249778
31
2.5838384227958899e-12
0
ARC
5
310
100
AcDbEntity
8
0
100
AcDbCircle
10
170.30756373891199
20
13.143705379691502
30
5.1360092265065649e-13
40
0.99999999999997424
100
AcDbArc
50
0.0041565187614025318
51
90.009505920004344
0
LINE
5
311
100
AcDbEntity
8
0
100
AcDbLine
10
171.3075637362806
20
13.143777924629569
30
5.1359874560497922e-13
11
171.30756376877289
21
1.1438131881781066
31
1.1504152601390952e-12
0
ARC
5
312
100
AcDbEntity
8
0
100
AcDbCircle
10
170.30756377965002
20
1.14376646499711
30
-3.4317311950791315e-14
40
1.0000000000000002
100
AcDbArc
50
-90.009507996513236
51
0.0026770411342511785
0
LINE
5
313
100
AcDbEntity
8
0
100
AcDbLine
10
170.30739783380636
20
0.1437664787661215
30
-3.4317311950791315e-14
11
158.30755236446706
21
0.14376649290363466
31
1.1888363139885562e-12
0
ARC
5
314
100
AcDbEntity
8
0
100
AcDbCircle
10
158.30738639314501
20
1.14376646345254
30
-2.4491540576169071e-12
40
0.99999999999999911
100
AcDbArc
50
179.99910813381149
51
270.00950945646628
0
LINE
5
315
100
AcDbEntity
8
0
100
AcDbLine
10
157.30738639326617
20
1.1437820294518981
30
-2.4491545244439263e-12
11
157.30738641229721
21
13.143753785787613
31
2.4661777113062291e-12
0
ARC
5
316
100
AcDbEntity
8
0
100
AcDbCircle
10
158.30738639165
20
13.1437054579954
30
-3.9436080839623996e-13
40
0.9999999961231526
100
AcDbArc
50
89.990490985255533
51
179.99723102146649
0
LINE
5
317
100
AcDbEntity
8
0
100
AcDbLine
10
-36.954998942710453
20
33.193707555177753
30
6.6797651122397995e-13
11
-24.955034260097907
21
33.193707555670642
31
6.1606676041971181e-13
0
ARC
5
318
100
AcDbEntity
8
0
100
AcDbCircle
10
-24.954987527400103
20
32.1937075430045
30
3.7323331500086578e-12
40
0.99999999999999889
100
AcDbArc
50
0.0041517584178698908
51
90.002677586313553
0
LINE
5
319
100
AcDbEntity
8
0
100
AcDbLine
10
-23.954987530025463
20
32.193780004859306
30
3.7323309758793078e-12
11
-23.954987537209028
21
20.193696092814921
31
1.7543854005624605e-12
0
ARC
5
320
100
AcDbEntity
8
0
100
AcDbCircle
10
-24.954987527400103
20
20.193768575996302
30
6.8706006347007661e-12
40
0.99999999999999767
100
AcDbArc
50
269.99732242497805
51
359.99584701961044
0
LINE
5
321
100
AcDbEntity
8
0
100
AcDbLine
10
-24.955034259900188
20
19.193768577088267
30
6.8016002737956595e-12
11
-36.954998949450918
21
19.19376857975055
31
4.2073269265026057e-12
0
ARC
5
322
100
AcDbEntity
8
0
100
AcDbCircle
10
-36.9550457064
20
20.193768575996302
30
6.1706397121441672e-12
40
1.000000000000002
100
AcDbArc
50
180.0027686301022
51
270.00267897585343
0
LINE
5
323
100
AcDbEntity
8
0
100
AcDbLine
10
-37.955045705232507
20
20.193720254285303
30
6.1706363779286648e-12
11
-37.955045682714733
21
32.19375586165566
31
1.3051109609478869e-12
0
ARC
5
324
100
AcDbEntity
8
0
100
AcDbCircle
10
-36.955045706711999
20
32.193707541532
30
3.7323331500071869e-12
40
1.0000000147391881
100
AcDbArc
50
89.997320620116795
51
179.99723146086308
0
LINE
5
325
100
AcDbEntity
8
0
100
AcDbLine
10
20.195007316633266
20
33.193707554884668
30
6.5631916946509471e-13
11
32.194972004226855
21
33.193707555670116
31
-1.6567067355262778e-12
0
ARC
5
326
100
AcDbEntity
8
0
100
AcDbCircle
10
32.195018767599997
20
32.1937075430045
30
-9.6593282738581559e-13
40
0.99999999999999922
100
AcDbArc
50
0.0041517585934411428
51
90.002679343880928
0
LINE
5
327
100
AcDbEntity
8
0
100
AcDbLine
10
33.195018764974634
20
32.193780004863122
30
-9.6593282738581559e-13
11
33.195018741457602
21
20.19369609081517
31
1.7112992005328743e-12
0
ARC
5
328
100
AcDbEntity
8
0
100
AcDbCircle
10
32.195018767599997
20
20.193768575996302
30
1.3933773160558133e-12
40
1.0000000000000016
100
AcDbArc
50
269.99732102122573
51
359.99584690499773
0
LINE
5
329
100
AcDbEntity
8
0
100
AcDbLine
10
32.194972010599813
20
19.193768577089408
30
1.3933773160558123e-12
11
20.195007318011097
21
19.193768579750117
31
3.9510367373908277e-12
0
ARC
5
330
100
AcDbEntity
8
0
100
AcDbCircle
10
20.194960587600001
20
20.193768575996302
30
6.1706397121441672e-12
40
1.0000000000000013
100
AcDbArc
50
180.00276862641627
51
270.00267745533881
0
LINE
5
331
100
AcDbEntity
8
0
100
AcDbLine
10
19.19496058876749
20
20.19372025434707
30
6.17063637793293e-12
11
19.194960595314367
21
32.193755852585426
31
1.3051109722241893e-12
0
ARC
5
332
100
AcDbEntity
8
0
100
AcDbCircle
10
20.194960586976102
20
32.193707540650898
30
3.7323331500063064e-12
40
1.000000015325601
100
AcDbArc
50
89.997322587906467
51
179.99723193008612
0
LINE
5
333
100
AcDbEntity
8
0
100
AcDbLine
10
39.245009455595458
20
33.193707555419664
30
6.6779147405345109e-13
11
51.24497414431336
21
33.193707555670855
31
5.1269366133792191e-13
0
ARC
5
334
100
AcDbEntity
8
0
100
AcDbCircle
10
51.245020865599997
20
32.1937075430045
30
3.7323331500086578e-12
40
1.0000000000000078
100
AcDbArc
50
0.0041517584178698908
51
90.002676932501856
0
LINE
5
335
100
AcDbEntity
8
0
100
AcDbLine
10
52.245020862974641
20
32.193780004859242
30
3.7323309758793102e-12
11
52.245020860257682
21
20.193696093036539
31
-2.0580262476060532e-13
0
ARC
5
336
100
AcDbEntity
8
0
100
AcDbCircle
10
51.245020865599997
20
20.193768575996302
30
1.3933773160558133e-12
40
0.99999999999999989
100
AcDbArc
50
269.99732280885422
51
359.9958470324234
0
LINE
5
337
100
AcDbEntity
8
0
100
AcDbLine
10
51.244974139799815
20
19.193768577087951
30
1.3933773160558133e-12
11
39.24500944962962
21
19.19376857975066
31
4.2094626780785482e-12
0
ARC
5
338
100
AcDbEntity
8
0
100
AcDbCircle
10
39.244962685600001
20
20.193768575996302
30
6.1706397121441672e-12
40
0.99999999999999811
100
AcDbArc
50
180.00276863062876
51
270.00267938153831
0
LINE
5
339
100
AcDbEntity
8
0
100
AcDbLine
10
38.244962686767501
20
20.19372025427441
30
6.1706363779279152e-12
11
38.24496271418392
21
32.193755861655887
31
1.3051109616741428e-12
0
ARC
5
340
100
AcDbEntity
8
0
100
AcDbCircle
10
39.244962685384003
20
32.193707542257997
30
3.7323331500079114e-12
40
1.0000000142553902
100
AcDbArc
50
89.997320264313927
51
179.99723150246325
0
LINE
5
341
100
AcDbEntity
8
0
100
AcDbLine
10
58.295011449778869
20
33.193707554262964
30
6.6769895546685431e-13
11
70.294976280046228
21
33.193707555671494
31
6.5052446011363774e-13
0
ARC
5
342
100
AcDbEntity
8
0
100
AcDbCircle
10
70.295022963600005
20
32.1937075430045
30
3.7323331500086578e-12
40
1.0000000000000078
100
AcDbArc
50
0.0041517582422986319
51
90.002674770568234
0
LINE
5
343
100
AcDbEntity
8
0
100
AcDbLine
10
71.295022960974649
20
32.193780004856272
30
3.7323309758793991e-12
11
71.295022978990986
21
20.193696092151164
31
2.6928058316249062e-13
0
ARC
5
344
100
AcDbEntity
8
0
100
AcDbCircle
10
70.295022963600005
20
20.193768575996302
30
1.3933773160558133e-12
40
0.99999999999999933
100
AcDbArc
50
269.99732459075261
51
359.9958469817862
0
LINE
5
345
100
AcDbEntity
8
0
100
AcDbLine
10
70.294976268899816
20
19.193768577086502
30
1.3933773160558133e-12
11
58.295011457593624
21
19.193768579749225
31
1.8602569927258475e-12
0
ARC
5
346
100
AcDbEntity
8
0
100
AcDbCircle
10
58.294964783600001
20
20.193768575996302
30
1.4704064539849969e-12
40
0.99999999999999711
100
AcDbArc
50
180.00276862957568
51
270.00267422285572
0
LINE
5
347
100
AcDbEntity
8
0
100
AcDbLine
10
57.294964784767501
20
20.193720254294576
30
1.4704031197701337e-12
11
57.294964754407943
21
32.193755861653145
31
1.3051109617876035e-12
0
ARC
5
348
100
AcDbEntity
8
0
100
AcDbCircle
10
58.294964782255903
20
32.193707538782697
30
3.7323331500044387e-12
40
1.0000000165691956
100
AcDbArc
50
89.997326147937059
51
179.99723130368324
0
LINE
5
349
100
AcDbEntity
8
0
100
AcDbLine
10
-46.480059682163031
20
14.143705439870466
30
8.9884599931826713e-13
11
-34.479975658223779
21
14.143705439868928
31
2.1598299039970099e-12
0
ARC
5
350
100
AcDbEntity
8
0
100
AcDbCircle
10
-34.480048180399997
20
13.143705445995399
30
-3.9436080803619476e-13
40
0.99999999999999645
100
AcDbArc
50
0.0041527009529554008
51
89.995844785363431
0
LINE
5
351
100
AcDbEntity
8
0
100
AcDbLine
10
-33.480048183026554
20
13.143777924299332
30
-3.9436080803619425e-13
11
-33.480048162696932
21
1.1438131841643151
31
2.0023755783435962e-12
0
ARC
5
352
100
AcDbEntity
8
0
100
AcDbCircle
10
-34.480048182399997
20
1.14376647599718
30
3.2511472844554167e-12
40
1.0000000000000002
100
AcDbArc
50
-89.995844795388791
51
0.0026761806981864854
0
LINE
5
353
100
AcDbEntity
8
0
100
AcDbLine
10
-34.479975660398502
20
0.14376647862690009
30
3.2851478644951499e-12
11
-46.480059690810791
21
0.14376649334428782
31
4.3544824133835901e-12
0
ARC
5
354
100
AcDbEntity
8
0
100
AcDbCircle
10
-46.47998714940001
20
1.14376647599718
30
3.8513616071433871e-12
40
1.0000000000000031
100
AcDbArc
50
179.99910864232208
51
269.99584368325753
0
LINE
5
355
100
AcDbEntity
8
0
100
AcDbLine
10
-47.479987149278998
20
1.1437820331231447
30
3.85136107819208e-12
11
-47.479987175821769
21
13.143753777854162
31
6.2034810425757514e-13
0
ARC
5
356
100
AcDbEntity
8
0
100
AcDbCircle
10
-46.4799871504
20
13.143705445995399
30
-2.8864570901976328e-12
40
0.99999999650549531
100
AcDbArc
50
90.004155763920494
51
179.99723078863298
0
LINE
5
357
100
AcDbEntity
8
0
100
AcDbLine
10
29.719948716535814
20
14.143705439870622
30
8.9866096214749088e-13
11
41.720032741848314
21
14.143705439868731
31
2.1598299042974828e-12
0
ARC
5
358
100
AcDbEntity
8
0
100
AcDbCircle
10
41.719960211599997
20
13.143705445995399
30
-3.9436080803619476e-13
40
1.0000000000000009
100
AcDbArc
50
0.0041527007774239903
51
89.995844322866205
0
LINE
5
359
100
AcDbEntity
8
0
100
AcDbLine
10
42.719960208973447
20
13.143777924298799
30
-3.9436080803619476e-13
11
42.719960234703144
21
1.1438131841642352
31
2.0023755783435974e-12
0
ARC
5
360
100
AcDbEntity
8
0
100
AcDbCircle
10
41.7199602106
20
1.14376647599718
30
3.2511472844554167e-12
40
1.0000000000000004
100
AcDbArc
50
-89.995844394311575
51
0.0026761806981864854
0
LINE
5
361
100
AcDbEntity
8
0
100
AcDbLine
10
41.720032739601614
20
0.14376647862740774
30
3.2851478644951338e-12
11
29.719948707302439
21
0.1437664933441834
31
2.4297482631872894e-12
0
ARC
5
362
100
AcDbEntity
8
0
100
AcDbCircle
10
29.720021243600002
20
1.14376647599718
30
-3.8888721132305929e-14
40
0.99999999999999867
100
AcDbArc
50
179.99910864232208
51
269.99584397622334
0
LINE
5
363
100
AcDbEntity
8
0
100
AcDbLine
10
28.720021243721018
20
1.1437820331209505
30
-3.8888721132304919e-14
11
28.720021221300275
21
13.143753777854403
31
6.203481042575711e-13
0
ARC
5
364
100
AcDbEntity
8
0
100
AcDbCircle
10
29.720021241600001
20
13.143705445995399
30
-2.8864570901976328e-12
40
0.9999999965051648
100
AcDbArc
50
90.004155380105004
51
179.99723078863298
0
LINE
5
365
100
AcDbEntity
8
0
100
AcDbLine
10
48.769950845553154
20
14.14370543987137
30
8.9255473551203132e-13
11
60.770034748353339
21
14.143705439871006
31
2.1594848612404103e-12
0
ARC
5
366
100
AcDbEntity
8
0
100
AcDbCircle
10
60.769962309599997
20
13.143705445995399
30
-3.9436080803619476e-13
40
1.0000000000000013
100
AcDbArc
50
0.0041527011284868036
51
89.995849565142137
0
LINE
5
367
100
AcDbEntity
8
0
100
AcDbLine
10
61.769962306973447
20
13.143777924304983
30
-3.9436080803619425e-13
11
61.769962275569725
21
1.143813187451368
31
2.5183025009109122e-12
0
ARC
5
368
100
AcDbEntity
8
0
100
AcDbCircle
10
60.769962308600007
20
1.14376647599718
30
3.2511472844554167e-12
40
1.0000000000000004
100
AcDbArc
50
-89.995849327469003
51
0.0026763691762703248
0
LINE
5
369
100
AcDbEntity
8
0
100
AcDbLine
10
60.770034751501782
20
0.14376647862116676
30
3.2851478644953466e-12
11
48.769950838799467
21
0.14376649334334468
31
2.2315908162195936e-12
0
ARC
5
370
100
AcDbEntity
8
0
100
AcDbCircle
10
48.770023341600002
20
1.14376647599718
30
9.0146433624482769e-13
40
1.0000000000000031
100
AcDbArc
50
179.99910864232208
51
269.99584589546168
0
LINE
5
371
100
AcDbEntity
8
0
100
AcDbLine
10
47.770023341721014
20
1.1437820331232127
30
9.0146380729351808e-13
11
47.770023340067141
21
13.143753767075362
31
6.2034820826261853e-13
0
ARC
5
372
100
AcDbEntity
8
0
100
AcDbCircle
10
48.770023339600002
20
13.143705445995399
30
-2.8864570901976328e-12
40
0.99999999650366422
100
AcDbArc
50
90.004153602942338
51
179.9972314062309
0
LINE
5
373
100
AcDbEntity
8
0
100
AcDbLine
10
67.81995297974288
20
14.143705439872303
30
2.1584701737178275e-12
11
79.820036878375461
21
14.143705439870223
31
8.4174271737223311e-13
0
ARC
5
374
100
AcDbEntity
8
0
100
AcDbCircle
10
79.819964407599997
20
13.143705445995399
30
-2.8864570901976328e-12
40
1.0000000000000098
100
AcDbArc
50
0.0041527009529554008
51
89.995847730409707
0
LINE
5
375
100
AcDbEntity
8
0
100
AcDbLine
10
80.819964404973462
20
13.143777924300814
30
-2.8864592648205629e-12
11
80.819964394303057
21
1.1438131874484991
31
2.5435577681595379e-12
0
ARC
5
376
100
AcDbEntity
8
0
100
AcDbCircle
10
79.819964406599993
20
1.14376647599718
30
3.2511472844554167e-12
40
1.0000000000000002
100
AcDbArc
50
-89.995847545579565
51
0.0026763690400915291
0
LINE
5
377
100
AcDbEntity
8
0
100
AcDbLine
10
79.820036880601606
20
0.14376647862342024
30
3.2851478644952687e-12
11
67.819952985254844
21
0.14376649334196917
31
2.6889752805651393e-12
0
ARC
5
378
100
AcDbEntity
8
0
100
AcDbCircle
10
67.820025439600016
20
1.14376647599718
30
9.0146433624482769e-13
40
1.0000000000000031
100
AcDbArc
50
179.99910864232208
51
269.99584867174951
0
LINE
5
379
100
AcDbEntity
8
0
100
AcDbLine
10
66.820025439721022
20
1.1437820331236999
30
9.0146380729350193e-13
11
66.820025458800487
21
13.143753781790348
31
1.8663970712251089e-12
0
ARC
5
380
100
AcDbEntity
8
0
100
AcDbCircle
10
67.820025437599995
20
13.143705445995399
30
-3.9436080803619476e-13
40
0.99999999650197391
100
AcDbArc
50
90.00415152942341
51
179.99723056292555
0
LINE
5
381
100
AcDbEntity
8
0
100
AcDbLine
10
34.482479078315308
20
-4.9062966459821702
30
-1.8164741012150578e-12
11
46.482443769945057
21
-4.9062966459848063
31
-2.0487550755404048e-12
0
ARC
5
382
100
AcDbEntity
8
0
100
AcDbCircle
10
46.482490538599997
20
-5.9062966530037198
30
-4.0753660635857004e-13
40
1.0000000000000004
100
AcDbArc
50
0.0041537957735505058
51
90.002679646520789
0
LINE
5
383
100
AcDbEntity
8
0
100
AcDbLine
10
47.482490535972062
20
-5.9062241555911221
30
-4.0753660635857004e-13
11
47.482490508256987
21
-17.906308124956432
31
-2.2206159546129932e-12
0
ARC
5
384
100
AcDbEntity
8
0
100
AcDbCircle
10
46.482490538599997
20
-17.906235620001901
30
5.7303855431579073e-13
40
1.0000000000000009
100
AcDbArc
50
269.99732066028525
51
359.99584577202904
0
LINE
5
385
100
AcDbEntity
8
0
100
AcDbLine
10
46.482443775300212
20
-18.9062356189085
30
5.7303855431579073e-13
11
34.482479081399866
21
-18.906235621899565
31
2.4957887120144493e-12
0
ARC
5
386
100
AcDbEntity
8
0
100
AcDbCircle
10
34.482432359599997
20
-17.906235620001901
30
4.1324339926358556e-12
40
1.0000000000000027
100
AcDbArc
50
180.00276911502453
51
270.00267696193674
0
LINE
5
387
100
AcDbEntity
8
0
100
AcDbLine
10
33.482432360767895
20
-17.906283950177631
30
4.1324355393067761e-12
11
33.48243236285613
21
-5.906248313481079
31
-2.0328339171738259e-12
0
ARC
5
388
100
AcDbEntity
8
0
100
AcDbCircle
10
34.482432359599997
20
-5.9062966530037198
30
-1.2557698403982124e-12
40
1.0000000081128686
100
AcDbArc
50
89.997323214809185
51
179.997230349343
0
LINE
5
389
100
AcDbEntity
8
0
100
AcDbLine
10
-22.667527179514671
20
-4.9062966462799347
30
3.0738717088919746e-13
11
-10.66756249887016
21
-4.9062966459850443
31
-1.5621207228234806e-12
0
ARC
5
390
100
AcDbEntity
8
0
100
AcDbCircle
10
-10.667515755400101
20
-5.9062966530037198
30
-4.0753660635857004e-13
40
1.0000000000000004
100
AcDbArc
50
0.0041537955980653603
51
90.002678203533392
0
LINE
5
391
100
AcDbEntity
8
0
100
AcDbLine
10
-9.6675157580280384
20
-5.9062241555928496
30
-4.0753660635856953e-13
11
-9.6675157698762355
21
-17.906308119861144
31
-1.7550068698258968e-12
0
ARC
5
392
100
AcDbEntity
8
0
100
AcDbCircle
10
-10.667515755400101
20
-17.906235620001901
30
5.7303855431579073e-13
40
0.99999999999999845
100
AcDbArc
50
269.99732202393028
51
359.99584606401623
0
LINE
5
393
100
AcDbEntity
8
0
100
AcDbLine
10
-10.667562494899791
20
-18.906235618909612
30
5.7303855431578972e-13
11
-22.667527184332425
21
-18.906235622158345
31
3.7190636970919175e-13
0
ARC
5
394
100
AcDbEntity
8
0
100
AcDbCircle
10
-22.667454725400098
20
-17.906235622001901
30
-7.1785284619729285e-13
40
1.0000000000000011
100
AcDbArc
50
180.00276903973813
51
269.99584840899763
0
LINE
5
395
100
AcDbEntity
8
0
100
AcDbLine
10
-23.667454724232261
20
-17.906283950863163
30
-7.1785129956843927e-13
11
-23.667454705076985
21
-5.9062483023543351
31
1.3008403589158617e-12
0
ARC
5
396
100
AcDbEntity
8
0
100
AcDbCircle
10
-22.667454725400098
20
-5.906296652003701
30
3.4939030368272869e-12
40
1.0000000083485654
100
AcDbArc
50
90.004151314942376
51
179.99722976908174
0
LINE
5
397
100
AcDbEntity
8
0
100
AcDbLine
10
-41.717529320514011
20
-4.9062966462810884
30
2.0533917119360193e-13
11
-29.717445419621512
21
-4.9062966462812394
31
-1.4800117379879704e-12
0
ARC
5
398
100
AcDbEntity
8
0
100
AcDbCircle
10
-29.717517853400004
20
-5.906296652003701
30
1.7721121134312965e-13
40
0.99999999999999711
100
AcDbArc
50
0.0041537194368124492
51
89.995849850229263
0
LINE
5
399
100
AcDbEntity
8
0
100
AcDbLine
10
-28.717517856027847
20
-5.9062241559239039
30
1.7721121134312864e-13
11
-28.717517888609635
21
-17.906308124956432
31
-2.2206159545916585e-12
0
ARC
5
400
100
AcDbEntity
8
0
100
AcDbCircle
10
-29.717517853400004
20
-17.906235622001901
30
5.7303855437979525e-13
40
0.99999999999999989
100
AcDbArc
50
270.00415051770773
51
359.99584588661048
0
LINE
5
401
100
AcDbEntity
8
0
100
AcDbLine
10
-29.717445413200405
20
-18.906235619378112
30
5.7303855437979525e-13
11
-41.717529317908053
21
-18.90623562215746
31
3.4685639161444497e-13
0
ARC
5
402
100
AcDbEntity
8
0
100
AcDbCircle
10
-41.717456824400109
20
-17.906235622001901
30
-7.6815982700062278e-13
40
0.99999999999999523
100
AcDbArc
50
180.0027690378954
51
269.99584642796066
0
LINE
5
403
100
AcDbEntity
8
0
100
AcDbLine
10
-42.717456823232268
20
-17.906283950831515
30
-7.6815828037278198e-13
11
-42.717456824410583
21
-5.9062483131512478
31
1.3008405768349452e-12
0
ARC
5
404
100
AcDbEntity
8
0
100
AcDbCircle
10
-41.717456824400109
20
-5.906296652003701
30
3.4939030368272869e-12
40
1.0000000083504559
100
AcDbArc
50
90.004153721326603
51
179.99723038776824
0
LINE
5
405
100
AcDbEntity
8
0
100
AcDbLine
10
-46.48005968422364
20
57.006239975248043
30
2.0190684008140573e-12
11
-34.479975655379519
21
57.006239975246416
31
2.0189476601293608e-12
0
ARC
5
406
100
AcDbEntity
8
0
100
AcDbCircle
10
-34.480048182399997
20
56.006239968999701
30
3.0809901149213498e-12
40
1.0000000000000013
100
AcDbArc
50
-0.0026772364946215424
51
89.995844507859175
0
LINE
5
407
100
AcDbEntity
8
0
100
AcDbLine
10
-33.480048183491682
20
56.006193242406546
30
3.0809901149213498e-12
11
-33.480048162476066
21
44.006228502644156
31
2.1683689642107256e-12
0
ARC
5
408
100
AcDbEntity
8
0
100
AcDbCircle
10
-34.480048180399997
20
44.006300999001404
30
3.0364506491019165e-12
40
0.99999999999999512
100
AcDbArc
50
270.00415508991421
51
359.99584626485699
0
LINE
5
409
100
AcDbEntity
8
0
100
AcDbLine
10
-34.479975660400342
20
43.00630100163098
30
3.0364506491019165e-12
11
-46.480059682063917
21
43.006300999374758
31
4.8089765150353546e-12
0
ARC
5
410
100
AcDbEntity
8
0
100
AcDbCircle
10
-46.4799871504
20
44.006300999001404
30
4.1942970439364845e-12
40
0.99999999999999334
100
AcDbArc
50
180.00276899340702
51
269.99584424178221
0
LINE
5
411
100
AcDbEntity
8
0
100
AcDbLine
10
-47.479987149232194
20
44.006252670946317
30
4.1942937092832388e-12
11
-47.479987175615229
21
56.00622441908147
31
3.1501724058541328e-12
0
ARC
5
412
100
AcDbEntity
8
0
100
AcDbCircle
10
-46.47998714940001
20
56.006239968999701
30
3.0809901149213498e-12
40
1.0000000088789909
100
AcDbArc
50
90.004155939228482
51
180.00089094460617
0
LINE
5
413
100
AcDbEntity
8
0
100
AcDbLine
10
58.295011453462592
20
57.006239975548752
30
-6.3621141734655055e-13
11
70.294976273790283
21
57.006239975546649
31
1.6877750201164679e-12
0
ARC
5
414
100
AcDbEntity
8
0
100
AcDbCircle
10
70.295022961600012
20
56.006239967999704
30
3.0058587462442656e-12
40
1.0000000000000036
100
AcDbArc
50
-0.0026771790452037752
51
90.002675014430025
0
LINE
5
415
100
AcDbEntity
8
0
100
AcDbLine
10
71.295022960508362
20
56.006193242407633
30
3.0058601481885205e-12
11
71.295022978990559
21
44.006228502644092
31
2.3201078646750895e-13
0
ARC
5
416
100
AcDbEntity
8
0
100
AcDbCircle
10
70.295022963600005
20
44.006301001001511
30
-1.3203552501320849e-12
40
0.99999999999999933
100
AcDbArc
50
269.99732459077296
51
359.99584615026509
0
LINE
5
417
100
AcDbEntity
8
0
100
AcDbLine
10
70.294976268900172
20
43.006301002091703
30
-1.3203552501320849e-12
11
58.295011458328894
21
43.006300999627712
31
-6.4146861464183314e-13
0
ARC
5
418
100
AcDbEntity
8
0
100
AcDbCircle
10
58.294964783600001
20
44.006301001001511
30
-6.3562911369524577e-12
40
1.0000000000000036
100
AcDbArc
50
180.00276906895792
51
270.00267426496987
0
LINE
5
419
100
AcDbEntity
8
0
100
AcDbLine
10
57.294964784767863
20
44.006252671629952
30
-6.3562896868887592e-12
11
57.294964755628897
21
56.006224426658868
31
-2.5530981556359703e-13
0
ARC
5
420
100
AcDbEntity
8
0
100
AcDbCircle
10
58.294964785600001
20
56.006239967999704
30
-1.6803987457974326e-12
40
1.0000000086379959
100
AcDbArc
50
89.997326128456763
51
180.00089045276013
0
LINE
5
421
100
AcDbEntity
8
0
100
AcDbLine
10
77.357649873671761
20
57.006240719450901
30
3.7755694309164088e-12
11
89.357614537913378
21
57.006239975545753
31
1.8632010118400304e-12
0
ARC
5
422
100
AcDbEntity
8
0
100
AcDbCircle
10
89.35766124460001
20
56.006239967999704
30
3.0058587462442656e-12
40
0.99999999999999467
100
AcDbArc
50
-0.0026771793174592559
51
90.002676095996918
0
LINE
5
423
100
AcDbEntity
8
0
100
AcDbLine
10
90.35766124350836
20
56.006193242406503
30
3.0058601481885552e-12
11
90.357661247724138
21
44.006228509313708
31
-4.1344017982366245e-13
0
ARC
5
424
100
AcDbEntity
8
0
100
AcDbCircle
10
89.357661246600003
20
44.006301001001511
30
-1.3203552501320849e-12
40
0.99999999999999523
100
AcDbArc
50
269.99732336464342
51
359.99584653230886
0
LINE
5
425
100
AcDbEntity
8
0
100
AcDbLine
10
89.357614530500172
20
43.006301002092712
30
-1.3203552501320849e-12
11
77.357649841036931
21
43.006300999372399
31
4.2650090365852352e-12
0
ARC
5
426
100
AcDbEntity
8
0
100
AcDbCircle
10
77.357722276600001
20
44.006300999001404
30
3.0364506491019165e-12
40
0.99999999999999434
100
AcDbArc
50
180.00276899472325
51
269.99584974795516
0
LINE
5
427
100
AcDbEntity
8
0
100
AcDbLine
10
76.357722277767806
20
44.006252670923487
30
3.0364506491019165e-12
11
76.357722330233557
21
56.00623221418968
31
3.219354688021017e-12
0
ARC
5
428
100
AcDbEntity
8
0
100
AcDbCircle
10
77.357723380081794
20
56.006242201677807
30
7.1058776839473787e-12
40
0.9999985204746954
100
AcDbArc
50
90.004211613297016
51
180.00057224047279
0
LINE
5
429
100
AcDbEntity
8
0
100
AcDbLine
10
139.25743099479848
20
57.006240449001588
30
3.241667804219516e-12
11
151.25751066263925
21
57.006246759456474
31
-3.6106261736356186e-13
0
ARC
5
430
100
AcDbEntity
8
0
100
AcDbCircle
10
151.25744247265001
20
56.0062467670014
30
-1.6440675243179973e-12
40
1.0000000000000013
100
AcDbArc
50
-0.0030667335457391595
51
89.996093001388331
0
LINE
5
431
100
AcDbEntity
8
0
100
AcDbLine
10
152.25744247121759
20
56.006193242402119
30
-1.6440712175081997e-12
11
152.25744190597675
21
44.00622849792785
31
3.6605787869661214e-12
0
ARC
5
432
100
AcDbEntity
8
0
100
AcDbCircle
10
151.25744087290599
20
44.00629885825871
30
4.8942579643540937e-12
40
1.0000000000000024
100
AcDbArc
50
270.00424233707349
51
359.99596865414941
0
LINE
5
433
100
AcDbEntity
8
0
100
AcDbLine
10
151.25751491565583
20
43.00629886099987
30
4.8252576035627899e-12
11
139.25743101129601
21
43.006300999373821
31
1.1564132260711831e-12
0
ARC
5
434
100
AcDbEntity
8
0
100
AcDbCircle
10
139.25750350359999
20
44.006300999001404
30
-3.1062867047119053e-12
40
0.99999999999999656
100
AcDbArc
50
180.00276898682586
51
269.99584649694015
0
LINE
5
435
100
AcDbEntity
8
0
100
AcDbLine
10
138.25750350476778
20
44.006252671060999
30
-3.1062900393572387e-12
11
138.25750350433356
21
56.006232214189239
31
3.219354688021017e-12
0
ARC
5
436
100
AcDbEntity
8
0
100
AcDbCircle
10
139.25750460708201
20
56.006241390339611
30
7.1561846639399883e-12
40
0.99999906137136219
100
AcDbArc
50
90.004217677129176
51
180.0005257540609
0
LINE
5
437
100
AcDbEntity
8
0
100
AcDbLine
10
158.30755237868883
20
57.006240008719359
30
7.3009583497491598e-13
11
170.30739782930158
21
57.006239975659767
31
1.4378028760189749e-12
0
ARC
5
438
100
AcDbEntity
8
0
100
AcDbCircle
10
170.30756377943203
20
56.006239980799606
30
3.5063264690763658e-12
40
1.0000000000000266
100
AcDbArc
50
-0.002677893536101194
51
90.00950824204611
0
LINE
5
439
100
AcDbEntity
8
0
100
AcDbLine
10
171.30756377833984
20
56.006193242738689
30
3.5063278706535807e-12
11
171.3075637684743
21
44.006228505800323
31
-2.1483988239871159e-13
0
ARC
5
440
100
AcDbEntity
8
0
100
AcDbCircle
10
170.30756378065004
20
44.006300988001399
30
-1.3203552497420327e-12
40
1.0000000000000009
100
AcDbArc
50
269.99049194643101
51
359.99584707577708
0
LINE
5
441
100
AcDbEntity
8
0
100
AcDbLine
10
170.30739783381057
20
43.006301001770581
30
-1.3203552497420323e-12
11
158.30755237871327
21
43.006300939729066
31
3.6034178467123585e-12
0
ARC
5
442
100
AcDbEntity
8
0
100
AcDbCircle
10
158.307386247094
20
44.00630080881281
30
6.4418545015991758e-13
40
0.99999999999999478
100
AcDbArc
50
180.00275830786015
51
270.0095186417862
0
LINE
5
443
100
AcDbEntity
8
0
100
AcDbLine
10
157.30738624825281
20
44.006252667257904
30
6.4418689501192333e-13
11
157.30738644410354
21
56.006224442864898
31
3.9288218672581013e-12
0
ARC
5
444
100
AcDbEntity
8
0
100
AcDbCircle
10
158.30738648678201
20
56.006240079975001
30
3.3562728885034713e-12
40
0.99999994250441826
100
AcDbArc
50
89.990495093293887
51
180.00089594056169
0
LINE
5
445
100
AcDbEntity
8
0
100
AcDbLine
10
39.245009453361789
20
57.006239975547139
30
-6.3565630583423797e-13
11
51.244974144303768
21
57.006239975546158
31
1.3805851440766314e-12
0
ARC
5
446
100
AcDbEntity
8
0
100
AcDbCircle
10
51.245020863599997
20
56.006239967999704
30
3.0058587462442656e-12
40
1.0000000000000036
100
AcDbArc
50
-0.0026771793174592559
51
90.002676818473589
0
LINE
5
447
100
AcDbEntity
8
0
100
AcDbLine
10
52.245020862508362
20
56.006193242405431
30
3.0058601481885875e-12
11
52.245020860257497
21
44.006228510250054
31
-4.2999020455673744e-13
0
ARC
5
448
100
AcDbEntity
8
0
100
AcDbCircle
10
51.245020865599997
20
44.006301001001511
30
-1.3203552501320849e-12
40
1.0000000000000044
100
AcDbArc
50
269.99732280887503
51
359.9958465859242
0
LINE
5
449
100
AcDbEntity
8
0
100
AcDbLine
10
51.244974139800178
20
43.006301002093153
30
-1.3203552501320849e-12
11
39.245009449629386
21
43.006300999629126
31
2.8580213507234724e-12
0
ARC
5
450
100
AcDbEntity
8
0
100
AcDbCircle
10
39.244962685600001
20
44.006301001001511
30
6.4418545035195334e-13
40
1.0000000000000004
100
AcDbArc
50
180.0027690702741
51
270.00267938151109
0
LINE
5
451
100
AcDbEntity
8
0
100
AcDbLine
10
38.24496268676787
20
44.00625267160693
30
6.4418690041634199e-13
11
38.244962715028841
21
56.006224418740871
31
-2.5530988111886368e-13
0
ARC
5
452
100
AcDbEntity
8
0
100
AcDbCircle
10
39.244962687600008
20
56.006239967999704
30
-1.6803987457974326e-12
40
1.0000000086409531
100
AcDbArc
50
89.997320519246429
51
180.00089090697028
0
LINE
5
453
100
AcDbEntity
8
0
100
AcDbLine
10
-98.867535580495186
20
-4.9062966462801425
30
6.1334613274331869e-13
11
-86.867451689173251
21
-4.9062966462818656
31
1.4438531674476988e-13
0
ARC
5
454
100
AcDbEntity
8
0
100
AcDbCircle
10
-86.867524148399994
20
-5.906296652003701
30
3.4939030368272869e-12
40
1.0000000000000013
100
AcDbArc
50
0.0041537190858357007
51
89.995848392151871
0
LINE
5
455
100
AcDbEntity
8
0
100
AcDbLine
10
-85.867524151027823
20
-5.9062241559272355
30
3.4939008616711581e-12
11
-85.867524167342779
21
-17.906308119861247
31
-1.7550068697974504e-12
0
ARC
5
456
100
AcDbEntity
8
0
100
AcDbCircle
10
-86.867524148399994
20
-17.906235622001901
30
5.7303855437979525e-13
40
1.0000000000000007
100
AcDbArc
50
270.00415192145675
51
359.99584617860569
0
LINE
5
457
100
AcDbEntity
8
0
100
AcDbLine
10
-86.867451683700352
20
-18.906235619376336
30
5.7303855437979525e-13
11
-98.867535584410987
21
-18.906235622158167
31
3.7023207514628406e-13
0
ARC
5
458
100
AcDbEntity
8
0
100
AcDbCircle
10
-98.867463118399996
20
-17.906235622001901
30
-7.1785284619729285e-13
40
0.99999999999998757
100
AcDbArc
50
180.00276903947488
51
269.99584800342001
0
LINE
5
459
100
AcDbEntity
8
0
100
AcDbLine
10
-99.867463117232148
20
-17.906283950857606
30
-7.1785129956861699e-13
11
-99.867463102543681
21
-5.906248302354542
31
1.3008403589158647e-12
0
ARC
5
460
100
AcDbEntity
8
0
100
AcDbCircle
10
-98.867463118399996
20
-5.906296652003701
30
3.4939030368272869e-12
40
1.0000000083489362
100
AcDbArc
50
90.004151772198028
51
179.99722976921328
0
LINE
5
461
100
AcDbEntity
8
0
100
AcDbLine
10
139.25743100768719
20
-23.956298761777234
30
1.8335215186405338e-12
11
151.2575149093928
21
-23.956298761775749
31
1.8374600884196816e-12
0
ARC
5
462
100
AcDbEntity
8
0
100
AcDbCircle
10
151.25744247365
20
-24.956298750000805
30
2.9992889815244917e-13
40
0.99999999999999967
100
AcDbArc
50
0.0041522154046986087
51
89.995849737610399
0
LINE
5
463
100
AcDbEntity
8
0
100
AcDbLine
10
152.25744247102406
20
-24.956226280169961
30
2.9992889815244917e-13
11
152.25744243925993
21
-36.956190947966952
31
-3.0422389922951486e-12
0
ARC
5
464
100
AcDbEntity
8
0
100
AcDbCircle
10
151.25744247167401
20
-36.956237720262401
30
-3.3363707508023251e-12
40
1.0000000000000013
100
AcDbArc
50
-89.995849275596939
51
0.0026798551258001885
0
LINE
5
465
100
AcDbEntity
8
0
100
AcDbLine
10
151.25751491548112
20
-37.956237717638352
30
-3.3233533858727381e-12
11
139.25743100677732
21
-37.956237708307668
31
4.3260558579051998e-13
0
ARC
5
466
100
AcDbEntity
8
0
100
AcDbCircle
10
139.25750350460001
20
-36.956237720000999
30
-2.6364098282454237e-12
40
1.000000000000006
100
AcDbArc
50
179.99910660593679
51
269.99584618069491
0
LINE
5
467
100
AcDbEntity
8
0
100
AcDbLine
10
138.25750350472157
20
-36.956222127331195
30
-2.6364100312208971e-12
11
138.25750350427799
21
-24.956250431775654
31
-5.0558993809205678e-13
0
ARC
5
468
100
AcDbEntity
8
0
100
AcDbCircle
10
139.25750350359999
20
-24.956298750000805
30
2.9992889815244917e-13
40
0.99999999085140101
100
AcDbArc
50
90.00415370987723
51
179.99723156973573
0
LINE
5
469
100
AcDbEntity
8
0
100
AcDbLine
10
139.25743100776856
20
-43.006181628480391
30
1.7370178916747614e-12
11
151.25751490637762
21
-43.006181629285479
31
1.6980158319518947e-12
0
ARC
5
470
100
AcDbEntity
8
0
100
AcDbCircle
10
151.25744247164999
20
-44.006181638996402
30
1.4082936904798137e-12
40
1.0000000000000122
100
AcDbArc
50
-0.0026769394322900711
51
89.995849795864331
0
LINE
5
471
100
AcDbEntity
8
0
100
AcDbLine
10
152.25744247055857
20
-44.006228360404535
30
1.4082936904798137e-12
11
152.25744246977001
21
-56.006193101622408
31
-3.5557660414518651e-12
0
ARC
5
472
100
AcDbEntity
8
0
100
AcDbCircle
10
151.257437636769
20
-56.006235121973404
30
3.0439893809151289e-12
40
1.0000048900000043
100
AcDbArc
50
-89.995572288801384
51
0.0024075770432022215
0
LINE
5
473
100
AcDbEntity
8
0
100
AcDbLine
10
151.25751491528555
20
-57.006240008987433
30
2.9790132608612955e-12
11
139.25743100878563
21
-57.006239823807547
31
1.4698046167177118e-12
0
ARC
5
474
100
AcDbEntity
8
0
100
AcDbCircle
10
139.25750350460001
20
-56.006239817999997
30
2.9945497571575262e-12
40
0.99999999999998779
100
AcDbArc
50
179.99910811010986
51
269.99584629583512
0
LINE
5
475
100
AcDbEntity
8
0
100
AcDbLine
10
138.25750350472117
20
-56.006224251579901
30
2.9945508312461322e-12
11
138.25750350449567
21
-44.006202009413428
31
3.120208457941944e-12
0
ARC
5
476
100
AcDbEntity
8
0
100
AcDbCircle
10
139.25751068459999
20
-44.006188816999902
30
1.3203518887485512e-12
40
1.0000071916936855
100
AcDbArc
50
90.004565113340021
51
180.00075586408883
0
LINE
5
477
100
AcDbEntity
8
0
100
AcDbLine
10
158.30755237875937
20
-43.006181131494891
30
6.295087825645967e-13
11
170.30739782930181
21
-43.006181628809649
31
1.6813248237331211e-12
0
ARC
5
478
100
AcDbEntity
8
0
100
AcDbCircle
10
170.30756377965002
20
-44.006181626996401
30
1.8061115785920106e-12
40
1.0000000000000067
100
AcDbArc
50
-0.0026776075720226725
51
90.009508254491621
0
LINE
5
479
100
AcDbEntity
8
0
100
AcDbLine
10
171.30756377855803
20
-44.006228360066359
30
1.8061130734109124e-12
11
171.30756376877272
21
-56.006193095548866
31
1.8097196911964776e-12
0
ARC
5
480
100
AcDbEntity
8
0
100
AcDbCircle
10
170.30756377965002
20
-56.006239829000108
30
1.9042446476219182e-12
40
1.0000000000000033
100
AcDbArc
50
-90.009507996168011
51
0.0026776294865999452
0
LINE
5
481
100
AcDbEntity
8
0
100
AcDbLine
10
170.30739783381239
20
-57.006239815231098
30
1.9042446476219182e-12
11
158.30755235813226
21
-57.006239823726077
31
-1.6781433168638594e-12
0
ARC
5
482
100
AcDbEntity
8
0
100
AcDbCircle
10
158.30738639365001
20
-56.006239829000108
30
-3.3554055266665754e-12
40
0.99999999999999545
100
AcDbArc
50
179.9991076893067
51
270.00950906434485
0
LINE
5
483
100
AcDbEntity
8
0
100
AcDbLine
10
157.30738639377131
20
-56.006224255244092
30
-3.3554060557597982e-12
11
157.30738632459983
21
-44.006197115370504
31
-9.949018113296634e-13
0
ARC
5
484
100
AcDbEntity
8
0
100
AcDbCircle
10
158.30738612825601
20
-44.006180134995901
30
1.8061115800828188e-12
40
0.999999017320644
100
AcDbArc
50
89.990474538411476
51
180.00097290382209
0
LINE
5
485
100
AcDbEntity
8
0
100
AcDbLine
10
-132.20500949456701
20
33.193707553955619
30
6.6390569346576358e-13
11
-120.20504479641373
21
33.19370755566986
31
6.6201036001163325e-13
0
ARC
5
486
100
AcDbEntity
8
0
100
AcDbCircle
10
-120.20499801740002
20
32.1937075430045
30
3.7323331500086578e-12
40
0.99999999999999034
100
AcDbArc
50
0.0041517585934411428
51
90.002680240019757
0
LINE
5
487
100
AcDbEntity
8
0
100
AcDbLine
10
-119.20499802002539
20
32.19378000486244
30
3.7323309758792141e-12
11
-119.20499805307566
21
20.193696092810626
31
1.6796491412730462e-12
0
ARC
5
488
100
AcDbEntity
8
0
100
AcDbCircle
10
-120.20499801740002
20
20.193768575996302
30
6.8706006347007661e-12
40
0.99999999999999978
100
AcDbArc
50
269.99732020189577
51
359.99584701925937
0
LINE
5
489
100
AcDbEntity
8
0
100
AcDbLine
10
-120.20504478870021
20
19.193768577090079
30
6.8016002737957831e-12
11
-132.20500948241346
21
19.19376857974985
31
4.2009196717747348e-12
0
ARC
5
490
100
AcDbEntity
8
0
100
AcDbCircle
10
-132.20505619639999
20
20.193768575996302
30
6.1706397121441672e-12
40
0.99999999999999134
100
AcDbArc
50
180.00276862246704
51
270.00267651428078
0
LINE
5
491
100
AcDbEntity
8
0
100
AcDbLine
10
-133.20505619523252
20
20.193720254416704
30
6.1706363779377315e-12
11
-133.20505619874956
21
32.19375585258495
31
1.3051109718633267e-12
0
ARC
5
492
100
AcDbEntity
8
0
100
AcDbCircle
10
-132.20505619721601
20
32.19370753786221
30
3.7323331500035195e-12
40
1.0000000171839851
100
AcDbArc
50
89.997324135365162
51
179.99723177037811
0
LINE
5
493
100
AcDbEntity
8
0
100
AcDbLine
10
24.957537689403814
20
-23.956298761480252
30
1.5606610806966803e-12
11
36.957502380909652
21
-23.956298761478983
31
2.7151451759168039e-12
0
ARC
5
494
100
AcDbEntity
8
0
100
AcDbCircle
10
36.957549094599997
20
-24.956298751000805
30
2.9752678998914488e-12
40
0.99999999999999822
100
AcDbArc
50
0.0041522915935384482
51
90.002676497328366
0
LINE
5
495
100
AcDbEntity
8
0
100
AcDbLine
10
37.957549091973959
20
-24.956226279840084
30
2.975267028921137e-12
11
37.957549087262606
21
-36.956190957960558
31
2.9724113934819584e-12
0
ARC
5
496
100
AcDbEntity
8
0
100
AcDbCircle
10
36.957549074861603
20
-36.956237295628704
30
5.1298064281450969e-13
40
1.0000000000000002
100
AcDbArc
50
-90.00267571533908
51
0.0026549527148665639
0
LINE
5
497
100
AcDbEntity
8
0
100
AcDbLine
10
36.957502374819107
20
-37.956237294538255
30
5.2397185074629856e-13
11
24.957537689768678
21
-37.956237708049066
31
1.7618041980089702e-12
0
ARC
5
498
100
AcDbEntity
8
0
100
AcDbCircle
10
24.957490916599902
20
-36.956237718000999
30
4.0619369441392353e-13
40
1.0000000000000029
100
AcDbArc
50
179.99910668263564
51
270.00267990519006
0
LINE
5
499
100
AcDbEntity
8
0
100
AcDbLine
10
23.957490916721444
20
-36.956222126663782
30
4.0619369441392252e-13
11
23.957490947467118
21
-24.956250414861696
31
-1.6804313937147498e-12
0
ARC
5
500
100
AcDbEntity
8
0
100
AcDbCircle
10
24.957490914600005
20
-24.956298751000805
30
2.9992889816446712e-13
40
0.99999999061449363
100
AcDbArc
50
89.997320001128003
51
179.99723054318528
0
LINE
5
501
100
AcDbEntity
8
0
100
AcDbLine
10
-13.142466579735011
20
-23.956298761479037
30
1.5606610806966793e-12
11
-1.1425018900272121
21
-23.956298761480234
31
2.8880802777517412e-12
0
ARC
5
502
100
AcDbEntity
8
0
100
AcDbCircle
10
-1.1424551024000302
20
-24.956298751000805
30
2.9752678998914488e-12
40
1.0000000000000004
100
AcDbArc
50
0.0041522913302153722
51
90.002680733597103
0
LINE
5
503
100
AcDbEntity
8
0
100
AcDbLine
10
-0.14245510502606418
20
-24.956226279844145
30
2.9752670289211855e-12
11
-0.14245507209252861
21
-36.956190947789018
31
2.6520872356520122e-12
0
ARC
5
504
100
AcDbEntity
8
0
100
AcDbCircle
10
-1.14245512120665
20
-36.956237217347201
30
5.1298064289272935e-13
40
1.0000000000000038
100
AcDbArc
50
-90.002679280745568
51
0.0026510502106892098
0
LINE
5
505
100
AcDbEntity
8
0
100
AcDbLine
10
-1.1425018834772283
20
-37.956237216253854
30
5.2397185082450207e-13
11
-13.142466579370149
21
-37.956237708050281
31
1.761873205690417e-12
0
ARC
5
506
100
AcDbEntity
8
0
100
AcDbCircle
10
-13.142513279400001
20
-36.956237718000999
30
4.0619369441392353e-13
40
1.0000000000000007
100
AcDbArc
50
179.99910668263564
51
270.00267571463837
0
LINE
5
507
100
AcDbEntity
8
0
100
AcDbLine
10
-14.142513279278457
20
-36.956222126664748
30
4.0619369441392252e-13
11
-14.142513290066072
21
-24.956250432109002
31
-1.6804314118459986e-12
0
ARC
5
508
100
AcDbEntity
8
0
100
AcDbCircle
10
-13.142513281400001
20
-24.956298751000805
30
2.9992889816446712e-13
40
0.99999999061229194
100
AcDbArc
50
89.997324191673727
51
179.99723153155742
0
LINE
5
509
100
AcDbEntity
8
0
100
AcDbLine
10
-32.192468708786798
20
-23.956298761478546
30
1.5627890081605456e-12
11
-20.192503890596516
21
-23.956298761478628
31
2.8880802777517291e-12
0
ARC
5
510
100
AcDbEntity
8
0
100
AcDbCircle
10
-20.192457200400099
20
-24.956298751000805
30
2.9752678998914488e-12
40
1.0000000000000004
100
AcDbArc
50
0.0041522914179897329
51
90.002675151225404
0
LINE
5
511
100
AcDbEntity
8
0
100
AcDbLine
10
-19.192457203026134
20
-24.956226279841879
30
2.975267028921158e-12
11
-19.192457190878976
21
-36.95619095389177
31
2.8927961598858954e-12
0
ARC
5
512
100
AcDbEntity
8
0
100
AcDbCircle
10
-20.192457219167999
20
-36.956237180190399
30
5.1298064292985655e-13
40
0.99999999999999756
100
AcDbArc
50
-90.002674349695624
51
0.0026485716737704558
0
LINE
5
513
100
AcDbEntity
8
0
100
AcDbLine
10
-20.19250389537552
20
-37.956237179101066
30
5.2397185086166966e-13
11
-32.192468709252033
21
-37.956237708050772
31
2.1660371938881348e-12
0
ARC
5
514
100
AcDbEntity
8
0
100
AcDbCircle
10
-32.192515378400003
20
-36.956237718000999
30
1.2129415649491156e-12
40
1.0000000000000029
100
AcDbArc
50
179.99910668263564
51
270.00267394523678
0
LINE
5
515
100
AcDbEntity
8
0
100
AcDbLine
10
-33.192515378278465
20
-36.95622212666548
30
1.2129413935815042e-12
11
-33.192515408821862
21
-24.956250423033556
31
-1.6804314061042649e-12
0
ARC
5
516
100
AcDbEntity
8
0
100
AcDbCircle
10
-32.192515379400099
20
-24.956298751000805
30
2.9992889816446712e-13
40
0.99999999061133094
100
AcDbArc
50
89.997325970804482
51
179.99723101159466
0
LINE
5
517
100
AcDbEntity
8
0
100
AcDbLine
10
-51.242470708940793
20
-23.956298761480163
30
1.5559426328420234e-12
11
-39.242506021890087
21
-23.956298761479161
31
2.7151451754129039e-12
0
ARC
5
518
100
AcDbEntity
8
0
100
AcDbCircle
10
-39.242459298400107
20
-24.956298751000805
30
2.9752678998914488e-12
40
1.0000000000000029
100
AcDbArc
50
0.0041522915935384482
51
90.002677058806086
0
LINE
5
519
100
AcDbEntity
8
0
100
AcDbLine
10
-38.242459301026138
20
-24.956226279839608
30
2.9752670289211305e-12
11
-38.242459309598587
21
-36.956190960673631
31
2.9995708795188962e-12
0
ARC
5
520
100
AcDbEntity
8
0
100
AcDbCircle
10
-39.242459317129203
20
-36.956237143200298
30
5.1298064296681715e-13
40
0.99999999999999933
100
AcDbArc
50
-90.002676139446152
51
0.002646063680923729
0
LINE
5
521
100
AcDbEntity
8
0
100
AcDbLine
10
-39.242506024573764
20
-37.956237142109508
30
5.2397185089861006e-13
11
-51.24247071083051
21
-37.95623770804918
31
1.7280498470745267e-12
0
ARC
5
522
100
AcDbEntity
8
0
100
AcDbCircle
10
-51.24251747640001
20
-36.956237718000999
30
3.6292706172047504e-13
40
1.0000000000000029
100
AcDbArc
50
179.99910668263564
51
270.00267946978363
0
LINE
5
523
100
AcDbEntity
8
0
100
AcDbLine
10
-52.242517476278465
20
-36.956222126664152
30
3.6292689035284856e-13
11
-52.242517449621857
21
-24.95625042303077
31
-1.6804314062318605e-12
0
ARC
5
524
100
AcDbEntity
8
0
100
AcDbCircle
10
-51.242517477400106
20
-24.956298751000805
30
2.9992889816446712e-13
40
0.99999999061428557
100
AcDbArc
50
89.997320364640899
51
179.9972310111998
0
LINE
5
525
100
AcDbEntity
8
0
100
AcDbLine
10
-170.30501361484409
20
33.193707555456498
30
6.6779147405349047e-13
11
-158.30504891891454
21
33.193707555671153
31
5.1269366071916516e-13
0
ARC
5
526
100
AcDbEntity
8
0
100
AcDbCircle
10
-158.3050022134
20
32.1937075430045
30
3.7323331500086578e-12
40
0.9999999999999899
100
AcDbArc
50
0.0041517584178698908
51
90.002676028826997
0
LINE
5
527
100
AcDbEntity
8
0
100
AcDbLine
10
-157.30500221602537
20
32.19378000485802
30
3.7323309758793466e-12
11
-157.30500221247564
21
20.19369609347978
31
2.1523398835725626e-12
0
ARC
5
528
100
AcDbEntity
8
0
100
AcDbCircle
10
-158.3050022134
20
20.193768575996302
30
6.8706006347007661e-12
40
1.0000000000000027
100
AcDbArc
50
269.99732334743402
51
359.99584705778619
0
LINE
5
529
100
AcDbEntity
8
0
100
AcDbLine
10
-158.30504892980019
20
19.193768577087511
30
6.8016002737956054e-12
11
-170.30501361957093
21
19.193768579750813
31
1.8565323013124033e-12
0
ARC
5
530
100
AcDbEntity
8
0
100
AcDbCircle
10
-170.3050603934
20
20.193768575996302
30
1.3933773160558133e-12
40
0.99999999999998068
100
AcDbArc
50
180.00276863089206
51
270.00267994300543
0
LINE
5
531
100
AcDbEntity
8
0
100
AcDbLine
10
-171.30506039223249
20
20.193720254268342
30
1.3933773160558123e-12
11
-171.30506035844121
21
32.193755869818723
31
1.3051109382234846e-12
0
ARC
5
532
100
AcDbEntity
8
0
100
AcDbCircle
10
-170.30506039349203
20
32.193707542368898
30
3.7323331500080229e-12
40
1.0000000141817238
100
AcDbArc
50
89.997319780938639
51
179.99723104107855
0
LINE
5
533
100
AcDbEntity
8
0
100
AcDbLine
10
-151.25501162193203
20
33.193707552970523
30
6.6760643688017473e-13
11
-139.25504679138317
21
33.193707555671601
31
6.6201036100457916e-13
0
ARC
5
534
100
AcDbEntity
8
0
100
AcDbCircle
10
-139.25500011540004
20
32.1937075430045
30
3.7323331500086578e-12
40
0.99999999999998979
100
AcDbArc
50
0.0041517582422986319
51
90.002674336802073
0
LINE
5
535
100
AcDbEntity
8
0
100
AcDbLine
10
-138.25500011802541
20
32.193780004855512
30
3.7323309758794225e-12
11
-138.25500009367565
21
20.193696093483009
31
2.0900596667281865e-12
0
ARC
5
536
100
AcDbEntity
8
0
100
AcDbCircle
10
-139.25500011540004
20
20.193768575996302
30
6.8706006347007661e-12
40
1.0000000000000022
100
AcDbArc
50
269.99732513506331
51
359.99584705804949
0
LINE
5
537
100
AcDbEntity
8
0
100
AcDbLine
10
-139.25504680060021
20
19.193768577086054
30
6.8016002737955061e-12
11
-151.2550116112435
21
19.193768579749371
31
1.8602569927258624e-12
0
ARC
5
538
100
AcDbEntity
8
0
100
AcDbCircle
10
-151.25505829439999
20
20.193768575996302
30
1.4704064539849969e-12
40
0.999999999999997
100
AcDbArc
50
180.00276862931238
51
270.00267474784897
0
LINE
5
539
100
AcDbEntity
8
0
100
AcDbLine
10
-152.25505829323251
20
20.193720254296522
30
1.470403119770269e-12
11
-152.25505831768544
21
32.193755856211737
31
1.305110969590133e-12
0
ARC
5
540
100
AcDbEntity
8
0
100
AcDbCircle
10
-151.255058295624
20
32.193707534905599
30
3.7323331500005662e-12
40
1.0000000191541361
100
AcDbArc
50
89.99732579448613
51
179.99723139319829
0
LINE
5
541
100
AcDbEntity
8
0
100
AcDbLine
10
-113.1550073422523
20
33.1937075548542
30
6.6649621385748424e-13
11
-101.15504266617756
21
33.193707555670372
31
-1.4108489802909275e-12
0
ARC
5
542
100
AcDbEntity
8
0
100
AcDbCircle
10
-101.15499591940001
20
32.1937075430045
30
-9.6593282738581559e-13
40
1.000000000000008
100
AcDbArc
50
0.0041517585934411428
51
90.002678393023942
0
LINE
5
543
100
AcDbEntity
8
0
100
AcDbLine
10
-100.15499592202536
20
32.193780004861885
30
-9.6593282738581559e-13
11
-100.1549959343423
21
20.193696093476792
31
2.1149717534656651e-12
0
ARC
5
544
100
AcDbEntity
8
0
100
AcDbCircle
10
-101.15499591940001
20
20.193768575996302
30
6.8706006347007661e-12
40
1
100
AcDbArc
50
269.99732198379536
51
359.99584705752289
0
LINE
5
545
100
AcDbEntity
8
0
100
AcDbLine
10
-101.15504265960018
20
19.193768577088626
30
6.8016002737956838e-12
11
-113.15500734911801
21
19.193768579750429
31
4.200919671774801e-12
0
ARC
5
546
100
AcDbEntity
8
0
100
AcDbCircle
10
-113.1550540984
20
20.193768575996302
30
6.1706397121441672e-12
40
0.99999999999999656
100
AcDbArc
50
180.00276862891744
51
270.00267853656152
0
LINE
5
547
100
AcDbEntity
8
0
100
AcDbLine
10
-114.15505409723251
20
20.193720254304534
30
6.1706363779299929e-12
11
-114.15505407988016
21
32.193755856213727
31
1.3051109693573178e-12
0
ARC
5
548
100
AcDbEntity
8
0
100
AcDbCircle
10
-113.15505409880799
20
32.193707540561
30
3.7323331500062159e-12
40
1.0000000153862818
100
AcDbArc
50
89.997321046734626
51
179.99723171705637
0
LINE
5
549
100
AcDbEntity
8
0
100
AcDbLine
10
-94.105005213888475
20
33.19370755566824
30
6.6779147405370555e-13
11
-82.105040519610682
21
33.19370755567126
31
6.1606675956713013e-13
0
ARC
5
550
100
AcDbEntity
8
0
100
AcDbCircle
10
-82.104993821400001
20
32.1937075430045
30
3.7323331500086578e-12
40
1.0000000000000078
100
AcDbArc
50
0.0041517582422986319
51
90.002675610347026
0
LINE
5
551
100
AcDbEntity
8
0
100
AcDbLine
10
-81.104993824025357
20
32.193780004857373
30
3.732330975879366e-12
11
-81.104993815342382
21
20.193696093480046
31
2.114971753465846e-12
0
ARC
5
552
100
AcDbEntity
8
0
100
AcDbCircle
10
-82.104993821400001
20
20.193768575996302
30
6.8706006347007661e-12
40
1.0000000000000004
100
AcDbArc
50
269.99732378861205
51
359.99584705778619
0
LINE
5
553
100
AcDbEntity
8
0
100
AcDbLine
10
-82.105040530100183
20
19.193768577087155
30
6.8016002737955836e-12
11
-94.105005180946449
21
19.19376879045074
31
4.2393173231321073e-12
0
ARC
5
554
100
AcDbEntity
8
0
100
AcDbCircle
10
-94.105051911078803
20
20.193769208097201
30
6.1706397127757649e-12
40
0.99999999999999334
100
AcDbArc
50
180.00280484745414
51
270.0026774382398
0
LINE
5
555
100
AcDbEntity
8
0
100
AcDbLine
10
-95.105051909880558
20
20.193720254272833
30
6.1706363349706796e-12
11
-95.105051961010574
21
32.193755869818936
31
1.3051109382730397e-12
0
ARC
5
556
100
AcDbEntity
8
0
100
AcDbCircle
10
-94.105052000399994
20
32.1937075430045
30
3.7323331500086578e-12
40
1.0000000137582263
100
AcDbArc
50
89.997319330387754
51
179.99723107740732
0
LINE
5
557
100
AcDbEntity
8
0
100
AcDbLine
10
-75.055003245334262
20
33.19370733878992
30
-2.3973492599735061e-12
11
-63.055038352336396
21
33.193707608256666
31
5.1030785173934075e-13
0
ARC
5
558
100
AcDbEntity
8
0
100
AcDbCircle
10
-63.054991692787809
20
32.193707700763198
30
3.8320797500349619e-12
40
1.0000000000000018
100
AcDbArc
50
0.0041427194753887999
51
90.002673395453428
0
LINE
5
559
100
AcDbEntity
8
0
100
AcDbLine
10
-62.054991695401746
20
32.193780004858411
30
3.8320775805595869e-12
11
-62.054991696608965
21
20.193696093483272
31
2.0900596667282035e-12
0
ARC
5
560
100
AcDbEntity
8
0
100
AcDbCircle
10
-63.054991723400001
20
20.193768575996302
30
6.8706006347007661e-12
40
1.0000000000000004
100
AcDbArc
50
269.99732557051044
51
359.99584705804949
0
LINE
5
561
100
AcDbEntity
8
0
100
AcDbLine
10
-63.055038401000189
20
19.193768577085702
30
6.8016002737954818e-12
11
-75.055003211786385
21
19.193768579489312
31
1.0820898230820353e-12
0
ARC
5
562
100
AcDbEntity
8
0
100
AcDbCircle
10
-75.054930693399996
20
20.193768573996202
30
-6.0588933166015696e-13
40
1.0000000000000044
100
AcDbArc
50
180.00276855401279
51
269.99584500250722
0
LINE
5
563
100
AcDbEntity
8
0
100
AcDbLine
10
-76.054930692232574
20
20.193720253612504
30
-6.0588933166015746e-13
11
-76.054930750500986
21
32.193755882732958
31
-8.9495213790742529e-13
0
ARC
5
564
100
AcDbEntity
8
0
100
AcDbCircle
10
-75.054930815103802
20
32.193706893589201
30
-2.3678219539126772e-12
40
1.0000004478237852
100
AcDbArc
50
90.00414994465973
51
179.99719312866509
0
LINE
5
565
100
AcDbEntity
8
0
100
AcDbLine
10
-56.005001092466735
20
33.193707554460381
30
6.5631916946466456e-13
11
-44.00503639529542
21
33.193707555670017
31
6.6201036001163123e-13
0
ARC
5
566
100
AcDbEntity
8
0
100
AcDbCircle
10
-44.0049896254
20
32.1937075430045
30
3.7323331500086578e-12
40
0.99999999999999911
100
AcDbArc
50
0.0041517585934411428
51
90.002679717579923
0
LINE
5
567
100
AcDbEntity
8
0
100
AcDbLine
10
-43.004989628025363
20
32.193780004861793
30
3.7323309758792335e-12
11
-43.004989655942325
21
20.19369609281085
31
1.6796491403488425e-12
0
ARC
5
568
100
AcDbEntity
8
0
100
AcDbCircle
10
-44.0049896254
20
20.193768575996302
30
6.8706006347007661e-12
40
0.99999999999999933
100
AcDbArc
50
269.99732064307335
51
359.99584701925937
0
LINE
5
569
100
AcDbEntity
8
0
100
AcDbLine
10
-44.005036389000189
20
19.19376857708972
30
6.8016002737957589e-12
11
-56.00500108235795
21
19.193768579749978
31
4.1816979077787393e-12
0
ARC
5
570
100
AcDbEntity
8
0
100
AcDbCircle
10
-56.005047804399908
20
20.193768575996302
30
6.1706397121441672e-12
40
0.99999999999999734
100
AcDbArc
50
180.00276861930766
51
270.00267697582251
0
LINE
5
571
100
AcDbEntity
8
0
100
AcDbLine
10
-57.005047803232422
20
20.193720254474727
30
6.1706363779417366e-12
11
-57.005047801650981
21
32.193755852585191
31
1.3051109720323898e-12
0
ARC
5
572
100
AcDbEntity
8
0
100
AcDbCircle
10
-56.005047805120199
20
32.193707539377002
30
3.7323331500050333e-12
40
1.0000000161744114
100
AcDbArc
50
89.997323562148949
51
179.99723185701166
0
LINE
5
573
100
AcDbEntity
8
0
100
AcDbLine
10
-165.54248337688335
20
14.143705440167338
30
1.9690061634941864e-12
11
-153.54251849351763
21
14.143705101887274
31
3.5124930875842212e-13
0
ARC
5
574
100
AcDbEntity
8
0
100
AcDbCircle
10
-153.54247199073299
20
13.143704430140202
30
-8.6613400986115729e-14
40
1.000000000000014
100
AcDbArc
50
0.004210923451197301
51
90.002664411503829
0
LINE
5
575
100
AcDbEntity
8
0
100
AcDbLine
10
-152.54247199343371
20
13.14377792462075
30
-8.6616195729803999e-14
11
-152.5424718607635
21
1.1438131843907939
31
-5.8524646790862942e-13
0
ARC
5
576
100
AcDbEntity
8
0
100
AcDbCircle
10
-153.5424718884
20
1.1437664779971699
30
-2.8490078188150237e-12
40
1.0000000000000004
100
AcDbArc
50
-90.0026744066258
51
0.0026760790997248547
0
LINE
5
577
100
AcDbEntity
8
0
100
AcDbLine
10
-153.54251856560114
20
0.14376647908655005
30
-2.8150072387229188e-12
11
-165.54248338217846
21
0.14376649359692475
31
-3.5392673055481641e-13
0
ARC
5
578
100
AcDbEntity
8
0
100
AcDbCircle
10
-165.54253006440004
20
1.1437664779971699
30
-5.1986907670256129e-12
40
1
100
AcDbArc
50
179.99910871919619
51
270.00267469431463
0
LINE
5
579
100
AcDbEntity
8
0
100
AcDbLine
10
-166.54253006427905
20
1.1437820337855618
30
-5.198691295931443e-12
11
-166.54253008459926
21
13.143753773376314
31
9.4517493292457093e-13
0
ARC
5
580
100
AcDbEntity
8
0
100
AcDbCircle
10
-165.54253006639999
20
13.143705444995399
30
-1.8635999984073161e-13
40
0.99999999626189395
100
AcDbArc
50
89.997324887738245
51
179.99723098790247
0
LINE
5
581
100
AcDbEntity
8
0
100
AcDbLine
10
-141.72995087845257
20
14.143705440166157
30
1.9671557917811054e-12
11
-129.72998618696076
21
14.143705439870466
31
3.860776638715767e-13
0
ARC
5
582
100
AcDbEntity
8
0
100
AcDbCircle
10
-129.7300586714
20
13.143705445995399
30
-2.8864570901976328e-12
40
0.99999999999999201
100
AcDbArc
50
0.0041527009529554008
51
89.995846947532826
0
LINE
5
583
100
AcDbEntity
8
0
100
AcDbLine
10
-128.73005867402657
20
13.143777924300053
30
-2.8864592648205407e-12
11
-128.73005867836369
21
1.1438131910965121
31
2.7546187073244629e-12
0
ARC
5
584
100
AcDbEntity
8
0
100
AcDbCircle
10
-129.73005867239999
20
1.14376647599718
30
3.2511472844554167e-12
40
1.0000000000000002
100
AcDbArc
50
-89.995847001261524
51
0.0026765780663843487
0
LINE
5
585
100
AcDbEntity
8
0
100
AcDbLine
10
-129.72998618889824
20
0.14376647862410885
30
3.2851478644952456e-12
11
-141.72995086818844
21
0.14376649359846963
31
9.8393485074273509e-13
0
ARC
5
586
100
AcDbEntity
8
0
100
AcDbCircle
10
-141.72999763940001
20
1.1437664779971699
30
-2.3485400959957241e-12
40
1
100
AcDbArc
50
179.99910871919619
51
270.00267979306562
0
LINE
5
587
100
AcDbEntity
8
0
100
AcDbLine
10
-142.72999763927902
20
1.1437820337867466
30
-2.3485406249015937e-12
11
-142.72999761386563
21
13.14375378372447
31
9.4517451189730207e-13
0
ARC
5
588
100
AcDbEntity
8
0
100
AcDbCircle
10
-141.72999764139999
20
13.143705444995399
30
-1.8635999984073161e-13
40
0.99999999626414382
100
AcDbArc
50
89.997320680464256
51
179.99723039474273
0
LINE
5
589
100
AcDbEntity
8
0
100
AcDbLine
10
-122.67994887117149
20
14.143705440167606
30
1.969653793591875e-12
11
-110.67998405768081
21
14.143705440168823
31
1.9697344727128643e-12
0
ARC
5
590
100
AcDbEntity
8
0
100
AcDbCircle
10
-110.6799373634
20
13.143705444995399
30
-1.8635999984073161e-13
40
0.99999999999999933
100
AcDbArc
50
0.0041527769573589494
51
90.002675385228883
0
LINE
5
591
100
AcDbEntity
8
0
100
AcDbLine
10
-109.67993736602665
20
13.143777924628184
30
-1.8636275588881288e-13
11
-109.67993734936351
21
1.1438131843910648
31
-6.1153666127641361e-13
0
ARC
5
592
100
AcDbEntity
8
0
100
AcDbCircle
10
-110.67993736540001
20
1.1437664779971699
30
-2.8490078188150237e-12
40
1
100
AcDbArc
50
-90.002675409301119
51
0.0026760792359184038
0
LINE
5
593
100
AcDbEntity
8
0
100
AcDbLine
10
-110.67998406010113
20
0.14376647908736745
30
-2.8150072387229463e-12
11
-122.67994887628335
21
0.14376649359666169
31
-3.560133962003133e-13
0
ARC
5
594
100
AcDbEntity
8
0
100
AcDbCircle
10
-122.67999554140002
20
1.1437664779971699
30
-5.1986907670256129e-12
40
1
100
AcDbArc
50
179.99910871919619
51
270.00267371427549
0
LINE
5
595
100
AcDbEntity
8
0
100
AcDbLine
10
-123.67999554127903
20
1.1437820337852596
30
-5.1986912959314325e-12
11
-123.67999557326613
21
13.143753783721683
31
9.4517451189736871e-13
0
ARC
5
596
100
AcDbEntity
8
0
100
AcDbCircle
10
-122.67999554340001
20
13.143705444995399
30
-1.8635999984073161e-13
40
0.99999999626135572
100
AcDbArc
50
89.99732587827431
51
179.9972303952691
0
LINE
5
597
100
AcDbEntity
8
0
100
AcDbLine
10
-103.6299467421763
20
14.143705440167125
30
1.967063273206362e-12
11
-91.629982050874986
21
14.143705439871972
31
1.8583282471522038e-12
0
ARC
5
598
100
AcDbEntity
8
0
100
AcDbCircle
10
-91.630054475400001
20
13.143705445995399
30
-3.9436080803619476e-13
40
1.0000000000000095
100
AcDbArc
50
0.0041527007774239903
51
89.995850380365226
0
LINE
5
599
100
AcDbEntity
8
0
100
AcDbLine
10
-90.630054478026537
20
13.143777924297524
30
-3.9436080803619476e-13
11
-90.630054440830193
21
1.1438131841606114
31
2.0023755793718992e-12
0
ARC
5
600
100
AcDbEntity
8
0
100
AcDbCircle
10
-91.630054476400019
20
1.14376647599718
30
3.2511472844554167e-12
40
1.0000000000000002
100
AcDbArc
50
-89.995850152526245
51
0.0026761805619980998
0
LINE
5
601
100
AcDbEntity
8
0
100
AcDbLine
10
-91.62998204789821
20
0.14376647862012371
30
3.2851478644953818e-12
11
-103.62994674657642
21
0.14376649359715896
31
2.2002650497271361e-12
0
ARC
5
602
100
AcDbEntity
8
0
100
AcDbCircle
10
-103.6299934434
20
1.1437664779971699
30
-3.8888721200307001e-14
40
1
100
AcDbArc
50
179.99910871919619
51
270.00267553094727
0
LINE
5
603
100
AcDbEntity
8
0
100
AcDbLine
10
-104.62999344327901
20
1.1437820337878866
30
-3.8888721200307001e-14
11
-104.62999345449978
21
13.143753770617836
31
9.4517496831914062e-13
0
ARC
5
604
100
AcDbEntity
8
0
100
AcDbCircle
10
-103.6299934454
20
13.143705444995399
30
-1.8635999984073161e-13
40
0.99999999626232083
100
AcDbArc
50
89.997324102381228
51
179.99723114585416
0
LINE
5
605
100
AcDbEntity
8
0
100
AcDbLine
10
-84.580063820508485
20
14.143705439871921
30
8.4426003394081883e-13
11
-72.579979921248523
21
14.143705439870606
31
8.9683351873812073e-13
0
ARC
5
606
100
AcDbEntity
8
0
100
AcDbCircle
10
-72.580052376400005
20
13.143705445995399
30
-2.8864570901976328e-12
40
1.0000000000000011
100
AcDbArc
50
0.0041527009529554008
51
89.995848625597944
0
LINE
5
607
100
AcDbEntity
8
0
100
AcDbLine
10
-71.580052379026554
20
13.143777924302038
30
-2.8864592648205997e-12
11
-71.580052400230343
21
1.1438131874510193
31
2.5183025009109227e-12
0
ARC
5
608
100
AcDbEntity
8
0
100
AcDbCircle
10
-72.580052378399998
20
1.14376647599718
30
3.2511472844554167e-12
40
1.0000000000000004
100
AcDbArc
50
-89.995848364899402
51
0.0026763691762703248
0
LINE
5
609
100
AcDbEntity
8
0
100
AcDbLine
10
-72.579979918698214
20
0.14376647862238384
30
3.285147864495305e-12
11
-84.580063820422936
21
0.14376649334254565
31
2.6889752805651199e-12
0
ARC
5
610
100
AcDbEntity
8
0
100
AcDbCircle
10
-84.579991345400018
20
1.14376647599718
30
9.0146433624482769e-13
40
1.0000000000000031
100
AcDbArc
50
179.99910864232208
51
269.99584748700192
0
LINE
5
611
100
AcDbEntity
8
0
100
AcDbLine
10
-85.579991345279012
20
1.1437820331234756
30
9.0146380729350799e-13
11
-85.579991335732814
21
13.143753773717641
31
6.2034817773631471e-13
0
ARC
5
612
100
AcDbEntity
8
0
100
AcDbCircle
10
-84.579991347399996
20
13.143705445995399
30
-2.8864570901976328e-12
40
0.99999999650269722
100
AcDbArc
50
90.004152403262751
51
179.99723102554682
0
LINE
5
613
100
AcDbEntity
8
0
100
AcDbLine
10
-65.529942478124525
20
14.143705440166039
30
1.9671557917797201e-12
11
-53.529977787148944
21
14.143705439870303
31
5.7395122531140775e-13
0
ARC
5
614
100
AcDbEntity
8
0
100
AcDbCircle
10
-53.530050278399997
20
13.143705445995399
30
-2.8864570901976328e-12
40
1.0000000000000011
100
AcDbArc
50
0.0041527009529554008
51
89.995846557244846
0
LINE
5
615
100
AcDbEntity
8
0
100
AcDbLine
10
-52.530050281026554
20
13.143777924300824
30
-2.8864592648205641e-12
11
-52.530050281497019
21
1.143813192069163
31
2.7743117245027658e-12
0
ARC
5
616
100
AcDbEntity
8
0
100
AcDbCircle
10
-53.530050280399905
20
1.14376647599718
30
3.2511472844554167e-12
40
0.99999999999999989
100
AcDbArc
50
-89.995846583005871
51
0.0026766336224184686
0
LINE
5
617
100
AcDbEntity
8
0
100
AcDbLine
10
-53.529977789598213
20
0.14376647862463815
30
3.2851478644952283e-12
11
-65.529942470729125
21
0.14376649359853966
31
1.0399906879111652e-12
0
ARC
5
618
100
AcDbEntity
8
0
100
AcDbCircle
10
-65.529989247399996
20
1.1437664779971699
30
-2.3485400959957241e-12
40
1
100
AcDbArc
50
179.99910871919619
51
270.00268010586041
0
LINE
5
619
100
AcDbEntity
8
0
100
AcDbLine
10
-66.529989247279005
20
1.1437820337868745
30
-2.3485406249015982e-12
11
-66.529989216421612
21
13.143753783724677
31
9.4517451189729702e-13
0
ARC
5
620
100
AcDbEntity
8
0
100
AcDbCircle
10
-65.5299892484
20
13.143705444995399
30
-1.8635999984073161e-13
40
0.99999999626436897
100
AcDbArc
50
89.997320260597647
51
179.99723039474273
0
LINE
5
621
100
AcDbEntity
8
0
100
AcDbLine
10
-136.9675398495005
20
-4.9062966462820325
30
1.5621180235396703e-13
11
-124.96745581987889
21
-4.9062966462835691
31
-1.4859639086976148e-12
0
ARC
5
622
100
AcDbEntity
8
0
100
AcDbCircle
10
-124.96752834440001
20
-5.906296652003701
30
1.7721121134312965e-13
40
1.0000000000000011
100
AcDbArc
50
0.0041537190858357007
51
89.995844651059912
0
LINE
5
623
100
AcDbEntity
8
0
100
AcDbLine
10
-123.96752834702784
20
-5.9062241559296922
30
1.7721121134312864e-13
11
-123.9675283266761
21
-17.906308119851474
31
-1.7605965343309519e-12
0
ARC
5
624
100
AcDbEntity
8
0
100
AcDbCircle
10
-124.96752834440001
20
-17.906235622001901
30
5.7303855437979525e-13
40
0.99999999999999933
100
AcDbArc
50
270.00415506699835
51
359.99584617939536
0
LINE
5
625
100
AcDbEntity
8
0
100
AcDbLine
10
-124.96745582480031
20
-18.906235619372357
30
5.7303855437979626e-13
11
-136.96753984678926
21
-18.906235622156519
31
8.7270424226281724e-13
0
ARC
5
626
100
AcDbEntity
8
0
100
AcDbCircle
10
-136.96746731440001
20
-17.906235622001901
30
2.8221523770333745e-13
40
1.0000000000000056
100
AcDbArc
50
180.00276903947488
51
269.99584420022569
0
LINE
5
627
100
AcDbEntity
8
0
100
AcDbLine
10
-137.96746731323219
20
-17.906283950859322
30
2.8221678433206784e-13
11
-137.96746734001027
21
-5.9062483023565449
31
1.3008403596770324e-12
0
ARC
5
628
100
AcDbEntity
8
0
100
AcDbCircle
10
-136.96746731440001
20
-5.906296652003701
30
3.4939030368272869e-12
40
1.0000000083523384
100
AcDbArc
50
90.004155955093339
51
179.99722976934484
0
LINE
5
629
100
AcDbEntity
8
0
100
AcDbLine
10
-117.91753771976275
20
-4.9062966462812625
30
1.7138485035715461e-13
11
-105.91745381795738
21
-4.9062966462811257
31
-1.4859869120027312e-12
0
ARC
5
630
100
AcDbEntity
8
0
100
AcDbCircle
10
-105.91752624640002
20
-5.906296652003701
30
1.7721121134312965e-13
40
1.0000000000000016
100
AcDbArc
50
0.0041537194368124492
51
89.995850155951274
0
LINE
5
631
100
AcDbEntity
8
0
100
AcDbLine
10
-104.91752624902786
20
-5.9062241559234536
30
1.7721121134312965e-13
11
-104.9175262860763
21
-17.906308124956432
31
-2.2206159545916585e-12
0
ARC
5
632
100
AcDbEntity
8
0
100
AcDbCircle
10
-105.91752624640002
20
-17.906235622001901
30
5.7303855437979525e-13
40
0.99999999999999856
100
AcDbArc
50
270.00415013382832
51
359.99584588661048
0
LINE
5
633
100
AcDbEntity
8
0
100
AcDbLine
10
-105.91745381290038
20
-18.906235619378595
30
5.7303855437979525e-13
11
-117.9175377171839
21
-18.906235622157283
31
8.7211770882903385e-13
0
ARC
5
634
100
AcDbEntity
8
0
100
AcDbCircle
10
-117.9174652164
20
-17.906235622001901
30
2.8221523770333745e-13
40
1.0000000000000058
100
AcDbArc
50
180.00276903973813
51
269.99584601107904
0
LINE
5
635
100
AcDbEntity
8
0
100
AcDbLine
10
-118.91746521523217
20
-17.906283950865497
30
2.8221678433226575e-13
11
-118.91746522127718
21
-5.906248311104858
31
1.3008405701797379e-12
0
ARC
5
636
100
AcDbEntity
8
0
100
AcDbCircle
10
-117.9174652164
20
-5.906296652003701
30
3.4939030368272869e-12
40
1.0000000083508072
100
AcDbArc
50
90.004154136654734
51
179.99723027065193
0
LINE
5
637
100
AcDbEntity
8
0
100
AcDbLine
10
-60.767531449172047
20
-4.9062966462818238
30
1.5621180234492479e-13
11
-48.767566629662326
21
-4.9062966459839492
31
-2.1378070505628674e-12
0
ARC
5
638
100
AcDbEntity
8
0
100
AcDbCircle
10
-48.767519951400004
20
-5.9062966530037198
30
-1.2557698403982124e-12
40
1
100
AcDbArc
50
0.0041537954225802079
51
90.002674467405342
0
LINE
5
639
100
AcDbEntity
8
0
100
AcDbLine
10
-47.767519954027939
20
-5.906224155595047
30
-1.2557648380508442e-12
11
-47.767519929276162
21
-17.906308119851371
31
-1.760596534359398e-12
0
ARC
5
640
100
AcDbEntity
8
0
100
AcDbCircle
10
-48.767519951400004
20
-17.906235620001901
30
5.7303855431579073e-13
40
1.0000000000000004
100
AcDbArc
50
269.9973251751922
51
359.99584606480585
0
LINE
5
641
100
AcDbEntity
8
0
100
AcDbLine
10
-48.767566635899797
20
-18.906235618912181
30
5.7303855431579073e-13
11
-60.767531446810253
21
-18.906235622156714
31
8.7270424226352002e-13
0
ARC
5
642
100
AcDbEntity
8
0
100
AcDbCircle
10
-60.76745892240011
20
-17.906235622001901
30
2.8221523770333745e-13
40
0.99999999999999667
100
AcDbArc
50
180.00276903973813
51
269.99584465739508
0
LINE
5
643
100
AcDbEntity
8
0
100
AcDbLine
10
-61.767458921232262
20
-17.906283950863347
30
2.8221678433219607e-13
11
-61.767458943143652
21
-5.9062483023563184
31
1.300840358915893e-12
0
ARC
5
644
100
AcDbEntity
8
0
100
AcDbCircle
10
-60.76745892240011
20
-5.906296652003701
30
3.4939030368272869e-12
40
1.0000000083519429
100
AcDbArc
50
90.004155477902671
51
179.99722976934484
0
LINE
5
645
100
AcDbEntity
8
0
100
AcDbLine
10
-79.817533451776995
20
-4.9062966462794062
30
1.6000506435469122e-13
11
-67.817449550954223
21
-4.9062966462829474
31
1.5326016947301946e-13
0
ARC
5
646
100
AcDbEntity
8
0
100
AcDbCircle
10
-67.817522050400001
20
-5.906296652003701
30
3.4939030368272869e-12
40
1.0000000000000011
100
AcDbArc
50
0.0041537190858357007
51
89.995846087770914
0
LINE
5
647
100
AcDbEntity
8
0
100
AcDbLine
10
-66.817522053027844
20
-5.9062241559294897
30
3.4939008616712256e-12
11
-66.817522048542514
21
-17.906308112687725
31
-1.5310317423303862e-12
0
ARC
5
648
100
AcDbEntity
8
0
100
AcDbCircle
10
-67.817522050400001
20
-17.906235622001901
30
5.7303855437979525e-13
40
1.0000000000000011
100
AcDbArc
50
270.00415370335315
51
359.99584658969746
0
LINE
5
649
100
AcDbEntity
8
0
100
AcDbLine
10
-67.817449554600401
20
-18.906235619374083
30
5.7303855437979525e-13
11
-79.81753345493442
21
-18.906235622158935
31
1.0020727518931185e-12
0
ARC
5
650
100
AcDbEntity
8
0
100
AcDbCircle
10
-79.817461020400003
20
-17.906235622001901
30
5.7303855437979525e-13
40
1.0000000000000058
100
AcDbArc
50
180.00276904000137
51
269.9958498068948
0
LINE
5
651
100
AcDbEntity
8
0
100
AcDbLine
10
-80.817461019232169
20
-17.906283950869721
30
5.7303855437979525e-13
11
-80.817460983743246
21
-5.9062482868119837
31
1.3008384503565121e-12
0
ARC
5
652
100
AcDbEntity
8
0
100
AcDbCircle
10
-79.817461020400003
20
-5.906296652003701
30
3.4939030368272869e-12
40
1.0000000083474463
100
AcDbArc
50
90.004150012174961
51
179.99722887853156
0
LINE
5
653
100
AcDbEntity
8
0
100
AcDbLine
10
-133.20505619847731
20
44.006252669142299
30
8.7961329396389244e-13
11
-133.20505619828182
21
56.006224407598751
31
-2.5530991337581423e-13
0
ARC
5
654
100
AcDbEntity
8
0
100
AcDbCircle
10
-132.2050561954
20
56.006239967999704
30
-1.6803987457974326e-12
40
1.0000000000000018
100
AcDbArc
50
89.997323421969497
51
180.00089154492858
0
LINE
5
655
100
AcDbEntity
8
0
100
AcDbLine
10
-132.2050094803007
20
57.006239966908552
30
-1.6803987457974326e-12
11
-120.20504479387766
21
57.006239975545228
31
1.6877750201165103e-12
0
ARC
5
656
100
AcDbEntity
8
0
100
AcDbCircle
10
-120.20499801939999
20
56.006239967999704
30
3.0058587462442656e-12
40
0.99999999999999478
100
AcDbArc
50
-0.0026771793174592559
51
90.002679980137074
0
LINE
5
657
100
AcDbEntity
8
0
100
AcDbLine
10
-119.20499802049164
20
56.00619324240364
30
3.0058601481886408e-12
11
-119.2049980530763
21
44.006228497890305
31
1.5890426669206339e-12
0
ARC
5
658
100
AcDbEntity
8
0
100
AcDbCircle
10
-120.20499801740002
20
44.006301001001511
30
-1.3203552501320849e-12
40
0.99999999999999978
100
AcDbArc
50
269.99732020191692
51
359.99584587757369
0
LINE
5
659
100
AcDbEntity
8
0
100
AcDbLine
10
-120.20504478869984
20
43.006301002095285
30
-1.3203552501320849e-12
11
-132.20500948241369
21
43.006300999628316
31
2.8521858603553293e-12
0
ARC
5
660
100
AcDbEntity
8
0
100
AcDbCircle
10
-132.20505619639999
20
44.006301001001511
30
6.4418545035195334e-13
40
1.000000003245288
100
AcDbArc
50
180.00276921136705
51
270.00267651425406
0
LINE
5
661
100
AcDbEntity
8
0
100
AcDbLine
10
-113.15500734722322
20
57.006239975547395
30
-6.3408348988268583e-13
11
-101.15504266266115
21
57.006239975545732
31
1.5879383101169399e-12
0
ARC
5
662
100
AcDbEntity
8
0
100
AcDbCircle
10
-101.15499592040001
20
56.006239967999704
30
3.0058587462442656e-12
40
0.99999999999999478
100
AcDbArc
50
-0.0026771793174592559
51
90.002678134265693
0
LINE
5
663
100
AcDbEntity
8
0
100
AcDbLine
10
-100.15499592149166
20
56.006193242405203
30
3.0058601481885944e-12
11
-100.15499593434278
21
44.006228502638919
31
2.3201078646731912e-13
0
ARC
5
664
100
AcDbEntity
8
0
100
AcDbCircle
10
-101.15499591940001
20
44.006301001001511
30
-1.3203552501320849e-12
40
0.99999999999999334
100
AcDbArc
50
269.99732198381571
51
359.99584614973867
0
LINE
5
665
100
AcDbEntity
8
0
100
AcDbLine
10
-101.15504265959983
20
43.006301002093835
30
-1.3203552501320849e-12
11
-113.15500734911821
21
43.006300999628905
31
2.8521858603553111e-12
0
ARC
5
666
100
AcDbEntity
8
0
100
AcDbCircle
10
-113.1550540984
20
44.006301001001511
30
6.4418545035195334e-13
40
1.0000000000000104
100
AcDbArc
50
180.00276906645712
51
270.00267853653639
0
LINE
5
667
100
AcDbEntity
8
0
100
AcDbLine
10
-114.15505409723215
20
44.006252671673224
30
6.441869004143528e-13
11
-114.15505407954852
21
56.006224413462959
31
-2.5530990648745253e-13
0
ARC
5
668
100
AcDbEntity
8
0
100
AcDbCircle
10
-113.1550540974
20
56.006239967999704
30
-1.6803987457974326e-12
40
1.0000000086404817
100
AcDbArc
50
89.997321412201259
51
180.00089120923948
0
LINE
5
669
100
AcDbEntity
8
0
100
AcDbLine
10
-94.105005216592446
20
57.006239975546869
30
-6.3621141734655055e-13
11
-82.105040522913626
21
57.006239975546471
31
1.6570560318274794e-12
0
ARC
5
670
100
AcDbEntity
8
0
100
AcDbCircle
10
-82.104993822400004
20
56.006239967999704
30
3.0058587462442656e-12
40
1.0000000000000124
100
AcDbArc
50
-0.0026771791813315154
51
90.002675742309464
0
LINE
5
671
100
AcDbEntity
8
0
100
AcDbLine
10
-81.104993823491625
20
56.006193242406852
30
3.0058601481885447e-12
11
-81.104993815342667
21
44.006228507908808
31
-3.6379010541641699e-13
0
ARC
5
672
100
AcDbEntity
8
0
100
AcDbCircle
10
-82.104993821400001
20
44.006301001001511
30
-1.3203552501320849e-12
40
0.99999999999999589
100
AcDbArc
50
269.9973237886324
51
359.9958464517556
0
LINE
5
673
100
AcDbEntity
8
0
100
AcDbLine
10
-82.105040530099828
20
43.006301002092364
30
-1.3203552501320849e-12
11
-94.105005180946506
21
43.006301210444249
31
2.9570159354372482e-12
0
ARC
5
674
100
AcDbEntity
8
0
100
AcDbCircle
10
-94.105051866968097
20
44.006301633449603
30
6.4418545098389529e-13
40
1.0000000000000133
100
AcDbArc
50
180.00280530714778
51
270.00267491086595
0
LINE
5
675
100
AcDbEntity
8
0
100
AcDbLine
10
-95.105051865769482
20
44.006252671600016
30
6.4418692015667308e-13
11
-95.105051960781907
21
56.0062244187407
31
-2.5530989132901339e-13
0
ARC
5
676
100
AcDbEntity
8
0
100
AcDbCircle
10
-94.105051999400018
20
56.006239967999704
30
-1.6803987457974326e-12
40
1.0000000086414838
100
AcDbArc
50
89.997319542594497
51
180.00089090656118
0
LINE
5
677
100
AcDbEntity
8
0
100
AcDbLine
10
-75.055003214205016
20
57.006239975248327
30
2.0188833636579958e-12
11
-63.055038352176247
21
57.006240131608223
31
1.7934196832445096e-12
0
ARC
5
678
100
AcDbEntity
8
0
100
AcDbCircle
10
-63.054991597673705
20
56.006240436188399
30
3.2062193081874002e-12
40
0.99999999999999856
100
AcDbArc
50
-0.0027040047911416447
51
90.002678836482829
0
LINE
5
679
100
AcDbEntity
8
0
100
AcDbLine
10
-62.054991598787332
20
56.006193242400585
30
3.2062207240998874e-12
11
-62.054991696609456
21
44.006228502644369
31
2.3201078646750996e-13
0
ARC
5
680
100
AcDbEntity
8
0
100
AcDbCircle
10
-63.054991723400001
20
44.006301001001511
30
-1.3203552501320849e-12
40
1.0000000000000004
100
AcDbArc
50
269.99732557053079
51
359.99584615026509
0
LINE
5
681
100
AcDbEntity
8
0
100
AcDbLine
10
-63.055038400999834
20
43.006301002090908
30
-1.3203552501320849e-12
11
-75.055003211786044
21
43.006300999374439
31
4.2650064807274379e-12
0
ARC
5
682
100
AcDbEntity
8
0
100
AcDbCircle
10
-75.054930693399996
20
44.006300999001404
30
3.0364506491019165e-12
40
1.0000000000000031
100
AcDbArc
50
180.00276899446001
51
269.99584500254804
0
LINE
5
683
100
AcDbEntity
8
0
100
AcDbLine
10
-76.054930692232205
20
44.006252670927701
30
3.0364506491019165e-12
11
-76.054930709170662
21
56.00622441380338
31
3.1501724083552313e-12
0
ARC
5
684
100
AcDbEntity
8
0
100
AcDbCircle
10
-75.054930691400003
20
56.006239968999701
30
3.0809901149213498e-12
40
1.0000000088784033
100
AcDbArc
50
90.004155250612456
51
180.00089124686261
0
LINE
5
685
100
AcDbEntity
8
0
100
AcDbLine
10
-70.292472847833153
20
-23.956298761479452
30
1.3700727948026948e-12
11
-58.292508160645198
21
-23.956298761479871
31
1.5559228053235776e-12
0
ARC
5
686
100
AcDbEntity
8
0
100
AcDbCircle
10
-58.2924613964
20
-24.956298751000805
30
2.9992889816446712e-13
40
0.99999999999999856
100
AcDbArc
50
0.0041522917690871557
51
90.002679393908096
0
LINE
5
687
100
AcDbEntity
8
0
100
AcDbLine
10
-57.292461399026038
20
-24.956226279837381
30
2.9992889816446611e-13
11
-57.292461428585213
21
-36.956190957958519
31
2.9724113945633448e-12
0
ARC
5
688
100
AcDbEntity
8
0
100
AcDbCircle
10
-58.2924614150906
20
-36.956237106376605
30
5.1298064300361113e-13
40
0.99999999999999845
100
AcDbArc
50
-90.0026779406424
51
0.0026441095526085119
0
LINE
5
689
100
AcDbEntity
8
0
100
AcDbLine
10
-58.292508153971966
20
-37.956237105284337
30
5.2397185093538284e-13
11
-70.292472846688611
21
-37.956237708049827
31
1.6074478166139655e-12
0
ARC
5
690
100
AcDbEntity
8
0
100
AcDbCircle
10
-70.292519574400004
20
-36.956237718000999
30
3.6292706172047504e-13
40
1.0000000000000029
100
AcDbArc
50
179.99910668263564
51
270.00267730067378
0
LINE
5
691
100
AcDbEntity
8
0
100
AcDbLine
10
-71.292519574278458
20
-36.956222126664642
30
3.6292689035285563e-13
11
-71.292519568388869
21
-24.956250432108241
31
-1.6804314116817913e-12
0
ARC
5
692
100
AcDbEntity
8
0
100
AcDbCircle
10
-70.292519575399993
20
-24.956298751000805
30
2.9992889816446712e-13
40
0.99999999061308464
100
AcDbArc
50
89.997322707607054
51
179.99723153155742
0
LINE
5
693
100
AcDbEntity
8
0
100
AcDbLine
10
-89.342474980690412
20
-23.95629876147888
30
1.5606610806966793e-12
11
-77.342510290575774
21
-23.956298761480372
31
2.888080278157893e-12
0
ARC
5
694
100
AcDbEntity
8
0
100
AcDbCircle
10
-77.342463494399993
20
-24.956298751000805
30
2.9752678998914488e-12
40
0.999999999999998
100
AcDbArc
50
0.0041522914179897329
51
90.002681223395726
0
LINE
5
695
100
AcDbEntity
8
0
100
AcDbLine
10
-76.342463497026031
20
-24.956226279843548
30
2.9752670289211782e-12
11
-76.342463469753909
21
-36.9561909477885
31
2.6520872365143762e-12
0
ARC
5
696
100
AcDbEntity
8
0
100
AcDbCircle
10
-77.342463514197902
20
-36.956237064355697
30
5.1298064304559822e-13
40
1.0000000000000027
100
AcDbArc
50
-90.002679681903373
51
0.0026422846071281858
0
LINE
5
697
100
AcDbEntity
8
0
100
AcDbLine
10
-77.342510283470006
20
-37.956237063262023
30
5.2397185097736286e-13
11
-89.342474979124319
21
-37.956237708050388
31
2.1868968547670214e-12
0
ARC
5
698
100
AcDbEntity
8
0
100
AcDbCircle
10
-89.342521672400011
20
-36.956237718000999
30
1.263248545752446e-12
40
1.0000000000000029
100
AcDbArc
50
179.99910668263564
51
270.00267532765349
0
LINE
5
699
100
AcDbEntity
8
0
100
AcDbLine
10
-90.342521672278465
20
-36.956222126665132
30
1.2632483743848306e-12
11
-90.34252168715534
21
-24.95625043210925
31
-1.6804314118460002e-12
0
ARC
5
700
100
AcDbEntity
8
0
100
AcDbCircle
10
-89.3425216734
20
-24.956298751000805
30
2.9992889816446712e-13
40
0.99999999061202927
100
AcDbArc
50
89.997324704780453
51
179.99723153155742
0
LINE
5
701
100
AcDbEntity
8
0
100
AcDbLine
10
-108.39247698054832
20
-23.9562987614805
30
1.562233896648232e-12
11
-96.3925122892568
21
-23.95629876147872
31
2.8747775775718207e-12
0
ARC
5
702
100
AcDbEntity
8
0
100
AcDbCircle
10
-96.392465592400001
20
-24.956298751000805
30
2.9752678998914488e-12
40
1.0000000000000071
100
AcDbArc
50
0.0041522915935384482
51
90.002675532837216
0
LINE
5
703
100
AcDbEntity
8
0
100
AcDbLine
10
-95.392465595026025
20
-24.956226279841296
30
2.9752670289211507e-12
11
-95.392465588540304
21
-36.956190953891344
31
2.8927961607543684e-12
0
ARC
5
704
100
AcDbEntity
8
0
100
AcDbCircle
10
-96.392465612159199
20
-36.956237027550102
30
5.1298064308237403e-13
40
1.0000000000000002
100
AcDbArc
50
-90.002674750862582
51
0.0026398261433483771
0
LINE
5
705
100
AcDbEntity
8
0
100
AcDbLine
10
-96.392512295368405
20
-37.956237026460443
30
5.2397185101418512e-13
11
-108.39247698054835
21
-37.956237708048803
31
1.7601099415116174e-12
0
ARC
5
706
100
AcDbEntity
8
0
100
AcDbCircle
10
-108.3925237704
20
-36.956237718000999
30
4.0619369441392353e-13
40
1.0000000000000029
100
AcDbArc
50
179.99910668263564
51
270.00268086104842
0
LINE
5
707
100
AcDbEntity
8
0
100
AcDbLine
10
-109.39252377027847
20
-36.956222126665345
30
4.0619369441392353e-13
11
-109.3925238059218
21
-24.956250423033801
31
-1.6804314061042665e-12
0
ARC
5
708
100
AcDbEntity
8
0
100
AcDbCircle
10
-108.39252377139999
20
-24.956298751000805
30
2.9992889816446712e-13
40
0.99999999061499567
100
AcDbArc
50
89.997319081653373
51
179.99723101159466
0
LINE
5
709
100
AcDbEntity
8
0
100
AcDbLine
10
-127.4424791098145
20
-23.956298761480035
30
2.8365501588880768e-12
11
-115.44251442500082
21
-23.95629876147936
31
2.3559722705553358e-12
0
ARC
5
710
100
AcDbEntity
8
0
100
AcDbCircle
10
-115.44246769040001
20
-24.956298751000805
30
2.9752678998914488e-12
40
1.0000000000000073
100
AcDbArc
50
0.0041522915935384482
51
90.002677695410043
0
LINE
5
711
100
AcDbEntity
8
0
100
AcDbLine
10
-114.44246769302603
20
-24.95622627983904
30
2.9752670289211237e-12
11
-114.44246770725977
21
-36.9561909636883
31
3.0116417628150036e-12
0
ARC
5
712
100
AcDbEntity
8
0
100
AcDbCircle
10
-115.44246771012
20
-36.956236990911798
30
5.1298064311898324e-13
40
1.0000000000000024
100
AcDbArc
50
-90.002676540638973
51
0.0026371655536153536
0
LINE
5
713
100
AcDbEntity
8
0
100
AcDbLine
10
-115.4425144245667
20
-37.956236989820681
30
5.2397185105076605e-13
11
-127.44247910947374
21
-37.956237708049287
31
1.6978993394593872e-12
0
ARC
5
714
100
AcDbEntity
8
0
100
AcDbCircle
10
-127.4425258684
20
-36.956237718000999
30
3.6292706172047504e-13
40
1.0000000000000029
100
AcDbArc
50
179.99910668263564
51
270.00267908915401
0
LINE
5
715
100
AcDbEntity
8
0
100
AcDbLine
10
-128.44252586827847
20
-36.956222126664272
30
3.6292689035285058e-13
11
-128.44252584706581
21
-24.956250420759037
31
-3.427620273656374e-13
0
ARC
5
716
100
AcDbEntity
8
0
100
AcDbCircle
10
-127.44252587040002
20
-24.956298751000805
30
2.9752678998914488e-12
40
0.99999999061404621
100
AcDbArc
50
89.997320815776064
51
179.99723088115854
0
LINE
5
717
100
AcDbEntity
8
0
100
AcDbLine
10
-17.904996813024773
20
33.193707553553736
30
6.6779147405160125e-13
11
-5.9050321214199126
21
33.193707555671331
31
6.5052446011363875e-13
0
ARC
5
718
100
AcDbEntity
8
0
100
AcDbCircle
10
-5.9049854284000203
20
32.1937075430045
30
3.7323331500086578e-12
40
1.0000000000000011
100
AcDbArc
50
0.0041517582422986319
51
90.002675312936731
0
LINE
5
719
100
AcDbEntity
8
0
100
AcDbLine
10
-4.9049854310253789
20
32.193780004856848
30
3.7323309758793805e-12
11
-4.9049854178756629
21
20.193696093480241
31
2.1149717534658609e-12
0
ARC
5
720
100
AcDbEntity
8
0
100
AcDbCircle
10
-5.9049854284000203
20
20.193768575996302
30
6.8706006347007661e-12
40
1.0000000000000029
100
AcDbArc
50
269.99732417249425
51
359.99584705778619
0
LINE
5
721
100
AcDbEntity
8
0
100
AcDbLine
10
-5.905032130400194
20
19.193768577086839
30
6.801600273795561e-12
11
-17.90499682044954
21
19.19376857975103
31
1.8564437912489868e-12
0
ARC
5
722
100
AcDbEntity
8
0
100
AcDbCircle
10
-17.9050436084
20
20.193768575996302
30
1.3933773160558133e-12
40
1.0000000000000004
100
AcDbArc
50
180.00276863062876
51
270.00268075210147
0
LINE
5
723
100
AcDbEntity
8
0
100
AcDbLine
10
-18.905043607232507
20
20.193720254273867
30
1.3933773160558133e-12
11
-18.905043642490686
21
32.193755861652903
31
1.3051109617017845e-12
0
ARC
5
724
100
AcDbEntity
8
0
100
AcDbCircle
10
-17.905043609840099
20
32.193707536661499
30
3.7323331500023199e-12
40
1.0000000179872062
100
AcDbArc
50
89.997318740034416
51
179.9972311820527
0
LINE
5
725
100
AcDbEntity
8
0
100
AcDbLine
10
1.1450051765809039
20
33.19370755426317
30
6.6732888112532101e-13
11
13.144969874105827
21
33.193707555669612
31
6.6583899331096474e-13
0
ARC
5
726
100
AcDbEntity
8
0
100
AcDbCircle
10
13.1450166696
20
32.1937075430045
30
3.7323331500086578e-12
40
0.99999999999999856
100
AcDbArc
50
0.0041517580667273634
51
90.002681184280434
0
LINE
5
727
100
AcDbEntity
8
0
100
AcDbLine
10
14.145016666974639
20
32.193780004854354
30
3.7323309758794564e-12
11
14.145016700857651
21
20.193696092155996
31
2.6369091862878006e-13
0
ARC
5
728
100
AcDbEntity
8
0
100
AcDbCircle
10
13.1450166696
20
20.193768575996302
30
1.3933773160558133e-12
40
0.99999999999999745
100
AcDbArc
50
269.99731923932694
51
359.99584698204944
0
LINE
5
729
100
AcDbEntity
8
0
100
AcDbLine
10
13.144969881499815
20
19.193768577090868
30
1.3933773160558133e-12
11
1.1450051878962841
21
19.193768579749609
31
1.8565323011972915e-12
0
ARC
5
730
100
AcDbEntity
8
0
100
AcDbCircle
10
1.14495848959999
20
20.193768575996302
30
1.3933773160558133e-12
40
1.0000000000000004
100
AcDbArc
50
180.00276863076041
51
270.0026756152962
0
LINE
5
731
100
AcDbEntity
8
0
100
AcDbLine
10
0.14495849076748432
20
20.193720254272076
30
1.3933773160558133e-12
11
0.14495847637833356
21
32.193755852584424
31
1.3051109720770891e-12
0
ARC
5
732
100
AcDbEntity
8
0
100
AcDbCircle
10
1.14495848856773
20
32.19370753878421
30
3.7323331500044412e-12
40
1.0000000165688465
100
AcDbArc
50
89.997324973934639
51
179.99723182317422
0
LINE
5
733
100
AcDbEntity
8
0
100
AcDbLine
10
-171.30506035841012
20
44.006252647052122
30
-4.5842515542331742e-13
11
-171.3050603576707
21
56.006224418740771
31
-2.5530988207217722e-13
0
ARC
5
734
100
AcDbEntity
8
0
100
AcDbCircle
10
-170.30506039139999
20
56.006239967999704
30
-1.6803987457974326e-12
40
1.0000000000000011
100
AcDbArc
50
89.997320276432873
51
180.00089090697028
0
LINE
5
735
100
AcDbEntity
8
0
100
AcDbLine
10
-170.30501362140072
20
57.006239966905987
30
-1.6803987457974326e-12
11
-158.30504892256735
21
57.006239975546364
31
1.5879383104035269e-12
0
ARC
5
736
100
AcDbEntity
8
0
100
AcDbCircle
10
-158.30500221540001
20
56.006239967999704
30
3.0058587462442656e-12
40
0.99999999999999467
100
AcDbArc
50
-0.0026771793174592559
51
90.002676123539601
0
LINE
5
737
100
AcDbEntity
8
0
100
AcDbLine
10
-157.30500221649166
20
56.006193242406496
30
3.005860148188556e-12
11
-157.30500221247587
21
44.006228510250452
31
-4.2999020455672835e-13
0
ARC
5
738
100
AcDbEntity
8
0
100
AcDbCircle
10
-158.3050022134
20
44.006301001001511
30
-1.3203552501320849e-12
40
1.0000000000000004
100
AcDbArc
50
269.99732334745357
51
359.9958465859242
0
LINE
5
739
100
AcDbEntity
8
0
100
AcDbLine
10
-158.30504892979985
20
43.006301002092719
30
-1.3203552501320849e-12
11
-170.30501361957113
21
43.006300999629275
31
1.8615741464472081e-12
0
ARC
5
740
100
AcDbEntity
8
0
100
AcDbCircle
10
-170.3050603934
20
44.006301001001511
30
-1.3203552501320849e-12
40
0.99999996617917097
100
AcDbArc
50
180.00277047732808
51
270.00267994298031
0
LINE
5
741
100
AcDbEntity
8
0
100
AcDbLine
10
-27.429938342722661
20
14.143705440167027
30
1.9615121580837843e-12
11
-15.429973650803007
21
14.143705439871798
31
1.8583282471505583e-12
0
ARC
5
742
100
AcDbEntity
8
0
100
AcDbCircle
10
-15.430046082400002
20
13.143705445995399
30
-3.9436080803619476e-13
40
0.99999999999999911
100
AcDbArc
50
0.0041527013040181995
51
89.9958499751706
0
LINE
5
743
100
AcDbEntity
8
0
100
AcDbLine
10
-14.430046085026556
20
13.143777924305569
30
-3.9436080803619425e-13
11
-14.430046122096945
21
1.1438131874515123
31
2.5183025009109081e-12
0
ARC
5
744
100
AcDbEntity
8
0
100
AcDbCircle
10
-15.430046084400002
20
1.14376647599718
30
3.2511472844554167e-12
40
1.0000000000000002
100
AcDbArc
50
-89.995849728539071
51
0.0026763691762703248
0
LINE
5
745
100
AcDbEntity
8
0
100
AcDbLine
10
-15.429973648498221
20
0.14376647862065967
30
3.2851478644953628e-12
11
-27.429938366600997
21
0.14376580037995337
31
4.534823287167688e-14
0
ARC
5
746
100
AcDbEntity
8
0
100
AcDbCircle
10
-27.429985272496005
20
1.14376439833622
30
-5.1986907691036118e-12
40
1.0000000000000033
100
AcDbArc
50
179.99898956330821
51
270.00268751358425
0
LINE
5
747
100
AcDbEntity
8
0
100
AcDbLine
10
-28.429985272340502
20
1.1437820337912707
30
-5.1986913684810869e-12
11
-28.429985057055358
21
13.143753768778772
31
9.4517498047642169e-13
0
ARC
5
748
100
AcDbEntity
8
0
100
AcDbCircle
10
-27.429985052399999
20
13.143705444995399
30
-1.8635999984073161e-13
40
0.99999999626252456
100
AcDbArc
50
89.997323732615129
51
179.99723125116031
0
LINE
5
749
100
AcDbEntity
8
0
100
AcDbLine
10
-8.3800554199462081
20
14.143705439872116
30
8.9255473551200809e-13
11
3.620028478637435
21
14.143705439870413
31
8.9259576478690482e-13
0
ARC
5
750
100
AcDbEntity
8
0
100
AcDbCircle
10
3.6199560155999699
20
13.143705445995399
30
-2.8864570901976328e-12
40
1.0000000000000004
100
AcDbArc
50
0.0041527009529554008
51
89.995848173764387
0
LINE
5
751
100
AcDbEntity
8
0
100
AcDbLine
10
4.6199560129734181
20
13.14377792430145
30
-2.8864592648205819e-12
11
4.6199559966363708
21
1.1438131874486457
31
2.5435577681595326e-12
0
ARC
5
752
100
AcDbEntity
8
0
100
AcDbCircle
10
3.6199560135999804
20
1.14376647599718
30
3.2511472844554167e-12
40
1.0000000000000002
100
AcDbArc
50
-89.995847929461533
51
0.0026763689039127278
0
LINE
5
753
100
AcDbEntity
8
0
100
AcDbLine
10
3.6200284809015884
20
0.14376647862293465
30
3.2851478644952848e-12
11
-8.3800554178562905
21
0.14376649334225092
31
2.6889752805651292e-12
0
ARC
5
754
100
AcDbEntity
8
0
100
AcDbCircle
10
-8.3799829534000523
20
1.14376647599718
30
9.0146433624482769e-13
40
0.99999999999999978
100
AcDbArc
50
179.99910864232208
51
269.9958480924281
0
LINE
5
755
100
AcDbEntity
8
0
100
AcDbLine
10
-9.3799829532790397
20
1.1437820331235913
30
9.0146380729350597e-13
11
-9.3799829382884461
21
13.143753777856169
31
6.203481042575499e-13
0
ARC
5
756
100
AcDbEntity
8
0
100
AcDbCircle
10
-8.3799829544000204
20
13.143705445995399
30
-2.8864570901976328e-12
40
0.99999999650234439
100
AcDbArc
50
90.004151969974814
51
179.99723078836973
0
LINE
5
757
100
AcDbEntity
8
0
100
AcDbLine
10
10.669946709675202
20
14.143705439872887
30
8.9866096214742323e-13
11
22.670030612583659
21
14.143705439869485
31
8.9683351873816718e-13
0
ARC
5
758
100
AcDbEntity
8
0
100
AcDbCircle
10
22.669958113600003
20
13.143705445995399
30
-2.8864570901976328e-12
40
1.0000000000000009
100
AcDbArc
50
0.0041527007774239903
51
89.995846114199381
0
LINE
5
759
100
AcDbEntity
8
0
100
AcDbLine
10
23.66995811097345
20
13.143777924298934
30
-2.8864592648205068e-12
11
23.669958115436302
21
1.1438131910961213
31
2.7546187073244766e-12
0
ARC
5
760
100
AcDbEntity
8
0
100
AcDbCircle
10
22.669958111600003
20
1.14376647599718
30
3.2511472844554167e-12
40
1.0000000000000002
100
AcDbArc
50
-89.995846141823137
51
0.0026765779302161817
0
LINE
5
761
100
AcDbEntity
8
0
100
AcDbLine
10
22.670030610101787
20
0.14376647862519618
30
3.2851478644952081e-12
11
10.669946714154072
21
0.14376649334139449
31
2.4303122246855987e-12
0
ARC
5
762
100
AcDbEntity
8
0
100
AcDbCircle
10
10.670019144600001
20
1.14376647599718
30
-3.8888721132305929e-14
40
1.0000000000000009
100
AcDbArc
50
179.99910864232208
51
269.9958500410753
0
LINE
5
763
100
AcDbEntity
8
0
100
AcDbLine
10
9.670019144721012
20
1.143782033122311
30
-3.8888721132305929e-14
11
9.6700191806785725
21
13.143753793375863
31
6.2034719238924313e-13
0
ARC
5
764
100
AcDbEntity
8
0
100
AcDbCircle
10
10.6700191435999
20
13.143705445995399
30
-2.8864570901976328e-12
40
0.99999999650082394
100
AcDbArc
50
90.004150158196936
51
179.99722989907073
0
LINE
5
765
100
AcDbEntity
8
0
100
AcDbLine
10
15.432476949434584
20
-4.9062966462817013
30
1.6000506434329729e-13
11
27.432441812710753
21
-4.9062964595080905
31
-1.523247726596759e-12
0
ARC
5
766
100
AcDbEntity
8
0
100
AcDbCircle
10
27.432488496982202
20
-5.90629609357687
30
-1.2557698398392324e-12
40
0.99999999999999867
100
AcDbArc
50
0.0041217427580005489
51
90.002674812700562
0
LINE
5
767
100
AcDbEntity
8
0
100
AcDbLine
10
28.432488494394661
20
-5.9062241555932884
30
-1.2557648762247458e-12
11
28.432488467657166
21
-17.906308119851246
31
-1.7605965343593984e-12
0
ARC
5
768
100
AcDbEntity
8
0
100
AcDbCircle
10
27.4324884406
20
-17.906235620001901
30
5.7303855431579073e-13
40
0.99999999999999956
100
AcDbArc
50
269.99732559345176
51
359.99584606480585
0
LINE
5
769
100
AcDbEntity
8
0
100
AcDbLine
10
27.432441763400213
20
-18.906235618912522
30
5.7303855431579174e-13
11
15.432476952560828
21
-18.906235622156863
31
1.0020727518939253e-12
0
ARC
5
770
100
AcDbEntity
8
0
100
AcDbCircle
10
15.432549470600001
20
-17.906235622001901
30
5.7303855437979525e-13
40
1.0000000000000011
100
AcDbArc
50
180.00276903973813
51
269.9958450224247
0
LINE
5
771
100
AcDbEntity
8
0
100
AcDbLine
10
14.432549471767839
20
-17.906283950865706
30
5.7303855437979525e-13
11
14.432549454322949
21
-5.9062483065005189
31
1.3008405046052877e-12
0
ARC
5
772
100
AcDbEntity
8
0
100
AcDbCircle
10
15.432549470600001
20
-5.906296652003701
30
3.4939030368272869e-12
40
1.0000000083516596
100
AcDbArc
50
90.004155156672752
51
179.99723000682943
0
LINE
5
773
100
AcDbEntity
8
0
100
AcDbLine
10
-3.6175250512275055
20
-4.9062966462792126
30
1.6000506435468516e-13
11
8.3825588496085164
21
-4.906296646283141
31
-1.4800117379879853e-12
0
ARC
5
774
100
AcDbEntity
8
0
100
AcDbCircle
10
8.3824863425999592
20
-5.906296652003701
30
1.7721121134312965e-13
40
1
100
AcDbArc
50
0.0041537190858357007
51
89.995845654455607
0
LINE
5
775
100
AcDbEntity
8
0
100
AcDbLine
10
9.3824863399721199
20
-5.9062241559284168
30
1.7721121134312965e-13
11
9.3824863488573982
21
-17.906308114196673
31
-1.5486905725129913e-12
0
ARC
5
776
100
AcDbEntity
8
0
100
AcDbCircle
10
8.3824863425999592
20
-17.906235622001901
30
5.7303855437979525e-13
40
1.0000000000000007
100
AcDbArc
50
270.00415408724081
51
359.99584650326392
0
LINE
5
777
100
AcDbEntity
8
0
100
AcDbLine
10
8.3825588450996626
20
-18.906235619373597
30
5.7303855437979424e-13
11
-3.6175249948102852
21
-18.906235303353412
31
-1.7442411793551258e-13
0
ARC
5
778
100
AcDbEntity
8
0
100
AcDbCircle
10
-3.6174525885832698
20
-17.906234665581099
30
-7.1785284524163671e-13
40
1.0000000000000004
100
AcDbArc
50
180.00282383874992
51
269.99585143143469
0
LINE
5
779
100
AcDbEntity
8
0
100
AcDbLine
10
-4.6174525873687502
20
-17.906283950863834
30
-7.1785126819050041e-13
11
-4.6174526644768292
21
-5.9062482961405021
31
1.3008399218603085e-12
0
ARC
5
780
100
AcDbEntity
8
0
100
AcDbCircle
10
-3.6174526274000001
20
-5.906296652003701
30
3.4939030368272869e-12
40
1.0000000083470932
100
AcDbArc
50
90.004149579621242
51
179.99722941322196
0
LINE
5
781
100
AcDbEntity
8
0
100
AcDbLine
10
-27.42993834534159
20
57.006239975548148
30
-6.3426852704191063e-13
11
-15.429973656036495
21
57.006239975249578
31
1.7174603689607292e-12
0
ARC
5
782
100
AcDbEntity
8
0
100
AcDbCircle
10
-15.430046084400002
20
56.006239968999701
30
3.0809901149213498e-12
40
1.0000000000000018
100
AcDbArc
50
-0.0026772367669279117
51
89.995850160487166
0
LINE
5
783
100
AcDbEntity
8
0
100
AcDbLine
10
-14.430046085491687
20
56.006193242402077
30
3.0809901149213498e-12
11
-14.430046121876243
21
44.006228497890305
31
3.0413113003048032e-12
0
ARC
5
784
100
AcDbEntity
8
0
100
AcDbCircle
10
-15.430046082400002
20
44.006300999001404
30
3.0364506491019165e-12
40
0.99999999999999867
100
AcDbArc
50
270.00415015675361
51
359.99584599215814
0
LINE
5
785
100
AcDbEntity
8
0
100
AcDbLine
10
-15.429973648500241
20
43.006301001624735
30
3.0364506491019165e-12
11
-27.429938366596399
21
43.006300215032489
31
8.3682302370358462e-13
0
ARC
5
786
100
AcDbEntity
8
0
100
AcDbCircle
10
-27.429985669348
20
44.00629864718691
30
-6.3562911393043899e-12
40
1.0000000000000007
100
AcDbArc
50
180.00263420897363
51
270.00271025227329
0
LINE
5
787
100
AcDbEntity
8
0
100
AcDbLine
10
-28.429985668291124
20
44.006252671565214
30
-6.3562897597297298e-12
11
-28.429985056848608
21
56.006224407598808
31
-2.5530991337581271e-13
0
ARC
5
788
100
AcDbEntity
8
0
100
AcDbCircle
10
-27.429985051400205
20
56.006239967999704
30
-1.6803987457974326e-12
40
1.0000000086391752
100
AcDbArc
50
89.997323939985804
51
180.00089154492858
0
LINE
5
789
100
AcDbEntity
8
0
100
AcDbLine
10
-8.3800554161996192
20
57.006239975249898
30
2.0019524625177531e-12
11
3.6200284732219776
21
57.006239975248192
31
3.4345914066254972e-12
0
ARC
5
790
100
AcDbEntity
8
0
100
AcDbCircle
10
3.6199560135999804
20
56.006239968999701
30
7.1561846625197847e-12
40
0.99999999999999978
100
AcDbArc
50
-0.0026772364946215424
51
89.995848369507655
0
LINE
5
791
100
AcDbEntity
8
0
100
AcDbLine
10
4.6199560125082932
20
56.006193242404947
30
7.1561820920173394e-12
11
4.619955996923915
21
44.00622850263882
31
2.1683689642106771e-12
0
ARC
5
792
100
AcDbEntity
8
0
100
AcDbCircle
10
3.6199560155999699
20
44.006300999001404
30
3.0364506491019165e-12
40
0.99999999999999978
100
AcDbArc
50
270.00415195584168
51
359.99584626433062
0
LINE
5
793
100
AcDbEntity
8
0
100
AcDbLine
10
3.6200284808997409
20
43.006301001627008
30
3.0364506491019165e-12
11
-8.3800554199430284
21
43.006300999373117
31
1.1513296880881861e-12
0
ARC
5
794
100
AcDbEntity
8
0
100
AcDbCircle
10
-8.3799829544000204
20
44.006300999001404
30
-3.1062867047119053e-12
40
1.0000000000000004
100
AcDbArc
50
180.00276898998482
51
269.99584803023123
0
LINE
5
795
100
AcDbEntity
8
0
100
AcDbLine
10
-9.3799829532322239
20
44.006252671007921
30
-3.1062900393609016e-12
11
-9.3799829380818522
21
56.00622441028424
31
3.1501724098431854e-12
0
ARC
5
796
100
AcDbEntity
8
0
100
AcDbCircle
10
-8.3799829534000523
20
56.006239968999701
30
3.0809901149213498e-12
40
1.0000000088756253
100
AcDbArc
50
90.004151812553673
51
180.00089144844623
0
LINE
5
797
100
AcDbEntity
8
0
100
AcDbLine
10
10.669946714429217
20
57.006239975250708
30
2.0184207707163582e-12
11
22.670030615859712
21
57.006239975246949
31
4.0120561000018696e-12
0
ARC
5
798
100
AcDbEntity
8
0
100
AcDbCircle
10
22.669958111600003
20
56.006239968999701
30
7.1561846625197847e-12
40
0.999999999999997
100
AcDbArc
50
-0.0026772364946215424
51
89.995845811955178
0
LINE
5
799
100
AcDbEntity
8
0
100
AcDbLine
10
23.669958110508311
20
56.006193242406553
30
7.1561820920174267e-12
11
23.669958115657508
21
44.006228509313758
31
1.7559981487186162e-12
0
ARC
5
800
100
AcDbEntity
8
0
100
AcDbCircle
10
22.669958113600003
20
44.006300999001404
30
3.0364506491019165e-12
40
0.99999999999999645
100
AcDbArc
50
270.00415374346926
51
359.99584664691128
0
LINE
5
801
100
AcDbEntity
8
0
100
AcDbLine
10
22.670030610099762
20
43.006301001629275
30
3.0364506491019165e-12
11
10.669946709509748
21
43.006300999372364
31
4.2650090365860382e-12
0
ARC
5
802
100
AcDbEntity
8
0
100
AcDbCircle
10
10.6700191435999
20
44.006300999001404
30
3.0364506491019165e-12
40
1.0000000000000011
100
AcDbArc
50
180.00276899472325
51
269.99584983234712
0
LINE
5
803
100
AcDbEntity
8
0
100
AcDbLine
10
9.6700191447677
20
44.006252670923374
30
3.0364506491019173e-12
11
9.6700191808843119
21
56.006224419080503
31
3.150172405854119e-12
0
ARC
5
804
100
AcDbEntity
8
0
100
AcDbCircle
10
10.670019144600001
20
56.006239968999701
30
3.0809901149213498e-12
40
1.0000000088740699
100
AcDbArc
50
90.004149943062131
51
180.00089094460617
0
LINE
5
805
100
AcDbEntity
8
0
100
AcDbLine
10
5.9075355603333168
20
-23.956298761479772
30
9.8408525657468171e-13
11
17.907500229876259
21
-23.956298917596431
31
2.5537624768874105e-12
0
ARC
5
806
100
AcDbEntity
8
0
100
AcDbCircle
10
17.907546989180499
20
-24.956299219350502
30
2.975267899423473e-12
40
0.99999999999999933
100
AcDbArc
50
0.0041791261558145236
51
90.002679109975546
0
LINE
5
807
100
AcDbEntity
8
0
100
AcDbLine
10
18.907546986520416
20
-24.956226279838425
30
2.9752670225597401e-12
11
18.90754696854281
21
-36.956190960672522
31
2.9995708788044209e-12
0
ARC
5
808
100
AcDbEntity
8
0
100
AcDbCircle
10
17.907546976900299
20
-36.956237258452006
30
5.1298064285165709e-13
40
0.99999999999999845
100
AcDbArc
50
-90.002677505084108
51
0.002652667299790541
0
LINE
5
809
100
AcDbEntity
8
0
100
AcDbLine
10
17.907500245620859
20
-37.956237257360094
30
5.239718507834399e-13
11
5.9075355574335191
21
-37.95623770804962
31
1.3360932482070132e-12
0
ARC
5
810
100
AcDbEntity
8
0
100
AcDbCircle
10
5.9074888185999699
20
-36.956237718000999
30
3.6292706172047504e-13
40
1.0000000000000002
100
AcDbArc
50
179.99910668263564
51
270.00267793792642
0
LINE
5
811
100
AcDbEntity
8
0
100
AcDbLine
10
4.9074888187215144
20
-36.956222126664528
30
3.6292689035285361e-13
11
4.9074888287334337
21
-24.956250432108003
31
-1.6804314118601717e-12
0
ARC
5
812
100
AcDbEntity
8
0
100
AcDbCircle
10
5.9074888165999608
20
-24.956298751000805
30
2.9992889816446712e-13
40
0.99999999061352041
100
AcDbArc
50
89.997321781333909
51
179.99723153142577
0
LINE
5
813
100
AcDbEntity
8
0
100
AcDbLine
10
53.532481219637702
20
-4.9062966462797633
30
2.0533917120873493e-13
11
65.53244590526667
21
-4.906296645984817
31
-2.1325848498197354e-14
0
ARC
5
814
100
AcDbEntity
8
0
100
AcDbCircle
10
65.532492636599997
20
-5.9062966530037198
30
-4.0753660635857004e-13
40
1.0000000000000004
100
AcDbArc
50
0.0041537955980653603
51
90.002677508149944
0
LINE
5
815
100
AcDbEntity
8
0
100
AcDbLine
10
66.532492633972055
20
-5.906224155593379
30
-4.0753660635857004e-13
11
66.532492626990717
21
-17.906308114197479
31
-1.5486905725446055e-12
0
ARC
5
816
100
AcDbEntity
8
0
100
AcDbCircle
10
65.532492636599997
20
-17.906235620001901
30
5.7303855431579073e-13
40
0.99999999999999922
100
AcDbArc
50
269.99732244218444
51
359.99584638857772
0
LINE
5
817
100
AcDbEntity
8
0
100
AcDbLine
10
65.53244590440022
20
-18.906235618909953
30
5.7303855431579073e-13
11
53.532481214923784
21
-18.906235622158519
31
3.7246446789709254e-13
0
ARC
5
818
100
AcDbEntity
8
0
100
AcDbCircle
10
53.532553666600009
20
-17.906235622001901
30
-7.1785284619729285e-13
40
0.99999999999999689
100
AcDbArc
50
180.00276904000137
51
269.99584882474164
0
LINE
5
819
100
AcDbEntity
8
0
100
AcDbLine
10
52.53255366776785
20
-17.906283950866889
30
-7.1785129956831962e-13
11
52.532553692056531
21
-5.9062482961374796
31
1.30083992186026e-12
0
ARC
5
820
100
AcDbEntity
8
0
100
AcDbCircle
10
53.532553666600009
20
-5.906296652003701
30
3.4939030368272869e-12
40
1.0000000083482183
100
AcDbArc
50
90.004150905147696
51
179.99722941295886
0
LINE
5
821
100
AcDbEntity
8
0
100
AcDbLine
10
44.007539689224224
20
-23.956298761478632
30
1.562233896648233e-12
11
56.007504510045216
21
-23.956298761478504
31
2.8880802777517279e-12
0
ARC
5
822
100
AcDbEntity
8
0
100
AcDbCircle
10
56.007551192600005
20
-24.956298751000805
30
2.9752678998914488e-12
40
0.99999999999999811
100
AcDbArc
50
0.0041522914179897329
51
90.002674713392381
0
LINE
5
823
100
AcDbEntity
8
0
100
AcDbLine
10
57.007551189973967
20
-24.956226279842326
30
2.9752670289211629e-12
11
57.007551206048895
21
-36.956190947787441
31
2.6520872351064336e-12
0
ARC
5
824
100
AcDbEntity
8
0
100
AcDbCircle
10
56.0075511728229
20
-36.956237332971597
30
5.1298064277719669e-13
40
0.99999999999999867
100
AcDbArc
50
-90.002673931322505
51
0.0026576750379198703
0
LINE
5
825
100
AcDbEntity
8
0
100
AcDbLine
10
56.007504503917367
20
-37.956237331882605
30
5.2397185070901081e-13
11
44.007539691075692
21
-37.956237708050651
31
2.1660371938881348e-12
0
ARC
5
826
100
AcDbEntity
8
0
100
AcDbCircle
10
44.007493014600001
20
-36.956237718000999
30
1.2129415649491156e-12
40
0.99999999999999412
100
AcDbArc
50
179.99910668263564
51
270.00267436508432
0
LINE
5
827
100
AcDbEntity
8
0
100
AcDbLine
10
43.007493014721554
20
-36.956222126665388
30
1.2129413935815032e-12
11
43.007492988066893
21
-24.956250428479191
31
-1.6804314103942814e-12
0
ARC
5
828
100
AcDbEntity
8
0
100
AcDbCircle
10
44.007493012600001
20
-24.956298751000805
30
2.9992889816446712e-13
40
0.999999990611527
100
AcDbArc
50
89.997325626404034
51
179.99723132356061
0
LINE
5
829
100
AcDbEntity
8
0
100
AcDbLine
10
95.398783648722926
20
44.006252659173164
30
-2.7811979397803378e-12
11
95.398783634033578
21
56.006232214019896
31
1.1697789011567875e-12
0
ARC
5
830
100
AcDbEntity
8
0
100
AcDbCircle
10
96.398784865186315
20
56.006242102382508
30
3.0561657291802722e-12
40
0.99999999999999967
100
AcDbArc
50
89.997393706077418
51
180.00056656035761
0
LINE
5
831
100
AcDbEntity
8
0
100
AcDbLine
10
96.398830353596523
20
57.006242101347908
30
3.0261619519708192e-12
11
108.39891442637017
21
57.00624048898429
31
3.0575466935722696e-12
0
ARC
5
832
100
AcDbEntity
8
0
100
AcDbCircle
10
108.39884278619301
20
56.006241510149202
30
7.1561846640597009e-12
40
0.99999999999998712
100
AcDbArc
50
-0.0027655408751211768
51
89.995895316020977
0
LINE
5
833
100
AcDbEntity
8
0
100
AcDbLine
10
109.39884278502811
20
56.006193242356474
30
7.1561820089323824e-12
11
109.39884187225728
21
44.006228502644106
31
2.1683689642107256e-12
0
ARC
5
834
100
AcDbEntity
8
0
100
AcDbCircle
10
108.3988418566
20
44.006300999001404
30
3.0364506491019165e-12
40
1.000000000000006
100
AcDbArc
50
270.00415489511443
51
359.99584626476928
0
LINE
5
835
100
AcDbEntity
8
0
100
AcDbLine
10
108.39891437319976
20
43.006301001630725
30
3.0364506491019165e-12
11
96.398830352122417
21
43.006300999627705
31
-6.4146861463717924e-13
0
ARC
5
836
100
AcDbEntity
8
0
100
AcDbCircle
10
96.398783677599994
20
44.006301001001511
30
-6.3562911369524577e-12
40
1.0000000300455412
100
AcDbArc
50
180.00276978264094
51
270.00267425314007
0
LINE
5
837
100
AcDbEntity
8
0
100
AcDbLine
10
21.576285337522979
20
-58.006262414204386
30
-5.4144740608488921e-13
11
21.57628533829573
21
-44.006197184053974
31
-3.120188118480448e-13
0
ARC
5
838
100
AcDbEntity
8
0
100
AcDbCircle
10
22.5762853576
20
-44.006181639996399
30
1.4082936905118155e-12
40
1.0000000000000029
100
AcDbArc
50
89.997324837183825
51
180.00089060869081
0
LINE
5
839
100
AcDbEntity
8
0
100
AcDbLine
10
22.576332047999152
20
-43.0061816410864
30
1.4082936905118155e-12
11
34.576296866299536
21
-43.006181628989175
31
2.2103239645850336e-12
0
ARC
5
840
100
AcDbEntity
8
0
100
AcDbCircle
10
34.576343533599911
20
-44.006181639996399
30
1.4556974364317113e-12
40
1.0000000000000009
100
AcDbArc
50
-0.0026768819764603057
51
90.002673839321332
0
LINE
5
841
100
AcDbEntity
8
0
100
AcDbLine
10
35.57634353250851
20
-44.006228360400314
30
1.4556989312952578e-12
11
35.576343560908427
21
-56.006193097959027
31
-3.2224197020099705e-13
0
ARC
5
842
100
AcDbEntity
8
0
100
AcDbCircle
10
34.5763386425999
20
-56.006234925997305
30
-3.0576165100026184e-13
40
1.0000048900000063
100
AcDbArc
50
-90.002394138237079
51
0.0023965582893280056
0
LINE
5
843
100
AcDbEntity
8
0
100
AcDbLine
10
34.576296856800596
20
-57.006239815124289
30
-2.7176090463796318e-13
11
29.695033971340443
21
-57.006239827742604
31
-1.5584493001235129e-12
0
LINE
5
844
100
AcDbEntity
8
0
100
AcDbLine
10
29.695033971340443
20
-57.006239827742604
30
-1.5584493001235129e-12
11
29.695033924741292
21
-58.006286583329683
31
6.1424657250578668e-13
0
ARC
5
845
100
AcDbEntity
8
0
100
AcDbCircle
10
28.6950338359554
20
-58.0062126799724
30
4.1418056856641668e-12
40
0.99999999999999767
100
AcDbArc
50
270.00416117146756
51
359.99576564997272
0
LINE
5
846
100
AcDbEntity
8
0
100
AcDbLine
10
28.695106462098185
20
-59.006212677335121
30
4.1758062657036221e-12
11
22.576332042453128
21
-59.00621407471413
31
1.5538558147648339e-12
0
ARC
5
847
100
AcDbEntity
8
0
100
AcDbCircle
10
22.5762853556
20
-58.006214067000499
30
1.3419619940516778e-12
40
1.0000000192457468
100
AcDbArc
50
180.00277009066673
51
270.00267495962044
0
ARC
5
848
100
AcDbEntity
8
0
100
AcDbCircle
10
67.820025437599995
20
-44.006300849001903
30
-6.4418545035194375e-13
40
0.99999999999999656
100
AcDbArc
50
89.997321359291959
51
179.99723092893615
0
LINE
5
849
100
AcDbEntity
8
0
100
AcDbLine
10
67.820072188699811
20
-43.006300850094739
30
-6.7618762900179076e-13
11
82.201242392875699
21
-43.006181628989715
31
3.2087471684828532e-12
0
ARC
5
850
100
AcDbEntity
8
0
100
AcDbCircle
10
82.201289174600007
20
-44.006181639996498
30
1.5060044172350417e-12
40
1.0000000000000011
100
AcDbArc
50
-0.0026768819764603057
51
90.002680395329733
0
LINE
5
851
100
AcDbEntity
8
0
100
AcDbLine
10
83.201289173508599
20
-44.006228360402837
30
1.5060059123898341e-12
11
83.20128913636951
21
-56.006193092855632
31
-2.5542226280397871e-13
0
ARC
5
852
100
AcDbEntity
8
0
100
AcDbCircle
10
82.201289174600007
20
-56.006239816000097
30
-2.6060049850316055e-12
40
1.0000000000000022
100
AcDbArc
50
-90.002680073074345
51
0.0026770389559365409
0
LINE
5
853
100
AcDbEntity
8
0
100
AcDbLine
10
82.201242398500682
20
-57.006239814906095
30
-2.5760012078239349e-12
11
67.820072194492269
21
-57.006239823545855
31
-1.6714957794406808e-12
0
ARC
5
854
100
AcDbEntity
8
0
100
AcDbCircle
10
67.820025439600016
20
-56.006239816000097
30
-3.0561657270475857e-12
40
1.0000000000000027
100
AcDbArc
50
179.99910818612074
51
270.00267885797547
0
LINE
5
855
100
AcDbEntity
8
0
100
AcDbLine
10
66.820025439721149
20
-56.006224250910549
30
-3.0561661940590654e-12
11
66.820025438767871
21
-44.006252519595208
31
-6.4418699699825222e-13
0
ARC
5
856
100
AcDbEntity
8
0
100
AcDbCircle
10
44.007612222600009
20
-44.006300848001906
30
-3.6938293211181644e-12
40
1.0000000000000022
100
AcDbArc
50
90.004155502446679
51
179.9972309676327
0
LINE
5
857
100
AcDbEntity
8
0
100
AcDbLine
10
44.007539695400304
20
-43.006300850632002
30
-3.7258314997188157e-12
11
58.38882923563812
21
-43.006181629287276
31
1.9057552781334529e-12
0
ARC
5
858
100
AcDbEntity
8
0
100
AcDbCircle
10
58.388756749600006
20
-44.006181638996402
30
-1.2938392729905299e-12
40
0.99999999999999434
100
AcDbArc
50
-0.0026769391599837013
51
89.995846855990038
0
LINE
5
859
100
AcDbEntity
8
0
100
AcDbLine
10
59.388756748508555
20
-44.006228360400925
30
-1.2938377778037937e-12
11
59.388756743769484
21
-56.006193093115542
31
1.7769637532983935e-12
0
ARC
5
860
100
AcDbEntity
8
0
100
AcDbCircle
10
58.388756749600006
20
-56.006239817999997
30
7.4374604707761682e-13
40
1.0000000000000011
100
AcDbArc
50
-89.995846989961748
51
0.0026771387481564742
0
LINE
5
861
100
AcDbEntity
8
0
100
AcDbLine
10
58.388829233298978
20
-57.006239815373057
30
6.7474568627842353e-13
11
44.007539690693427
21
-57.006239823806652
31
8.4168088241489609e-14
0
ARC
5
862
100
AcDbEntity
8
0
100
AcDbCircle
10
44.007612223599999
20
-56.006239817999997
30
1.4439908612762593e-13
40
1.0000000000000056
100
AcDbArc
50
179.99910811010986
51
269.99584417060902
0
LINE
5
863
100
AcDbEntity
8
0
100
AcDbLine
10
43.007612223721154
20
-56.006224251581251
30
1.4440016021613915e-13
11
43.007612223767843
21
-44.0062525192685
31
-3.6938308677429267e-12
0
ARC
5
864
100
AcDbEntity
8
0
100
AcDbCircle
10
91.632557862600009
20
-44.006300849001903
30
-6.4418545035194375e-13
40
0.99999999999999478
100
AcDbArc
50
89.997324149594917
51
179.99723092919942
0
LINE
5
865
100
AcDbEntity
8
0
100
AcDbLine
10
91.632604564999852
20
-43.006300850092465
30
-6.7618762900186346e-13
11
106.01377489939799
21
-43.006181628988315
31
3.1361383016691211e-12
0
ARC
5
866
100
AcDbEntity
8
0
100
AcDbCircle
10
106.01382159960002
20
-44.006181639996498
30
1.5060044172350417e-12
40
1.0000000000000009
100
AcDbArc
50
-0.0026768818403325651
51
90.002675724447585
0
LINE
5
867
100
AcDbEntity
8
0
100
AcDbLine
10
107.01382159850863
20
-44.00622836039993
30
1.5060059123897413e-12
11
107.01382160703622
21
-56.006193094112575
31
-2.1259176939551058e-13
0
ARC
5
868
100
AcDbEntity
8
0
100
AcDbCircle
10
106.01382159960002
20
-56.006239816000097
30
-2.6060049850316055e-12
40
1.000000000000002
100
AcDbArc
50
-90.002676142584562
51
0.0026769669344107365
0
LINE
5
869
100
AcDbEntity
8
0
100
AcDbLine
10
106.01377489210068
20
-57.006239814909307
30
-2.5760012078238388e-12
11
91.632604560061935
21
-57.006239823546878
31
6.3613061077163235e-13
0
ARC
5
870
100
AcDbEntity
8
0
100
AcDbCircle
10
91.632557864600003
20
-56.006239816000097
30
1.6803987457971317e-12
40
1.0000000000000027
100
AcDbArc
50
179.99910818612074
51
270.00267545286903
0
LINE
5
871
100
AcDbEntity
8
0
100
AcDbLine
10
90.632557864721136
20
-56.006224250909334
30
1.6803987457971317e-12
11
90.632557863767872
21
-44.006252519597552
31
-6.441869969981775e-13
0
LINE
5
872
100
AcDbEntity
8
0
100
AcDbLine
10
-167.92368889236482
20
-43.006181628988458
30
1.6377069365189106e-12
11
-153.54239935232647
21
-43.006300847929381
31
-3.7386387363815688e-13
0
ARC
5
873
100
AcDbEntity
8
0
100
AcDbCircle
10
-153.54247188639999
20
-44.006300848001906
30
-3.6938293211181644e-12
40
1.0000000000000084
100
AcDbArc
50
0.0041532334810983869
51
89.995844103723769
0
LINE
5
874
100
AcDbEntity
8
0
100
AcDbLine
10
-152.54247188902721
20
-44.006228360403398
30
-3.693831640879244e-12
11
-152.54247186076384
21
-56.006193094333057
31
1.3872786763030869e-12
0
ARC
5
875
100
AcDbEntity
8
0
100
AcDbCircle
10
-153.5424718884
20
-56.006239817999997
30
7.4374604707761682e-13
40
0.99999999999999956
100
AcDbArc
50
-89.995844113711144
51
0.0026770687714642322
0
LINE
5
876
100
AcDbEntity
8
0
100
AcDbLine
10
-153.54239935450099
20
-57.006239815369419
30
6.7474568627867496e-13
11
-167.92368889234479
21
-57.006239823546274
31
-1.5818179320491116e-12
0
ARC
5
877
100
AcDbEntity
8
0
100
AcDbCircle
10
-167.92373562340001
20
-56.006239816000097
30
-3.0561657270475857e-12
40
1.0000000000000027
100
AcDbArc
50
179.99910818612074
51
270.00267749221416
0
LINE
5
878
100
AcDbEntity
8
0
100
AcDbLine
10
-168.92373562327887
20
-56.006224250910876
30
-3.0561661940590561e-12
11
-168.92373561562636
21
-44.006197195161334
31
2.2537607530201187e-12
0
ARC
5
879
100
AcDbEntity
8
0
100
AcDbCircle
10
-167.92373562340001
20
-44.006181639996498
30
1.5060044172350417e-12
40
1.0000000120999391
100
AcDbArc
50
89.997322508943128
51
180.00089124522685
0
LINE
5
880
100
AcDbEntity
8
0
100
AcDbLine
10
-129.72998618566646
20
-57.006239823547958
30
-1.1232766930525477e-12
11
-144.11115652232013
21
-57.006239823547141
31
-3.6521418972555701e-13
0
ARC
5
881
100
AcDbEntity
8
0
100
AcDbCircle
10
-144.11120319840001
20
-56.006239816000004
30
-3.5606863668968565e-13
40
1.0000000000000027
100
AcDbArc
50
179.99910818612074
51
270.002674342359
0
LINE
5
882
100
AcDbEntity
8
0
100
AcDbLine
10
-145.11120319827887
20
-56.006224250911117
30
-3.5606910370114503e-13
11
-145.11120267531061
21
-44.006199372370148
31
2.1878130641968971e-12
0
ARC
5
883
100
AcDbEntity
8
0
100
AcDbCircle
10
-144.11120269540001
20
-44.006181639996399
30
1.5060044172350417e-12
40
0.99999999999999778
100
AcDbArc
50
89.997354115324924
51
180.00101599028031
0
LINE
5
884
100
AcDbEntity
8
0
100
AcDbLine
10
-144.11115651600082
20
-43.006181641062675
30
1.474002238584344e-12
11
-129.72998618742571
21
-43.006300847629575
31
1.0924728423224704e-12
0
ARC
5
885
100
AcDbEntity
8
0
100
AcDbCircle
10
-129.72993946140002
20
-44.006300849001903
30
-6.4418545035194375e-13
40
0.99999999999999867
100
AcDbArc
50
0.0041533100022738516
51
90.002677204059651
0
LINE
5
886
100
AcDbEntity
8
0
100
AcDbLine
10
-128.72993946402732
20
-44.006228360066764
30
-6.4418777015579893e-13
11
-128.72993946816385
21
-56.006193092858901
31
-2.6243062023605358e-13
0
ARC
5
887
100
AcDbEntity
8
0
100
AcDbCircle
10
-129.7299394634
20
-56.006239816000097
30
-2.6060049850316055e-12
40
1.0000000086393461
100
AcDbArc
50
-90.002676988655367
51
0.0026770388197918174
0
LINE
5
888
100
AcDbEntity
8
0
100
AcDbLine
10
-120.29874322515418
20
-43.006181629285933
30
9.2693290433022773e-13
11
-105.91745381429065
21
-43.006300847631742
31
1.4480534469162013e-12
0
ARC
5
889
100
AcDbEntity
8
0
100
AcDbCircle
10
-105.91740703639999
20
-44.006300849001903
30
-6.4418545035194375e-13
40
1.0000000000000167
100
AcDbArc
50
0.0041533101777795137
51
90.002680175703702
0
LINE
5
890
100
AcDbEntity
8
0
100
AcDbLine
10
-104.9174070390273
20
-44.006228360063247
30
-6.4418777015591101e-13
11
-104.91740707556383
21
-56.006193092855668
31
-2.5542226280397871e-13
0
ARC
5
891
100
AcDbEntity
8
0
100
AcDbCircle
10
-105.91740703840001
20
-56.006239816000097
30
-2.6060049850316055e-12
40
0.99999999999999845
100
AcDbArc
50
-90.002679981405976
51
0.0026770390920812575
0
LINE
5
892
100
AcDbEntity
8
0
100
AcDbLine
10
-105.91745381289942
20
-57.006239814906166
30
-2.5760012078239325e-12
11
-120.29874322809214
21
-57.006239823808649
31
1.4698046167163073e-12
0
ARC
5
893
100
AcDbEntity
8
0
100
AcDbCircle
10
-120.2986707734
20
-56.006239817999997
30
2.9945497571575262e-12
40
1.0000000000000056
100
AcDbArc
50
179.99910811010986
51
269.99584865196636
0
LINE
5
894
100
AcDbEntity
8
0
100
AcDbLine
10
-121.29867077327886
20
-56.006224251580186
30
2.9945508312461128e-12
11
-121.29867075235973
21
-44.006197188898838
31
1.8131128139898843e-12
0
ARC
5
895
100
AcDbEntity
8
0
100
AcDbCircle
10
-120.2986707734
20
-44.006181638996402
30
-1.2938392729905299e-12
40
1.0000000123350972
100
AcDbArc
50
90.004151179685167
51
180.00089094378799
0
LINE
5
896
100
AcDbEntity
8
0
100
AcDbLine
10
-167.92368889240211
20
-4.906296645982418
30
-1.8164741012147351e-12
11
-151.15869040072388
21
-4.9062966462830788
31
-1.762966091790177e-13
0
ARC
5
897
100
AcDbEntity
8
0
100
AcDbCircle
10
-151.15876293240001
20
-5.906296652003701
30
3.4939030368272869e-12
40
1.0000000000000011
100
AcDbArc
50
0.0041537189103473156
51
89.995844241108117
0
LINE
5
898
100
AcDbEntity
8
0
100
AcDbLine
10
-150.15876293502785
20
-5.9062241559317386
30
3.4939008616712926e-12
11
-150.15876290960944
21
-17.906308119851353
31
-1.7605965343309519e-12
0
ARC
5
899
100
AcDbEntity
8
0
100
AcDbCircle
10
-151.15876293240001
20
-17.906235622001901
30
5.7303855437979525e-13
40
0.99999999999999989
100
AcDbArc
50
270.00415550244674
51
359.99584617939536
0
LINE
5
900
100
AcDbEntity
8
0
100
AcDbLine
10
-151.1586904052003
20
-18.906235619371806
30
5.7303855437979525e-13
11
-167.92368889236681
21
-18.906235621899388
31
2.0808738079592134e-12
0
ARC
5
901
100
AcDbEntity
8
0
100
AcDbCircle
10
-167.92373562440002
20
-17.906235620001901
30
4.1324339926358556e-12
40
0.99999999999999811
100
AcDbArc
50
180.00276911502453
51
270.0026775482641
0
LINE
5
902
100
AcDbEntity
8
0
100
AcDbLine
10
-168.92373562323212
20
-17.906283950179198
30
4.1324355393068262e-12
11
-168.92373561587715
21
-5.9062483095921809
31
-2.0328338846455016e-12
0
ARC
5
903
100
AcDbEntity
8
0
100
AcDbCircle
10
-167.92373562440002
20
-5.9062966530037198
30
-1.2557698403982124e-12
40
1.0000000081132416
100
AcDbArc
50
89.997322453772171
51
179.99723012656619
0
LINE
5
904
100
AcDbEntity
8
0
100
AcDbLine
10
21.769986260185185
20
36.200046613112981
30
-3.4873884068700787e-14
11
-45.580007626333341
21
36.200046613114495
31
-3.716588299211626e-14
0
ARC
5
905
100
AcDbEntity
8
0
100
AcDbCircle
10
-45.5800076254
20
38.100004272002899
30
-2.8120811193228394e-12
40
1.8999576569999999
100
AcDbArc
50
90.000000045233179
51
269.99999997185387
0
LINE
5
906
100
AcDbEntity
8
0
100
AcDbLine
10
-45.580007626899956
20
39.9999619290029
30
-2.86908702562984e-12
11
21.769986261099994
21
39.999961942184768
31
-1.297218345513142e-12
0
ARC
5
907
100
AcDbEntity
8
0
100
AcDbCircle
10
21.769986271600001
20
38.100004272002899
30
-2.8120811193228394e-12
40
1.8999576588899147
100
AcDbArc
50
-90.00000034422915
51
90.000000316641817
0
LINE
5
908
100
AcDbEntity
8
0
100
AcDbLine
10
-63.954989200066422
20
36.200045877104884
30
1.3224662813855179e-12
11
-131.30501366207767
21
36.200046136470242
31
4.1777638183532903e-13
0
ARC
5
909
100
AcDbEntity
8
0
100
AcDbCircle
10
-131.30501397818799
20
38.100002842070097
30
-2.8120811207516292e-12
40
1.8999576570000023
100
AcDbArc
50
90.000033604036176
51
270.00000953273673
0
LINE
5
910
100
AcDbEntity
8
0
100
AcDbLine
10
-131.30501509251519
20
39.999960499069772
30
-2.86908702705862e-12
11
-63.954989200100236
21
39.9999612061766
31
-8.1291230157416896e-13
0
ARC
5
911
100
AcDbEntity
8
0
100
AcDbCircle
10
-63.954989783463603
20
38.100002063978508
30
-2.812081121529099e-12
40
1.8999561868737129
100
AcDbArc
50
-89.999982406859445
51
89.999982407906529
0
LINE
5
912
100
AcDbEntity
8
0
100
AcDbLine
10
107.49886821315557
20
36.200046826289046
30
-5.4025698950424594e-14
11
40.144998441981627
21
36.200046613114495
31
-3.4567731566130847e-14
0
ARC
5
913
100
AcDbEntity
8
0
100
AcDbCircle
10
40.144998478600009
20
38.100004272002899
30
-2.8120811193228394e-12
40
1.8999576570000003
100
AcDbArc
50
90.000001158003769
51
269.99999889572342
0
LINE
5
914
100
AcDbEntity
8
0
100
AcDbLine
10
40.144998440200006
20
39.9999619290029
30
-2.86908702562984e-12
11
107.4988682131
21
39.999962154252103
31
-1.1887626837876282e-12
0
ARC
5
915
100
AcDbEntity
8
0
100
AcDbCircle
10
107.49886840782102
20
38.100004909868005
30
-2.8120811186854843e-12
40
1.8999580835789642
100
AcDbArc
50
-90.000005870397146
51
90.000005872075775
0
LINE
5
916
100
AcDbEntity
8
0
100
AcDbLine
10
-48.854947138459181
20
-43.006181629287816
30
2.4543925450838098e-12
11
-24.954915048135938
21
-43.006181629288498
31
1.000975268682862e-12
0
ARC
5
917
100
AcDbEntity
8
0
100
AcDbCircle
10
-24.954987528400203
20
-44.006181638996402
30
-1.2938392729905299e-12
40
0.99999999999999878
100
AcDbArc
50
-0.0026769391599837013
51
89.995847186807211
0
LINE
5
918
100
AcDbEntity
8
0
100
AcDbLine
10
-23.954987529491646
20
-44.006228360401124
30
-1.2938377778037877e-12
11
-23.954987536897381
21
-56.006193093115442
31
1.7457889751074204e-12
0
ARC
5
919
100
AcDbEntity
8
0
100
AcDbCircle
10
-24.954987528400203
20
-56.006239817999997
30
7.4374604707761682e-13
40
0.99999999999999545
100
AcDbArc
50
-89.995847219132273
51
0.0026771386120168256
0
LINE
5
920
100
AcDbEntity
8
0
100
AcDbLine
10
-24.954915048701011
20
-57.006239815373341
30
6.7474568627840334e-13
11
-48.854947136488505
21
-57.006239823806936
31
-1.8841570363675286e-12
0
ARC
5
921
100
AcDbEntity
8
0
100
AcDbCircle
10
-48.854874615400007
20
-56.006239817999997
30
-3.8644507698435142e-12
40
0.99999999999999689
100
AcDbArc
50
179.99910811010986
51
269.99584484773476
0
LINE
5
922
100
AcDbEntity
8
0
100
AcDbLine
10
-49.854874615278845
20
-56.006224251580576
30
-3.8644507698435142e-12
11
-49.854874632026394
21
-44.006197188995799
31
3.1641793598135254e-12
0
ARC
5
923
100
AcDbEntity
8
0
100
AcDbCircle
10
-48.854874615400007
20
-44.006181638996402
30
1.4082936904798137e-12
40
1.000000012338383
100
AcDbArc
50
90.004155265160435
51
180.00089094910595
0
LINE
5
924
100
AcDbEntity
8
0
100
AcDbLine
10
-153.7550091830671
20
51.506280965393493
30
-7.5523466236899585e-13
11
-150.12836455495562
21
51.506280965988019
31
3.5270567426238546e-12
0
ARC
5
925
100
AcDbEntity
8
0
100
AcDbCircle
10
-150.12838175440004
20
53.506280974997708
30
6.0035650371150011e-12
40
2.0000000090836387
100
AcDbArc
50
270.00049272778523
51
324.31345959968348
0
ARC
5
926
100
AcDbEntity
8
0
100
AcDbCircle
10
-145.2550091514
20
50.0062467650001
30
-1.50037628629015e-12
40
4.0000000000000053
100
AcDbArc
50
35.685335234925816
51
144.31466482614741
0
ARC
5
927
100
AcDbEntity
8
0
100
AcDbCircle
10
-140.38163654740001
20
53.506280973997804
30
-1.1964047499277683e-12
40
2.0000000004258522
100
AcDbArc
50
215.68654023819272
51
270.00177352208675
0
LINE
5
928
100
AcDbEntity
8
0
100
AcDbLine
10
-140.38157463980048
20
51.506280974955942
30
-1.136397195394982e-12
11
-136.75500913457066
21
51.506280965391859
31
-1.1767472221035029e-12
0
ARC
5
929
100
AcDbEntity
8
0
100
AcDbCircle
10
-136.7550091514
20
50.006270484000609
30
-2.8001843695255503e-12
40
1.5000104900000013
100
AcDbArc
50
-89.999999355098367
51
89.999999357170807
0
LINE
5
930
100
AcDbEntity
8
0
100
AcDbLine
10
-136.7550091345164
20
48.506259994000601
30
-2.7326545817977128e-12
11
-140.38157464461105
21
48.506259979772494
31
-5.787267941737718e-13
0
ARC
5
931
100
AcDbEntity
8
0
100
AcDbCircle
10
-140.38160247740001
20
46.5062599940035
30
-2.3032138597154326e-12
40
1.9999999859626605
100
AcDbArc
50
89.999202649324658
51
144.31513251269763
0
ARC
5
932
100
AcDbEntity
8
0
100
AcDbCircle
10
-145.2550091514
20
50.0062467650001
30
-1.50037628629015e-12
40
3.9999999999999996
100
AcDbArc
50
215.68533495364579
51
324.31466497776847
0
ARC
5
933
100
AcDbEntity
8
0
100
AcDbCircle
10
-150.1284158254
20
46.506259995003496
30
4.6469557467866467e-12
40
2.0000000000726037
100
AcDbArc
50
35.684867601205163
51
89.998531331536398
0
LINE
5
934
100
AcDbEntity
8
0
100
AcDbLine
10
-150.12836455919938
20
48.506259994346443
30
4.7849564685688188e-12
11
-153.75500917223422
21
48.506259979882735
31
-1.4900915024928419e-12
0
ARC
5
935
100
AcDbEntity
8
0
100
AcDbCircle
10
-153.75500915140003
20
50.006270484000609
30
-2.8001843695255503e-12
40
1.5000104813928863
100
AcDbArc
50
90.000001209584553
51
269.99999920419805
0
LINE
5
936
100
AcDbEntity
8
0
100
AcDbLine
10
-18.598642563053104
20
-48.506259827881294
30
2.5854278182007226e-12
11
-14.972090744100102
21
-48.506259828193315
31
2.2924316167689074e-12
0
ARC
5
937
100
AcDbEntity
8
0
100
AcDbCircle
10
-14.9720488294001
20
-46.506259843003797
30
5.3537250922196325e-12
40
1.9999999856287305
100
AcDbArc
50
269.99879923228644
51
324.31511410239347
0
ARC
5
938
100
AcDbEntity
8
0
100
AcDbCircle
10
-10.098642527400102
20
-50.006247132002805
30
1.1999019861184148e-12
40
3.9999999999999996
100
AcDbArc
50
35.685334999502217
51
144.31466504798834
0
ARC
5
939
100
AcDbEntity
8
0
100
AcDbCircle
10
-5.2252362264001508
20
-46.506259843003797
30
5.3537250922196325e-12
40
1.9999999998560269
100
AcDbArc
50
215.6848858193375
51
269.99814964710657
0
LINE
5
940
100
AcDbEntity
8
0
100
AcDbLine
10
-5.2253008159007681
20
-48.506259841960848
30
5.4137326466133086e-12
11
-1.5986424953728839
21
-48.506259827881124
31
1.017130349751971e-12
0
ARC
5
941
100
AcDbEntity
8
0
100
AcDbCircle
10
-1.5986425274000002
20
-50.006270333000906
30
1.5003769979794571e-12
40
1.5000104910000014
100
AcDbArc
50
-89.999999117651541
51
89.999998776662849
0
LINE
5
942
100
AcDbEntity
8
0
100
AcDbLine
10
-1.5986425043000096
20
-51.506280824000903
30
1.5003769979794561e-12
11
-5.2253008194734205
21
-51.506280814085912
31
1.9175737782268829e-12
0
ARC
5
943
100
AcDbEntity
8
0
100
AcDbCircle
10
-5.2252695524000607
20
-53.5062808229981
30
3.9468088210880096e-12
40
2.0000000091565959
100
AcDbArc
50
90.00089573566656
51
144.31347805800291
0
ARC
5
944
100
AcDbEntity
8
0
100
AcDbCircle
10
-10.098642527400102
20
-50.006247132002805
30
1.1999019861184148e-12
40
4.0000000000000551
100
AcDbArc
50
215.68533523177237
51
324.31466474355324
0
ARC
5
945
100
AcDbEntity
8
0
100
AcDbCircle
10
-14.972015503400202
20
-53.506280821998004
30
8.9629758858378911e-13
40
1.9999999998117313
100
AcDbArc
50
35.686521951362792
51
90.002155226561086
0
LINE
5
946
100
AcDbEntity
8
0
100
AcDbLine
10
-14.972090734999419
20
-51.506280823412951
30
8.3629003390055394e-13
11
-18.598642547137548
21
-51.506280814505374
31
2.4566029615822168e-12
0
ARC
5
947
100
AcDbEntity
8
0
100
AcDbCircle
10
-18.598642527399999
20
-50.006270333000906
30
4.6502669566538315e-12
40
1.5000105051196138
100
AcDbArc
50
90.00000136183877
51
269.99999924608647
0
LINE
5
948
100
AcDbEntity
8
0
100
AcDbLine
10
-159.20500461231347
20
36.200046613112981
30
-3.4596328312544498e-14
11
-169.40500459479213
21
36.200046613114495
31
-3.4589204050741527e-14
0
ARC
5
949
100
AcDbEntity
8
0
100
AcDbCircle
10
-169.40500457339999
20
38.100004272002899
30
-2.8120811193228394e-12
40
1.8999576570000001
100
AcDbArc
50
90.000000693597187
51
269.99999935489126
0
LINE
5
950
100
AcDbEntity
8
0
100
AcDbLine
10
-169.40500459640003
20
39.9999619290029
30
-2.86908702562984e-12
11
-159.20500460815555
21
39.999961942184768
31
-1.3754457941384196e-12
0
ARC
5
951
100
AcDbEntity
8
0
100
AcDbCircle
10
-159.2050045734
20
38.100004272002899
30
-2.8120811193228394e-12
40
1.899957658889915
100
AcDbArc
50
-90.000001173488045
51
90.000001048100202
0
LINE
5
952
100
AcDbEntity
8
0
100
AcDbLine
10
76.050758318430127
20
-2.9062032055226177
30
-1.8546055427529044e-12
11
81.050753622534572
21
-2.9062032054742399
31
-1.5426191117977086e-12
0
ARC
5
953
100
AcDbEntity
8
0
100
AcDbCircle
10
81.05075409459991
20
-3.9062031939978303
30
3.9595068008435846e-13
40
0.99999999999999745
100
AcDbArc
50
-0.0042858151269776707
51
90.000027047351821
0
ARC
5
954
100
AcDbEntity
8
0
100
AcDbCircle
10
83.050754092600002
20
-3.90629665500329
30
-2.0339637425192494e-13
40
1.0000000009718275
100
AcDbArc
50
179.99893089401746
51
269.99849601441781
0
LINE
5
955
100
AcDbEntity
8
0
100
AcDbLine
10
83.050727843099693
20
-4.9062966546587718
30
-1.7339259702176621e-13
11
92.982053705367079
21
-4.9062966420427365
31
-3.3948796639172015e-12
0
LINE
5
956
100
AcDbEntity
8
0
100
AcDbLine
10
92.982053705367079
20
-4.9062966420427365
30
-3.3948796639172015e-12
11
92.982053705367079
21
0.14376650056305451
31
5.4440512714435983e-13
0
LINE
5
957
100
AcDbEntity
8
0
100
AcDbLine
10
92.982053705367079
20
0.14376650056305451
30
5.4440512714435983e-13
11
91.632485341396759
21
0.14376649334388072
31
4.3661650845062703e-12
0
ARC
5
958
100
AcDbEntity
8
0
100
AcDbCircle
10
91.632557864600003
20
1.1437664759971999
30
3.8513616071433871e-12
40
1.0000000000000031
100
AcDbArc
50
179.99910864232208
51
269.99584472647257
0
LINE
5
959
100
AcDbEntity
8
0
100
AcDbLine
10
90.632557864721008
20
1.1437820331223159
30
3.8513610778480011e-12
11
90.632557851400279
21
13.143753772706068
31
1.8663970743603981e-12
0
ARC
5
960
100
AcDbEntity
8
0
100
AcDbCircle
10
91.632557862600009
20
13.143705445995399
30
-3.9436080803619476e-13
40
0.99999999999999956
100
AcDbArc
50
90.004154442513638
51
179.99723108346217
0
LINE
5
961
100
AcDbEntity
8
0
100
AcDbLine
10
91.632485353899625
20
14.143705443366644
30
-3.9436080803619425e-13
11
103.63256925659078
21
14.143705439871328
31
4.1847904353108005e-12
0
ARC
5
962
100
AcDbEntity
8
0
100
AcDbCircle
10
103.63249683260001
20
13.143705445995399
30
4.2632057160407784e-12
40
1.0000000000000069
100
AcDbArc
50
-4.9881843385199103
51
89.995850410975095
0
LINE
5
963
100
AcDbEntity
8
0
100
AcDbLine
10
104.62870948295743
20
13.056755142557957
30
4.2658145535761088e-12
11
105.98206523519544
21
13.056755139448732
31
-9.5217446954801333e-13
0
ARC
5
964
100
AcDbEntity
8
0
100
AcDbCircle
10
105.9819927186
20
12.056755144000801
30
-1.8874750878237103e-12
40
1.0000000000000036
100
AcDbArc
50
-0.0026783661741093018
51
89.995845105125127
0
LINE
5
965
100
AcDbEntity
8
0
100
AcDbLine
10
106.9819927175074
20
12.056708397691713
30
-1.8874736852049263e-12
11
106.9819927331026
21
-16.819238583060084
31
2.1516156668678392e-13
0
ARC
5
966
100
AcDbEntity
8
0
100
AcDbCircle
10
105.9819927186
20
-16.819285319997405
30
5.8340848057404518e-13
40
1
100
AcDbArc
50
-93.392891212319739
51
0.0026778291594119546
0
ARC
5
967
100
AcDbEntity
8
0
100
AcDbCircle
10
104.92675208960001
20
-17.906235620001901
30
8.8242956039330594e-13
40
0.99999999999999933
100
AcDbArc
50
-90.002680273635946
51
5.0890030148954271
0
LINE
5
968
100
AcDbEntity
8
0
100
AcDbLine
10
104.92670531000023
20
-18.906235618907736
30
9.1443173904311004e-13
11
72.582483343880028
21
-18.906235622159262
31
1.0021496692768443e-12
0
ARC
5
969
100
AcDbEntity
8
0
100
AcDbCircle
10
72.582555764600002
20
-17.906235622001901
30
5.7303855437979525e-13
40
1.0000000000000058
100
AcDbArc
50
180.00276903973813
51
269.9958505984041
0
LINE
5
970
100
AcDbEntity
8
0
100
AcDbLine
10
71.582555765767836
20
-17.906283950864747
30
5.7303855437979525e-13
11
71.58255573265653
21
-5.9062482961402711
31
1.3008398684083567e-12
0
ARC
5
971
100
AcDbEntity
8
0
100
AcDbCircle
10
72.582555764600002
20
-5.906296652003701
30
3.4939030368272869e-12
40
1.0000000000000007
100
AcDbArc
50
90.004149509266298
51
179.99722941322196
0
LINE
5
972
100
AcDbEntity
8
0
100
AcDbLine
10
72.582483342001026
20
-4.9062966546262166
30
3.4638992596654776e-12
11
75.050711606956796
21
-4.9062966423077636
31
-3.3494521692060551e-12
0
LINE
5
973
100
AcDbEntity
8
0
100
AcDbLine
10
75.050711606956796
20
-4.9062966423077636
30
-3.3494521692060551e-12
11
75.050711612584891
21
-3.9062187775065005
31
-2.1107948366996596e-12
0
ARC
5
974
100
AcDbEntity
8
0
100
AcDbCircle
10
76.050711626600005
20
-3.9062031929978405
30
-4.0375684233994189e-13
40
0.99999998856528605
100
AcDbArc
50
89.997324755164726
51
180.0008929264242
0
ARC
5
975
100
AcDbEntity
8
0
100
AcDbCircle
10
-167.9225435324
20
-24.956298751000805
30
2.9752678998914488e-12
40
1.0000000000000029
100
AcDbArc
50
89.997321427995189
51
179.9972319473346
0
LINE
5
976
100
AcDbEntity
8
0
100
AcDbLine
10
-167.92249678249928
20
-23.956298752093581
30
2.9632497356630146e-12
11
-134.49251655976104
21
-23.956298761479978
31
2.8747775775718279e-12
0
ARC
5
977
100
AcDbEntity
8
0
100
AcDbCircle
10
-134.4924697884
20
-24.956298751000805
30
2.9752678998914488e-12
40
1.0000000000000073
100
AcDbArc
50
0.0041522917690871557
51
90.002679801615912
0
LINE
5
978
100
AcDbEntity
8
0
100
AcDbLine
10
-133.49246979102605
20
-24.956226279836777
30
2.9752670289210966e-12
11
-133.49246982598009
21
-36.956190953887621
31
2.8909329402717014e-12
0
ARC
5
979
100
AcDbEntity
8
0
100
AcDbCircle
10
-134.49246980808201
20
-36.956236954440001
30
5.1298064315542584e-13
40
1.0000000000000007
100
AcDbArc
50
-90.002678324613214
51
0.002635637550969953
0
LINE
5
980
100
AcDbEntity
8
0
100
AcDbLine
10
-134.49251655366493
20
-37.956236953347428
30
5.2397185108720562e-13
11
-136.96074481763765
21
-37.956237703809315
31
1.8342445176316494e-12
0
LINE
5
981
100
AcDbEntity
8
0
100
AcDbLine
10
-136.96074481763765
20
-37.956237703809315
30
1.8342445176316494e-12
11
-136.96074483167524
21
-38.956284437091377
31
4.8124774849940865e-13
0
ARC
5
982
100
AcDbEntity
8
0
100
AcDbCircle
10
-137.96074485840001
20
-38.956211969001401
30
7.1134282815188861e-13
40
1.0000000000000007
100
AcDbArc
50
269.99732556475595
51
359.99584788439779
0
LINE
5
983
100
AcDbEntity
8
0
100
AcDbLine
10
-137.96079153610063
20
-39.956211967911997
30
6.4434086868875123e-13
11
-142.96078683236667
21
-39.95621195904593
31
2.5549051680163105e-12
0
ARC
5
984
100
AcDbEntity
8
0
100
AcDbCircle
10
-142.96075866339999
20
-38.956211968001398
30
-1.2887933396483719e-12
40
0.99999999999999634
100
AcDbArc
50
180.0013444367942
51
269.99838603708196
0
ARC
5
985
100
AcDbEntity
8
0
100
AcDbCircle
10
-144.96076807739999
20
-38.956247131999902
30
6.6103581221366584e-13
40
1.0000094143437457
100
AcDbArc
50
0.00067030529649389384
51
89.999597927565461
0
LINE
5
986
100
AcDbEntity
8
0
100
AcDbLine
10
-144.96076105984611
20
-37.956237717024528
30
6.2903333222911962e-13
11
-159.83676912543558
21
-37.956237708420105
31
2.0901095019620235e-12
0
ARC
5
987
100
AcDbEntity
8
0
100
AcDbCircle
10
-159.83673522539999
20
-38.9562377170014
30
3.6092866027714819e-13
40
1.0000000091559071
100
AcDbArc
50
90.001942328947209
51
180.00036094940694
0
ARC
5
988
100
AcDbEntity
8
0
100
AcDbCircle
10
-161.8367352244
20
-38.956211968001398
30
-1.2887933396483719e-12
40
1.0000000000000027
100
AcDbArc
50
269.9995345749179
51
359.99816374068587
0
LINE
5
989
100
AcDbEntity
8
0
100
AcDbLine
10
-161.83674334760011
20
-39.956211967968407
30
-1.3557952991822892e-12
11
-166.83673864285316
21
-39.956211959215068
31
3.5236681573970782e-12
0
ARC
5
990
100
AcDbEntity
8
0
100
AcDbCircle
10
-166.83678532240003
20
-38.956211969001401
30
1.9109041117898495e-12
40
1.0000000000000044
100
AcDbArc
50
180.00276811165213
51
270.00267454104943
0
LINE
5
991
100
AcDbEntity
8
0
100
AcDbLine
10
-167.83678532123298
20
-38.956260281665791
30
1.910900874746665e-12
11
-167.83678532089766
21
-37.952563112142165
31
6.1802873873811815e-13
0
ARC
5
992
100
AcDbEntity
8
0
100
AcDbCircle
10
-167.92254353140004
20
-36.9562471330009
30
1.5633556976889505e-12
40
1.0000000000000022
100
AcDbArc
50
179.99892865456462
51
274.91962633921906
0
LINE
5
993
100
AcDbEntity
8
0
100
AcDbLine
10
-168.92254353122522
20
-36.956228434495777
30
1.5633554542836852e-12
11
-168.92254353123298
21
-24.956250439368127
31
2.9752673192743121e-12
0
LINE
5
994
100
AcDbEntity
8
0
100
AcDbLine
10
77.34501357910564
20
33.193707554784133
30
6.6732888112585112e-13
11
108.39498040324366
21
33.193707555670223
31
6.673289666085586e-13
0
ARC
5
995
100
AcDbEntity
8
0
100
AcDbCircle
10
108.39502715960002
20
32.1937075430045
30
3.7323331500086578e-12
40
0.99999999999999023
100
AcDbArc
50
0.0041517585934411428
51
90.002678941848657
0
LINE
5
996
100
AcDbEntity
8
0
100
AcDbLine
10
109.39502715697465
20
32.193780004861772
30
3.7323309758527637e-12
11
109.39502713832445
21
20.193696094807638
31
3.9349345141082623e-12
0
ARC
5
997
100
AcDbEntity
8
0
100
AcDbCircle
10
108.39502715960002
20
20.193768575996302
30
1.0920312589368667e-11
40
1.0000000000000004
100
AcDbArc
50
265.00495942885163
51
359.99584713369973
0
LINE
5
998
100
AcDbEntity
8
0
100
AcDbLine
10
108.30795764616053
20
19.197566337578113
30
1.0851574275308278e-11
11
108.30795765205771
21
18.193721842257855
31
1.0025796274228077e-13
0
ARC
5
999
100
AcDbEntity
8
0
100
AcDbCircle
10
107.3079576486
20
18.1937943239958
30
1.2553783707161662e-12
40
1.0000000000000004
100
AcDbArc
50
270.00415438521202
51
359.99584710236877
0
LINE
5
1000
100
AcDbEntity
8
0
100
AcDbLine
10
107.30803015630028
20
17.193794326624484
30
1.2553783707161652e-12
11
102.30803486372287
21
17.193794328618001
31
3.5336163026637711e-12
0
ARC
5
1001
100
AcDbEntity
8
0
100
AcDbCircle
10
102.30798675860001
20
18.1937943249958
30
2.7685833235137113e-12
40
1.0000000000000107
100
AcDbArc
50
180.00181632913961
51
270.00275622052055
0
ARC
5
1002
100
AcDbEntity
8
0
100
AcDbCircle
10
100.3079867596
20
18.193768577995801
30
-1.881342979568541e-12
40
0.99999999952019913
100
AcDbArc
50
-0.00034113359123504592
51
90.002597343726507
0
LINE
5
1003
100
AcDbEntity
8
0
100
AcDbLine
10
100.30794142740018
20
19.193768576968296
30
-1.8123426186589863e-12
11
85.432052572099963
21
19.193768579755151
31
2.6457513549507382e-12
0
ARC
5
1004
100
AcDbEntity
8
0
100
AcDbCircle
10
85.432010196600018
20
18.193768578001102
30
4.1181981620972447e-12
40
1.0000000026518927
100
AcDbArc
50
89.997572062704137
51
179.99926240281482
0
ARC
5
1005
100
AcDbEntity
8
0
100
AcDbCircle
10
83.432010197600007
20
18.1937943249958
30
8.8678710650481614e-12
40
1.0000000000000011
100
AcDbArc
50
269.99707424830206
51
359.99926240281485
0
LINE
5
1006
100
AcDbEntity
8
0
100
AcDbLine
10
83.431959133599804
20
17.193794326299564
30
8.7988707041576671e-12
11
78.431963961701612
21
17.193794328880045
31
2.5614166256511526e-12
0
ARC
5
1007
100
AcDbEntity
8
0
100
AcDbCircle
10
78.432036393600001
20
18.1937943239958
30
1.2553783707161662e-12
40
0.99999999999999589
100
AcDbArc
50
180.00276860693336
51
269.99584995790718
0
LINE
5
1008
100
AcDbEntity
8
0
100
AcDbLine
10
77.432036394767479
20
18.193746002688638
30
1.2553783707161652e-12
11
77.432036396082538
21
19.197566337079536
31
1.6615938344053675e-12
0
ARC
5
1009
100
AcDbEntity
8
0
100
AcDbCircle
10
77.344966882600005
20
20.193768575996302
30
3.219875079507607e-12
40
0.99999999999999756
100
AcDbArc
50
180.0027686301022
51
274.99504057111801
0
LINE
5
1010
100
AcDbEntity
8
0
100
AcDbLine
10
76.344966883767512
20
20.193720254284941
30
3.2198717452920792e-12
11
76.344966873875578
21
32.193755852584637
31
1.3051109719292709e-12
0
ARC
5
1011
100
AcDbEntity
8
0
100
AcDbCircle
10
77.344966881659502
20
32.193707540347603
30
3.7323331500060034e-12
40
1.0000000155268542
100
AcDbArc
50
89.99732443346285
51
179.99723191283775
0
LINE
5
1012
100
AcDbEntity
8
0
100
AcDbLine
10
109.39502713810248
20
-24.95622628459769
30
-1.7251662753225337e-12
11
109.39502713810207
21
-36.956190954123151
31
-3.2718650056966909e-12
0
ARC
5
1013
100
AcDbEntity
8
0
100
AcDbCircle
10
108.3950271576
20
-36.956237720000999
30
-3.3363707508020634e-12
40
0.99999999999999845
100
AcDbArc
50
-89.995848147213891
51
0.0026794873521018303
0
LINE
5
1014
100
AcDbEntity
8
0
100
AcDbLine
10
108.39509962110111
20
-37.956237717375522
30
-3.3233533858724893e-12
11
101.16434099242971
21
-37.956237704116432
31
1.7938138958355162e-12
0
LINE
5
1015
100
AcDbEntity
8
0
100
AcDbLine
10
101.16434099242971
20
-37.956237704116432
30
1.7938138958355162e-12
11
101.1643409849915
21
-38.956284437095171
31
-9.4405602792312224e-13
0
ARC
5
1016
100
AcDbEntity
8
0
100
AcDbCircle
10
100.16434097160001
20
-38.956211971001501
30
-3.1891829075839598e-12
40
1.000000000000004
100
AcDbArc
50
270.00415470037859
51
359.99584799877414
0
LINE
5
1017
100
AcDbEntity
8
0
100
AcDbLine
10
100.16441348480099
20
-39.956211968372422
30
-3.2561848669439345e-12
11
95.164418190097052
21
-39.95621195921467
31
3.5291622609020134e-12
0
ARC
5
1018
100
AcDbEntity
8
0
100
AcDbCircle
10
95.164371484599997
20
-38.956211969001401
30
1.9109041117898495e-12
40
0.9999999999999869
100
AcDbArc
50
180.00276811165213
51
270.00267602788557
0
LINE
5
1019
100
AcDbEntity
8
0
100
AcDbLine
10
94.164371485767063
20
-38.956260281665891
30
1.9109008748525373e-12
11
94.164371475211581
21
-37.956237704080266
31
2.1597993706568448e-12
0
LINE
5
1020
100
AcDbEntity
8
0
100
AcDbLine
10
94.164371475211581
20
-37.956237704080266
30
2.1597993706568448e-12
11
77.288389182410356
21
-37.956237704101966
31
1.7972370834962429e-12
0
LINE
5
1021
100
AcDbEntity
8
0
100
AcDbLine
10
77.288389182410356
20
-37.956237704101966
30
1.7972370834962429e-12
11
77.288389188324729
21
-38.956284438446417
31
6.0247905344439252e-13
0
ARC
5
1022
100
AcDbEntity
8
0
100
AcDbCircle
10
76.288389204599994
20
-38.956211969001401
30
7.1134282815188861e-13
40
0.99999999999999778
100
AcDbArc
50
269.99732187490457
51
359.99584780662718
0
LINE
5
1023
100
AcDbEntity
8
0
100
AcDbLine
10
76.288342462499315
20
-39.956211967908992
30
6.4434086868895419e-13
11
71.288347294629773
21
-39.956211959477429
31
1.8245762953048685e-12
0
ARC
5
1024
100
AcDbEntity
8
0
100
AcDbCircle
10
71.288419717599893
20
-38.956211971001402
30
-1.9887542622080097e-12
40
1.0000000000000024
100
AcDbArc
50
180.00276803554848
51
269.99585046943173
0
LINE
5
1025
100
AcDbEntity
8
0
100
AcDbLine
10
70.288419718766889
20
-38.956260282335414
30
-1.988757499426754e-12
11
70.288419719081872
21
-37.952439959093276
31
-1.0320991953732597e-12
0
ARC
5
1026
100
AcDbEntity
8
0
100
AcDbCircle
10
70.201350207600001
20
-36.956237720000999
30
-1.7369557059514432e-12
40
0.99999999999999711
100
AcDbArc
50
179.99910660593679
51
274.9950404560484
0
LINE
5
1027
100
AcDbEntity
8
0
100
AcDbLine
10
69.201350207721575
20
-36.956222127331188
30
-1.7369559089269172e-12
11
69.201350201573746
21
-24.956195114318959
31
-5.055907104992804e-13
0
ARC
5
1028
100
AcDbEntity
8
0
100
AcDbCircle
10
70.201350207600001
20
-24.956179540000399
30
2.9992746546708582e-13
40
0.99999999999999956
100
AcDbArc
50
90.004153966936343
51
180.00089234255188
0
LINE
5
1029
100
AcDbEntity
8
0
100
AcDbLine
10
70.201277707200006
20
-23.956179542628554
30
2.9992746546708481e-13
11
77.288389181700012
21
-23.956179543000498
31
2.6369948827771566e-14
0
LINE
5
1030
100
AcDbEntity
8
0
100
AcDbLine
10
77.288389181700012
20
-23.956298752000901
30
-2.393715108927829e-14
11
94.164371474800021
21
-23.956298752000901
31
-2.393715108927829e-14
0
LINE
5
1031
100
AcDbEntity
8
0
100
AcDbLine
10
94.164371474800021
20
-23.956179543000498
30
2.6369948827771566e-14
11
108.39509961959834
21
-23.956179542728137
31
-6.2829884289888476e-13
0
ARC
5
1032
100
AcDbEntity
8
0
100
AcDbCircle
10
108.3950271576
20
-24.956179540000399
30
-1.2748044971360131e-12
40
0.99999998159500159
100
AcDbArc
50
-0.0026782680606129323
51
89.995848233315812
0
CIRCLE
5
1033
100
AcDbEntity
8
0
100
AcDbCircle
10
-79.998562304399996
20
63.031218699997204
30
-1.8911746427914996e-12
40
1.7500000000000002
0
CIRCLE
5
1034
100
AcDbEntity
8
0
100
AcDbCircle
10
30.957507633599999
20
50.0062467650001
30
-1.50037628629015e-12
40
4
0
CIRCLE
5
1035
100
AcDbEntity
8
0
100
AcDbCircle
10
-54.767498470400007
20
50.0062467650001
30
-1.50037628629015e-12
40
4
0
CIRCLE
5
1036
100
AcDbEntity
8
0
100
AcDbCircle
10
0.00143769559997771
20
63.031218699997204
30
-1.8911746427914996e-12
40
1.7500000000000002
0
CIRCLE
5
1037
100
AcDbEntity
8
0
100
AcDbCircle
10
80.001437695600004
20
63.031218699997204
30
-1.8911746427914996e-12
40
1.7500000000000002
0
CIRCLE
5
1038
100
AcDbEntity
8
0
100
AcDbCircle
10
160.00143769565
20
63.031218699997204
30
-1.8911746427914996e-12
40
1.7500000000000002
0
CIRCLE
5
1039
100
AcDbEntity
8
0
100
AcDbCircle
10
160.00143769565
20
-63.02878130000191
30
1.8911015161452557e-12
40
1.7500000000000002
0
CIRCLE
5
1040
100
AcDbEntity
8
0
100
AcDbCircle
10
80.001437695600004
20
-63.02878130000191
30
1.8911015161452557e-12
40
1.7500000000000002
0
CIRCLE
5
1041
100
AcDbEntity
8
0
100
AcDbCircle
10
0.00143769559997771
20
-63.02878130000191
30
4.237401093078573e-12
40
1.7500000000000002
0
CIRCLE
5
1042
100
AcDbEntity
8
0
100
AcDbCircle
10
-79.998562304399996
20
-63.02878130000191
30
-2.9131290748978173e-12
40
1.7500000000000002
0
CIRCLE
5
1043
100
AcDbEntity
8
0
100
AcDbCircle
10
-159.9985623044
20
-63.02878130000191
30
-2.9131290748978173e-12
40
1.7500000000000002
0
CIRCLE
5
1044
100
AcDbEntity
8
0
100
AcDbCircle
10
-159.9985623044
20
63.031218699997204
30
-1.8911746427914996e-12
40
1.7500000000000002
0
ENDSEC
0
SECTION
2
OBJECTS
0
DICTIONARY
5
C
100
AcDbDictionary
3
ACAD_GROUP
350
D
3
ACAD_MLINESTYLE
350
17
0
DICTIONARY
5
D
100
AcDbDictionary
0
DICTIONARY
5
1A
330
C
100
AcDbDictionary
0
DICTIONARY
5
17
100
AcDbDictionary
0
ENDSEC
0
EOF
